TiroTelugu-Italic.ufo
<glyph name="dUdatta" format="2">
  <unicode hex="0951"/>
  <outline>
    <contour>
      <point x="121" y="765" type="line"/>
      <point x="170" y="1017" type="line"/>
      <point x="128" y="1017" type="line"/>
      <point x="79" y="765" type="line"/>
    </contour>
  </outline>
</glyph>
<glyph name="dAnudatta" format="2">
  <unicode hex="0952"/>
  <outline>
    <contour>
      <point x="124" y="-323" type="line"/>
      <point x="133" y="-276" type="line"/>
      <point x="-337" y="-276" type="line"/>
      <point x="-346" y="-323" type="line"/>
    </contour>
  </outline>
  <guideline angle="90" x="-133" y="0"/>
</glyph>
<glyph name="DoubleDanda" format="2">
  <advance width="390"/>
  <unicode hex="0965"/>
  <outline>
    <contour>
      <point x="133" y="525" type="line"/>
      <point x="28" y="-15" type="line"/>
      <point x="78" y="-15" type="line"/>
      <point x="183" y="525" type="line"/>
    </contour>
    <contour>
      <point x="313" y="525" type="line"/>
      <point x="208" y="-15" type="line"/>
      <point x="258" y="-15" type="line"/>
      <point x="363" y="525" type="line"/>
    </contour>
  </outline>
</glyph>
<glyph name="tCandrabindu" format="2">
  <unicode hex="0C00"/>
  <outline>
    <contour>
      <point x="109" y="755" type="curve" smooth="yes"/>
      <point x="246" y="755"/>
      <point x="302" y="870"/>
      <point x="318" y="955" type="curve"/>
      <point x="281" y="955" type="line"/>
      <point x="265" y="891"/>
      <point x="211" y="827"/>
      <point x="118" y="827" type="curve" smooth="yes"/>
      <point x="25" y="827"/>
      <point x="-9" y="890"/>
      <point x="-9" y="942" type="curve" smooth="yes"/>
      <point x="-9" y="946"/>
      <point x="-9" y="951"/>
      <point x="-8" y="955" type="curve"/>
      <point x="-45" y="955" type="line"/>
      <point x="-47" y="944"/>
      <point x="-48" y="933"/>
      <point x="-48" y="921" type="curve" smooth="yes"/>
      <point x="-48" y="842"/>
      <point x="-7" y="755"/>
    </contour>
    <contour>
      <point x="128" y="894" type="curve" smooth="yes"/>
      <point x="165" y="894"/>
      <point x="193" y="925"/>
      <point x="193" y="959" type="curve" smooth="yes"/>
      <point x="193" y="989"/>
      <point x="172" y="1012"/>
      <point x="140" y="1012" type="curve" smooth="yes"/>
      <point x="103" y="1012"/>
      <point x="75" y="983"/>
      <point x="75" y="948" type="curve" smooth="yes"/>
      <point x="75" y="918"/>
      <point x="95" y="894"/>
    </contour>
  </outline>
</glyph>
<glyph name="tArasunna" format="2">
  <advance width="471"/>
  <unicode hex="0C01"/>
  <outline>
    <contour>
      <point x="311" y="-15" type="curve" smooth="yes"/>
      <point x="330" y="-15"/>
      <point x="351" y="-13"/>
      <point x="371" y="-6" type="curve"/>
      <point x="368" y="33" type="line"/>
      <point x="353" y="30"/>
      <point x="338" y="29"/>
      <point x="323" y="29" type="curve" smooth="yes"/>
      <point x="230" y="29"/>
      <point x="161" y="106"/>
      <point x="161" y="222" type="curve" smooth="yes"/>
      <point x="161" y="371"/>
      <point x="261" y="481"/>
      <point x="393" y="481" type="curve" smooth="yes"/>
      <point x="409" y="481"/>
      <point x="429" y="481"/>
      <point x="453" y="475" type="curve"/>
      <point x="469" y="517" type="line"/>
      <point x="440" y="524"/>
      <point x="413" y="525"/>
      <point x="398" y="525" type="curve" smooth="yes"/>
      <point x="220" y="525"/>
      <point x="65" y="405"/>
      <point x="65" y="225" type="curve" smooth="yes"/>
      <point x="65" y="85"/>
      <point x="178" y="-15"/>
    </contour>
  </outline>
  <guideline angle="0" x="0" y="255"/>
  <guideline angle="90" x="348" y="0"/>
  <guideline angle="90" x="417" y="0"/>
</glyph>
<glyph name="tAnusvara" format="2">
  <advance width="680"/>
  <unicode hex="0C02"/>
  <outline>
    <contour>
      <point x="313" y="-15" type="curve" smooth="yes"/>
      <point x="479" y="-15"/>
      <point x="614" y="118"/>
      <point x="614" y="287" type="curve" smooth="yes"/>
      <point x="614" y="430"/>
      <point x="516" y="525"/>
      <point x="378" y="525" type="curve" smooth="yes"/>
      <point x="215" y="525"/>
      <point x="71" y="400"/>
      <point x="71" y="229" type="curve" smooth="yes"/>
      <point x="71" y="93"/>
      <point x="165" y="-15"/>
    </contour>
    <contour>
      <point x="323" y="92" type="curve" smooth="yes"/>
      <point x="209" y="92"/>
      <point x="131" y="161"/>
      <point x="131" y="261" type="curve" smooth="yes"/>
      <point x="131" y="381"/>
      <point x="241" y="482"/>
      <point x="373" y="482" type="curve" smooth="yes"/>
      <point x="500" y="482"/>
      <point x="564" y="402"/>
      <point x="564" y="303" type="curve" smooth="yes"/>
      <point x="564" y="174"/>
      <point x="448" y="92"/>
    </contour>
  </outline>
</glyph>
<glyph name="tVisarga" format="2">
  <advance width="364"/>
  <unicode hex="0C03"/>
  <outline>
    <contour>
      <point x="203" y="294" type="curve" smooth="yes"/>
      <point x="278" y="294"/>
      <point x="334" y="350"/>
      <point x="334" y="421" type="curve" smooth="yes"/>
      <point x="334" y="484"/>
      <point x="294" y="525"/>
      <point x="229" y="525" type="curve" smooth="yes"/>
      <point x="151" y="525"/>
      <point x="91" y="465"/>
      <point x="91" y="399" type="curve" smooth="yes"/>
      <point x="91" y="335"/>
      <point x="138" y="294"/>
    </contour>
    <contour>
      <point x="143" y="-15" type="curve" smooth="yes"/>
      <point x="218" y="-15"/>
      <point x="274" y="41"/>
      <point x="274" y="112" type="curve" smooth="yes"/>
      <point x="274" y="175"/>
      <point x="234" y="216"/>
      <point x="169" y="216" type="curve" smooth="yes"/>
      <point x="91" y="216"/>
      <point x="31" y="156"/>
      <point x="31" y="90" type="curve" smooth="yes"/>
      <point x="31" y="26"/>
      <point x="78" y="-15"/>
    </contour>
    <contour>
      <point x="153" y="33" type="curve" smooth="yes"/>
      <point x="114" y="33"/>
      <point x="91" y="57"/>
      <point x="91" y="94" type="curve" smooth="yes"/>
      <point x="91" y="134"/>
      <point x="126" y="168"/>
      <point x="170" y="168" type="curve" smooth="yes"/>
      <point x="210" y="168"/>
      <point x="232" y="140"/>
      <point x="232" y="105" type="curve" smooth="yes"/>
      <point x="232" y="65"/>
      <point x="197" y="33"/>
    </contour>
    <contour>
      <point x="213" y="342" type="curve" smooth="yes"/>
      <point x="174" y="342"/>
      <point x="151" y="366"/>
      <point x="151" y="403" type="curve" smooth="yes"/>
      <point x="151" y="443"/>
      <point x="186" y="477"/>
      <point x="230" y="477" type="curve" smooth="yes"/>
      <point x="270" y="477"/>
      <point x="292" y="449"/>
      <point x="292" y="414" type="curve" smooth="yes"/>
      <point x="292" y="374"/>
      <point x="257" y="342"/>
    </contour>
  </outline>
</glyph>
<glyph name="tAnusvaraAbove" format="2">
  <unicode hex="0C04"/>
  <outline>
    <contour>
      <point x="107" y="755" type="curve" smooth="yes"/>
      <point x="172" y="755"/>
      <point x="223" y="805"/>
      <point x="223" y="868" type="curve" smooth="yes"/>
      <point x="223" y="923"/>
      <point x="180" y="959"/>
      <point x="128" y="959" type="curve" smooth="yes"/>
      <point x="65" y="959"/>
      <point x="12" y="908"/>
      <point x="12" y="845" type="curve" smooth="yes"/>
      <point x="12" y="792"/>
      <point x="52" y="755"/>
    </contour>
    <contour>
      <point x="106" y="793" type="curve" smooth="yes"/>
      <point x="78" y="793"/>
      <point x="55" y="813"/>
      <point x="55" y="845" type="curve" smooth="yes"/>
      <point x="55" y="883"/>
      <point x="85" y="910"/>
      <point x="121" y="910" type="curve" smooth="yes"/>
      <point x="152" y="910"/>
      <point x="177" y="891"/>
      <point x="177" y="857" type="curve" smooth="yes"/>
      <point x="177" y="818"/>
      <point x="144" y="793"/>
    </contour>
  </outline>
  <guideline angle="90" x="-476" y="0"/>
</glyph>
<glyph name="tA" format="2">
  <advance width="921"/>
  <unicode hex="0C05"/>
  <outline>
    <contour>
      <point x="416" y="-15" type="curve" smooth="yes"/>
      <point x="742" y="-15"/>
      <point x="859" y="162"/>
      <point x="859" y="311" type="curve" smooth="yes"/>
      <point x="859" y="445"/>
      <point x="775" y="525"/>
      <point x="685" y="525" type="curve" smooth="yes"/>
      <point x="582" y="525"/>
      <point x="531" y="457"/>
      <point x="531" y="388" type="curve" smooth="yes"/>
      <point x="531" y="329"/>
      <point x="571" y="280"/>
      <point x="630" y="253" type="curve"/>
      <point x="702" y="257" type="line"/>
      <point x="670" y="268"/>
      <point x="609" y="282"/>
      <point x="609" y="371" type="curve" smooth="yes"/>
      <point x="609" y="425"/>
      <point x="658" y="458"/>
      <point x="699" y="458" type="curve" smooth="yes"/>
      <point x="760" y="458"/>
      <point x="813" y="414"/>
      <point x="813" y="317" type="curve" smooth="yes"/>
      <point x="813" y="217"/>
      <point x="704" y="92"/>
      <point x="438" y="92" type="curve" smooth="yes"/>
      <point x="222" y="92"/>
      <point x="127" y="171"/>
      <point x="127" y="282" type="curve" smooth="yes"/>
      <point x="127" y="363"/>
      <point x="183" y="438"/>
      <point x="285" y="482" type="curve"/>
      <point x="332" y="482" type="line"/>
      <point x="372" y="482"/>
      <point x="393" y="452"/>
      <point x="393" y="421" type="curve" smooth="yes"/>
      <point x="393" y="378"/>
      <point x="354" y="344"/>
      <point x="314" y="344" type="curve" smooth="yes"/>
      <point x="277" y="344"/>
      <point x="250" y="366"/>
      <point x="250" y="404" type="curve" smooth="yes"/>
      <point x="250" y="448"/>
      <point x="288" y="482"/>
      <point x="332" y="482" type="curve"/>
      <point x="345" y="509" type="line"/>
      <point x="198" y="459" type="line"/>
      <point x="222" y="440" type="line"/>
      <point x="212" y="426"/>
      <point x="208" y="409"/>
      <point x="208" y="393" type="curve" smooth="yes"/>
      <point x="208" y="344"/>
      <point x="247" y="300"/>
      <point x="318" y="300" type="curve" smooth="yes"/>
      <point x="397" y="300"/>
      <point x="456" y="353"/>
      <point x="456" y="421" type="curve" smooth="yes"/>
      <point x="456" y="479"/>
      <point x="414" y="525"/>
      <point x="337" y="525" type="curve" smooth="yes"/>
      <point x="217" y="525"/>
      <point x="72" y="422"/>
      <point x="72" y="247" type="curve" smooth="yes"/>
      <point x="72" y="99"/>
      <point x="202" y="-15"/>
    </contour>
    <contour>
      <point x="697" y="216" type="line"/>
      <point x="702" y="257" type="line"/>
      <point x="614" y="277" type="line"/>
      <point x="611" y="257" type="line"/>
      <point x="221" y="257" type="line"/>
      <point x="216" y="216" type="line"/>
    </contour>
  </outline>
</glyph>
<glyph name="tAa" format="2">
  <advance width="898"/>
  <unicode hex="0C06"/>
  <outline>
    <contour>
      <point x="416" y="-15" type="curve" smooth="yes"/>
      <point x="683" y="-15"/>
      <point x="820" y="118"/>
      <point x="820" y="218" type="curve" smooth="yes"/>
      <point x="820" y="266"/>
      <point x="797" y="304"/>
      <point x="740" y="315" type="curve" smooth="yes"/>
      <point x="715" y="320" type="line" smooth="yes"/>
      <point x="652" y="332"/>
      <point x="615" y="351"/>
      <point x="615" y="403" type="curve" smooth="yes"/>
      <point x="615" y="449"/>
      <point x="653" y="480"/>
      <point x="697" y="480" type="curve" smooth="yes"/>
      <point x="743" y="480"/>
      <point x="773" y="450"/>
      <point x="773" y="406" type="curve" smooth="yes"/>
      <point x="773" y="369"/>
      <point x="750" y="338"/>
      <point x="709" y="303" type="curve" smooth="yes"/>
      <point x="672" y="273"/>
      <point x="629" y="257"/>
      <point x="571" y="257" type="curve" smooth="yes"/>
      <point x="222" y="257" type="line"/>
      <point x="217" y="216" type="line"/>
      <point x="555" y="216" type="line" smooth="yes"/>
      <point x="637" y="216"/>
      <point x="698" y="240"/>
      <point x="744" y="283" type="curve" smooth="yes"/>
      <point x="790" y="324"/>
      <point x="815" y="365"/>
      <point x="815" y="412" type="curve" smooth="yes"/>
      <point x="815" y="480"/>
      <point x="765" y="525"/>
      <point x="690" y="525" type="curve" smooth="yes"/>
      <point x="606" y="525"/>
      <point x="541" y="477"/>
      <point x="541" y="404" type="curve" smooth="yes"/>
      <point x="541" y="316"/>
      <point x="632" y="299"/>
      <point x="690" y="287" type="curve" smooth="yes"/>
      <point x="719" y="281" type="line" smooth="yes"/>
      <point x="745" y="276"/>
      <point x="764" y="259"/>
      <point x="764" y="226" type="curve" smooth="yes"/>
      <point x="764" y="167"/>
      <point x="672" y="92"/>
      <point x="438" y="92" type="curve" smooth="yes"/>
      <point x="222" y="92"/>
      <point x="127" y="171"/>
      <point x="127" y="282" type="curve" smooth="yes"/>
      <point x="127" y="363"/>
      <point x="183" y="438"/>
      <point x="285" y="482" type="curve"/>
      <point x="332" y="482" type="line"/>
      <point x="372" y="482"/>
      <point x="393" y="452"/>
      <point x="393" y="421" type="curve" smooth="yes"/>
      <point x="393" y="378"/>
      <point x="354" y="344"/>
      <point x="314" y="344" type="curve" smooth="yes"/>
      <point x="277" y="344"/>
      <point x="250" y="366"/>
      <point x="250" y="404" type="curve" smooth="yes"/>
      <point x="250" y="448"/>
      <point x="288" y="482"/>
      <point x="332" y="482" type="curve"/>
      <point x="345" y="509" type="line"/>
      <point x="198" y="459" type="line"/>
      <point x="222" y="440" type="line"/>
      <point x="212" y="426"/>
      <point x="208" y="409"/>
      <point x="208" y="393" type="curve" smooth="yes"/>
      <point x="208" y="344"/>
      <point x="247" y="300"/>
      <point x="318" y="300" type="curve" smooth="yes"/>
      <point x="397" y="300"/>
      <point x="456" y="353"/>
      <point x="456" y="421" type="curve" smooth="yes"/>
      <point x="456" y="479"/>
      <point x="414" y="525"/>
      <point x="337" y="525" type="curve" smooth="yes"/>
      <point x="217" y="525"/>
      <point x="72" y="422"/>
      <point x="72" y="247" type="curve" smooth="yes"/>
      <point x="72" y="99"/>
      <point x="202" y="-15"/>
    </contour>
  </outline>
</glyph>
<glyph name="tI" format="2">
  <advance width="759"/>
  <unicode hex="0C07"/>
  <outline>
    <contour>
      <point x="586" y="-61" type="curve" smooth="yes"/>
      <point x="612" y="-61"/>
      <point x="624" y="-35"/>
      <point x="624" y="-12" type="curve" smooth="yes"/>
      <point x="624" y="108"/>
      <point x="508" y="259"/>
      <point x="309" y="259" type="curve" smooth="yes"/>
      <point x="184" y="259"/>
      <point x="85" y="205"/>
      <point x="85" y="117" type="curve" smooth="yes"/>
      <point x="85" y="44"/>
      <point x="153" y="-15"/>
      <point x="279" y="-15" type="curve" smooth="yes"/>
      <point x="514" y="-15"/>
      <point x="705" y="168"/>
      <point x="705" y="361" type="curve" smooth="yes"/>
      <point x="705" y="459"/>
      <point x="649" y="525"/>
      <point x="565" y="525" type="curve" smooth="yes"/>
      <point x="505" y="525"/>
      <point x="430" y="490"/>
      <point x="385" y="418" type="curve"/>
      <point x="382" y="313" type="line"/>
      <point x="420" y="386"/>
      <point x="488" y="434"/>
      <point x="550" y="434" type="curve" smooth="yes"/>
      <point x="614" y="434"/>
      <point x="656" y="394"/>
      <point x="656" y="335" type="curve" smooth="yes"/>
      <point x="656" y="246"/>
      <point x="548" y="85"/>
      <point x="292" y="85" type="curve" smooth="yes"/>
      <point x="182" y="85"/>
      <point x="136" y="110"/>
      <point x="136" y="148" type="curve" smooth="yes"/>
      <point x="136" y="188"/>
      <point x="205" y="223"/>
      <point x="304" y="223" type="curve" smooth="yes"/>
      <point x="495" y="223"/>
      <point x="563" y="109"/>
      <point x="564" y="-11" type="curve" smooth="yes"/>
      <point x="564" y="-53"/>
      <point x="574" y="-61"/>
    </contour>
    <contour>
      <point x="113" y="316" type="line"/>
      <point x="114" y="324"/>
      <point x="114" y="327"/>
      <point x="116" y="338" type="curve" smooth="yes"/>
      <point x="126" y="393"/>
      <point x="175" y="434"/>
      <point x="243" y="434" type="curve" smooth="yes"/>
      <point x="322" y="434"/>
      <point x="362" y="378"/>
      <point x="371" y="313" type="curve"/>
      <point x="382" y="313" type="line"/>
      <point x="414" y="434" type="line"/>
      <point x="394" y="434" type="line"/>
      <point x="371" y="492"/>
      <point x="326" y="525"/>
      <point x="257" y="525" type="curve" smooth="yes"/>
      <point x="170" y="525"/>
      <point x="77" y="468"/>
      <point x="77" y="324" type="curve" smooth="yes"/>
      <point x="77" y="321"/>
      <point x="77" y="320"/>
      <point x="78" y="309" type="curve"/>
    </contour>
  </outline>
  <guideline angle="90" x="665" y="0"/>
</glyph>
<glyph name="tIi" format="2">
  <advance width="1045"/>
  <unicode hex="0C08"/>
  <outline>
    <contour>
      <point x="382" y="-15" type="curve" smooth="yes"/>
      <point x="561" y="-15"/>
      <point x="688" y="127"/>
      <point x="688" y="290" type="curve" smooth="yes"/>
      <point x="688" y="426"/>
      <point x="591" y="525"/>
      <point x="461" y="525" type="curve" smooth="yes"/>
      <point x="301" y="525"/>
      <point x="145" y="404"/>
      <point x="145" y="228" type="curve" smooth="yes"/>
      <point x="145" y="92"/>
      <point x="243" y="-15"/>
    </contour>
    <contour>
      <point x="399" y="92" type="curve" smooth="yes"/>
      <point x="283" y="92"/>
      <point x="202" y="156"/>
      <point x="202" y="266" type="curve" smooth="yes"/>
      <point x="202" y="391"/>
      <point x="325" y="484"/>
      <point x="453" y="484" type="curve" smooth="yes"/>
      <point x="562" y="484"/>
      <point x="642" y="403"/>
      <point x="642" y="300" type="curve" smooth="yes"/>
      <point x="642" y="187"/>
      <point x="526" y="92"/>
    </contour>
    <contour>
      <point x="853" y="96" type="curve" smooth="yes"/>
      <point x="919" y="96"/>
      <point x="977" y="145"/>
      <point x="977" y="212" type="curve" smooth="yes"/>
      <point x="977" y="254"/>
      <point x="955" y="292"/>
      <point x="908" y="305" type="curve"/>
      <point x="909" y="313" type="line"/>
      <point x="61" y="313" type="line"/>
      <point x="55" y="270" type="line"/>
      <point x="808" y="270" type="line"/>
      <point x="870" y="270" type="line"/>
      <point x="909" y="270"/>
      <point x="931" y="241"/>
      <point x="931" y="209" type="curve" smooth="yes"/>
      <point x="931" y="166"/>
      <point x="896" y="139"/>
      <point x="857" y="139" type="curve" smooth="yes"/>
      <point x="820" y="139"/>
      <point x="795" y="165"/>
      <point x="795" y="198" type="curve" smooth="yes"/>
      <point x="795" y="237"/>
      <point x="825" y="270"/>
      <point x="870" y="270" type="curve"/>
      <point x="879" y="287" type="line"/>
      <point x="782" y="287" type="line"/>
      <point x="787" y="268" type="line"/>
      <point x="762" y="245"/>
      <point x="752" y="219"/>
      <point x="752" y="193" type="curve" smooth="yes"/>
      <point x="752" y="139"/>
      <point x="788" y="96"/>
    </contour>
    <contour>
      <point x="474" y="506" type="line"/>
      <point x="421" y="639"/>
      <point x="407" y="659"/>
      <point x="374" y="659" type="curve" smooth="yes"/>
      <point x="338" y="659"/>
      <point x="325" y="635"/>
      <point x="325" y="612" type="curve" smooth="yes"/>
      <point x="325" y="586"/>
      <point x="343" y="564"/>
      <point x="451" y="505" type="curve"/>
    </contour>
    <contour>
      <point x="469" y="499" type="line"/>
      <point x="624" y="610"/>
      <point x="692" y="655"/>
      <point x="779" y="707" type="curve" smooth="yes"/>
      <point x="781" y="708"/>
      <point x="802" y="719"/>
      <point x="802" y="727" type="curve" smooth="yes"/>
      <point x="802" y="731"/>
      <point x="799" y="734"/>
      <point x="787" y="734" type="curve" smooth="yes"/>
      <point x="720" y="734"/>
      <point x="685" y="727"/>
      <point x="673" y="715" type="curve" smooth="yes"/>
      <point x="618" y="657"/>
      <point x="580" y="617"/>
      <point x="445" y="516" type="curve"/>
    </contour>
    <contour>
      <point x="927" y="304" type="line"/>
      <point x="997" y="337"/>
      <point x="1006" y="377"/>
      <point x="1006" y="406" type="curve" smooth="yes"/>
      <point x="1006" y="457"/>
      <point x="969" y="491"/>
      <point x="911" y="491" type="curve" smooth="yes"/>
      <point x="848" y="491"/>
      <point x="800" y="450"/>
      <point x="800" y="389" type="curve" smooth="yes"/>
      <point x="800" y="384"/>
      <point x="800" y="379"/>
      <point x="801" y="377" type="curve"/>
      <point x="830" y="377" type="line"/>
      <point x="842" y="412"/>
      <point x="870" y="435"/>
      <point x="904" y="435" type="curve" smooth="yes"/>
      <point x="937" y="435"/>
      <point x="953" y="414"/>
      <point x="953" y="392" type="curve" smooth="yes"/>
      <point x="953" y="353"/>
      <point x="900" y="322"/>
      <point x="852" y="308" type="curve"/>
      <point x="923" y="286" type="line"/>
    </contour>
  </outline>
  <guideline angle="0" x="0" y="313"/>
  <guideline angle="0" x="0" y="270"/>
</glyph>
<glyph name="tU" format="2">
  <advance width="874"/>
  <unicode hex="0C09"/>
  <outline>
    <contour>
      <point x="238" y="-15" type="curve" smooth="yes"/>
      <point x="310" y="-15"/>
      <point x="373" y="21"/>
      <point x="409" y="86" type="curve"/>
      <point x="429" y="86" type="line"/>
      <point x="421" y="215" type="line"/>
      <point x="385" y="148"/>
      <point x="330" y="92"/>
      <point x="266" y="92" type="curve" smooth="yes"/>
      <point x="186" y="92"/>
      <point x="152" y="146"/>
      <point x="152" y="219" type="curve" smooth="yes"/>
      <point x="152" y="349"/>
      <point x="307" y="484"/>
      <point x="472" y="484" type="curve" smooth="yes"/>
      <point x="536" y="484"/>
      <point x="595" y="466"/>
      <point x="639" y="434" type="curve"/>
      <point x="664" y="466" type="line"/>
      <point x="615" y="503"/>
      <point x="557" y="525"/>
      <point x="480" y="525" type="curve" smooth="yes"/>
      <point x="282" y="525"/>
      <point x="87" y="369"/>
      <point x="87" y="164" type="curve" smooth="yes"/>
      <point x="87" y="41"/>
      <point x="160" y="-15"/>
    </contour>
    <contour>
      <point x="564" y="-15" type="curve" smooth="yes"/>
      <point x="686" y="-15"/>
      <point x="761" y="77"/>
      <point x="761" y="186" type="curve" smooth="yes"/>
      <point x="761" y="260"/>
      <point x="723" y="323"/>
      <point x="647" y="323" type="curve" smooth="yes"/>
      <point x="581" y="323"/>
      <point x="530" y="278"/>
      <point x="530" y="217" type="curve" smooth="yes"/>
      <point x="530" y="168"/>
      <point x="569" y="130"/>
      <point x="623" y="130" type="curve" smooth="yes"/>
      <point x="660" y="130"/>
      <point x="698" y="150"/>
      <point x="720" y="196" type="curve"/>
      <point x="741" y="196" type="line"/>
      <point x="729" y="213" type="line"/>
      <point x="715" y="126"/>
      <point x="657" y="81"/>
      <point x="579" y="81" type="curve" smooth="yes"/>
      <point x="499" y="81"/>
      <point x="442" y="137"/>
      <point x="435" y="215" type="curve"/>
      <point x="421" y="215" type="line"/>
      <point x="413" y="197"/>
      <point x="403" y="179"/>
      <point x="407" y="130" type="curve" smooth="yes"/>
      <point x="415" y="40"/>
      <point x="470" y="-15"/>
    </contour>
    <contour>
      <point x="838" y="351" type="line"/>
      <point x="844" y="394" type="line"/>
      <point x="82" y="394" type="line"/>
      <point x="76" y="351" type="line"/>
    </contour>
    <contour>
      <point x="634" y="172" type="curve" smooth="yes"/>
      <point x="602" y="172"/>
      <point x="581" y="194"/>
      <point x="581" y="223" type="curve" smooth="yes"/>
      <point x="581" y="253"/>
      <point x="602" y="284"/>
      <point x="645" y="284" type="curve" smooth="yes"/>
      <point x="676" y="284"/>
      <point x="698" y="262"/>
      <point x="698" y="234" type="curve" smooth="yes"/>
      <point x="698" y="208"/>
      <point x="675" y="172"/>
    </contour>
    <contour>
      <point x="488" y="508" type="line"/>
      <point x="540" y="616"/>
      <point x="549" y="644"/>
      <point x="549" y="660" type="curve" smooth="yes"/>
      <point x="549" y="679"/>
      <point x="538" y="695"/>
      <point x="517" y="695" type="curve" smooth="yes"/>
      <point x="491" y="695"/>
      <point x="470" y="677"/>
      <point x="470" y="631" type="curve" smooth="yes"/>
      <point x="470" y="602"/>
      <point x="471" y="556"/>
      <point x="474" y="508" type="curve"/>
    </contour>
  </outline>
  <guideline angle="90" x="416" y="0"/>
</glyph>
<glyph name="tUu" format="2">
  <advance width="1107"/>
  <unicode hex="0C0A"/>
  <outline>
    <contour>
      <point x="238" y="-15" type="curve" smooth="yes"/>
      <point x="310" y="-15"/>
      <point x="373" y="21"/>
      <point x="409" y="86" type="curve"/>
      <point x="429" y="86" type="line"/>
      <point x="421" y="215" type="line"/>
      <point x="385" y="148"/>
      <point x="330" y="92"/>
      <point x="266" y="92" type="curve" smooth="yes"/>
      <point x="186" y="92"/>
      <point x="152" y="146"/>
      <point x="152" y="219" type="curve" smooth="yes"/>
      <point x="152" y="349"/>
      <point x="307" y="484"/>
      <point x="472" y="484" type="curve" smooth="yes"/>
      <point x="538" y="484"/>
      <point x="595" y="466"/>
      <point x="639" y="434" type="curve"/>
      <point x="664" y="466" type="line"/>
      <point x="615" y="503"/>
      <point x="559" y="525"/>
      <point x="480" y="525" type="curve" smooth="yes"/>
      <point x="282" y="525"/>
      <point x="87" y="369"/>
      <point x="87" y="164" type="curve" smooth="yes"/>
      <point x="87" y="41"/>
      <point x="160" y="-15"/>
    </contour>
    <contour>
      <point x="564" y="-15" type="curve" smooth="yes"/>
      <point x="686" y="-15"/>
      <point x="761" y="77"/>
      <point x="761" y="186" type="curve" smooth="yes"/>
      <point x="761" y="260"/>
      <point x="723" y="323"/>
      <point x="647" y="323" type="curve" smooth="yes"/>
      <point x="581" y="323"/>
      <point x="530" y="278"/>
      <point x="530" y="217" type="curve" smooth="yes"/>
      <point x="530" y="168"/>
      <point x="569" y="130"/>
      <point x="623" y="130" type="curve" smooth="yes"/>
      <point x="660" y="130"/>
      <point x="698" y="150"/>
      <point x="720" y="196" type="curve"/>
      <point x="741" y="196" type="line"/>
      <point x="729" y="213" type="line"/>
      <point x="715" y="126"/>
      <point x="657" y="81"/>
      <point x="579" y="81" type="curve" smooth="yes"/>
      <point x="499" y="81"/>
      <point x="442" y="137"/>
      <point x="435" y="215" type="curve"/>
      <point x="421" y="215" type="line"/>
      <point x="413" y="197"/>
      <point x="403" y="179"/>
      <point x="407" y="130" type="curve" smooth="yes"/>
      <point x="415" y="40"/>
      <point x="470" y="-15"/>
    </contour>
    <contour>
      <point x="940" y="177" type="curve" smooth="yes"/>
      <point x="1001" y="177"/>
      <point x="1059" y="223"/>
      <point x="1059" y="293" type="curve" smooth="yes"/>
      <point x="1059" y="338"/>
      <point x="1033" y="375"/>
      <point x="989" y="385" type="curve"/>
      <point x="993" y="394" type="line"/>
      <point x="82" y="394" type="line"/>
      <point x="76" y="351" type="line"/>
      <point x="958" y="351" type="line" smooth="yes"/>
      <point x="994" y="351"/>
      <point x="1014" y="321"/>
      <point x="1014" y="289" type="curve" smooth="yes"/>
      <point x="1014" y="249"/>
      <point x="982" y="220"/>
      <point x="946" y="220" type="curve" smooth="yes"/>
      <point x="911" y="220"/>
      <point x="885" y="244"/>
      <point x="885" y="279" type="curve" smooth="yes"/>
      <point x="885" y="319"/>
      <point x="916" y="351"/>
      <point x="958" y="351" type="curve"/>
      <point x="965" y="365" type="line"/>
      <point x="874" y="364" type="line"/>
      <point x="879" y="348" type="line"/>
      <point x="855" y="327"/>
      <point x="842" y="301"/>
      <point x="842" y="270" type="curve" smooth="yes"/>
      <point x="842" y="216"/>
      <point x="883" y="177"/>
    </contour>
    <contour>
      <point x="634" y="172" type="curve" smooth="yes"/>
      <point x="602" y="172"/>
      <point x="581" y="194"/>
      <point x="581" y="223" type="curve" smooth="yes"/>
      <point x="581" y="253"/>
      <point x="602" y="284"/>
      <point x="645" y="284" type="curve" smooth="yes"/>
      <point x="676" y="284"/>
      <point x="698" y="262"/>
      <point x="698" y="234" type="curve" smooth="yes"/>
      <point x="698" y="208"/>
      <point x="675" y="172"/>
    </contour>
    <contour>
      <point x="428" y="504" type="line"/>
      <point x="456" y="579"/>
      <point x="474" y="640"/>
      <point x="474" y="659" type="curve" smooth="yes"/>
      <point x="474" y="679"/>
      <point x="466" y="695"/>
      <point x="444" y="695" type="curve" smooth="yes"/>
      <point x="413" y="695"/>
      <point x="398" y="673"/>
      <point x="398" y="644" type="curve" smooth="yes"/>
      <point x="398" y="614"/>
      <point x="408" y="548"/>
      <point x="415" y="500" type="curve"/>
    </contour>
    <contour>
      <point x="544" y="499" type="line"/>
      <point x="589" y="584"/>
      <point x="623" y="635"/>
      <point x="623" y="662" type="curve" smooth="yes"/>
      <point x="623" y="679"/>
      <point x="614" y="695"/>
      <point x="592" y="695" type="curve" smooth="yes"/>
      <point x="564" y="695"/>
      <point x="551" y="677"/>
      <point x="546" y="649" type="curve" smooth="yes"/>
      <point x="543" y="631"/>
      <point x="536" y="582"/>
      <point x="532" y="501" type="curve"/>
    </contour>
    <contour>
      <point x="1009" y="383" type="line"/>
      <point x="1062" y="409"/>
      <point x="1086" y="442"/>
      <point x="1086" y="485" type="curve" smooth="yes"/>
      <point x="1086" y="537"/>
      <point x="1047" y="568"/>
      <point x="997" y="568" type="curve" smooth="yes"/>
      <point x="929" y="568"/>
      <point x="889" y="515"/>
      <point x="889" y="468" type="curve" smooth="yes"/>
      <point x="889" y="461"/>
      <point x="890" y="458"/>
      <point x="890" y="454" type="curve"/>
      <point x="919" y="454" type="line"/>
      <point x="928" y="485"/>
      <point x="953" y="512"/>
      <point x="986" y="512" type="curve" smooth="yes"/>
      <point x="1014" y="512"/>
      <point x="1033" y="494"/>
      <point x="1033" y="466" type="curve" smooth="yes"/>
      <point x="1033" y="434"/>
      <point x="999" y="408"/>
      <point x="939" y="389" type="curve"/>
      <point x="1005" y="366" type="line"/>
    </contour>
  </outline>
</glyph>
<glyph name="tVocalicL" format="2">
  <advance width="970"/>
  <unicode hex="0C0C"/>
  <outline>
    <contour>
      <point x="431" y="-250" type="curve" smooth="yes"/>
      <point x="730" y="-250"/>
      <point x="890" y="38"/>
      <point x="890" y="257" type="curve" smooth="yes"/>
      <point x="890" y="418"/>
      <point x="833" y="525"/>
      <point x="788" y="525" type="curve" smooth="yes"/>
      <point x="763" y="525"/>
      <point x="749" y="512"/>
      <point x="749" y="489" type="curve" smooth="yes"/>
      <point x="749" y="459"/>
      <point x="793" y="439"/>
      <point x="822" y="387" type="curve" smooth="yes"/>
      <point x="836" y="361"/>
      <point x="847" y="319"/>
      <point x="847" y="247" type="curve" smooth="yes"/>
      <point x="847" y="73"/>
      <point x="719" y="-143"/>
      <point x="445" y="-143" type="curve" smooth="yes"/>
      <point x="311" y="-143"/>
      <point x="260" y="-104"/>
      <point x="260" y="-40" type="curve" smooth="yes"/>
      <point x="260" y="20"/>
      <point x="339" y="55"/>
      <point x="424" y="82" type="curve" smooth="yes"/>
      <point x="546" y="121"/>
      <point x="707" y="166"/>
      <point x="707" y="361" type="curve" smooth="yes"/>
      <point x="707" y="459"/>
      <point x="648" y="525"/>
      <point x="562" y="525" type="curve" smooth="yes"/>
      <point x="505" y="525"/>
      <point x="430" y="493"/>
      <point x="382" y="406" type="curve"/>
      <point x="381" y="296" type="line"/>
      <point x="418" y="376"/>
      <point x="480" y="434"/>
      <point x="547" y="434" type="curve" smooth="yes"/>
      <point x="609" y="434"/>
      <point x="652" y="389"/>
      <point x="652" y="322" type="curve" smooth="yes"/>
      <point x="652" y="198"/>
      <point x="537" y="161"/>
      <point x="426" y="125" type="curve" smooth="yes"/>
      <point x="315" y="89"/>
      <point x="200" y="48"/>
      <point x="200" y="-69" type="curve" smooth="yes"/>
      <point x="200" y="-167"/>
      <point x="286" y="-250"/>
    </contour>
    <contour>
      <point x="116" y="301" type="line"/>
      <point x="116" y="303"/>
      <point x="116" y="309"/>
      <point x="116" y="311" type="curve"/>
      <point x="116" y="379"/>
      <point x="178" y="434"/>
      <point x="240" y="434" type="curve" smooth="yes"/>
      <point x="324" y="434"/>
      <point x="359" y="371"/>
      <point x="366" y="296" type="curve"/>
      <point x="381" y="296" type="line"/>
      <point x="411" y="425" type="line"/>
      <point x="391" y="425" type="line"/>
      <point x="372" y="491"/>
      <point x="326" y="525"/>
      <point x="260" y="525" type="curve" smooth="yes"/>
      <point x="164" y="525"/>
      <point x="77" y="448"/>
      <point x="77" y="328" type="curve" smooth="yes"/>
      <point x="77" y="319"/>
      <point x="78" y="303"/>
      <point x="79" y="294" type="curve"/>
    </contour>
  </outline>
</glyph>
<glyph name="tE" format="2">
  <advance width="793"/>
  <unicode hex="0C0E"/>
  <outline>
    <contour>
      <point x="162" y="-15" type="curve" smooth="yes"/>
      <point x="235" y="-15"/>
      <point x="297" y="30"/>
      <point x="319" y="115" type="curve"/>
      <point x="297" y="102" type="line"/>
      <point x="321" y="102" type="line"/>
      <point x="338" y="16"/>
      <point x="406" y="-15"/>
      <point x="472" y="-15" type="curve" smooth="yes"/>
      <point x="617" y="-15"/>
      <point x="733" y="138"/>
      <point x="733" y="369" type="curve" smooth="yes"/>
      <point x="733" y="657"/>
      <point x="535" y="796"/>
      <point x="418" y="796" type="curve" smooth="yes"/>
      <point x="365" y="796"/>
      <point x="357" y="768"/>
      <point x="357" y="752" type="curve" smooth="yes"/>
      <point x="357" y="735"/>
      <point x="368" y="718"/>
      <point x="397" y="718" type="curve" smooth="yes"/>
      <point x="405" y="718"/>
      <point x="417" y="719"/>
      <point x="430" y="719" type="curve" smooth="yes"/>
      <point x="578" y="719"/>
      <point x="686" y="585"/>
      <point x="686" y="386" type="curve" smooth="yes"/>
      <point x="686" y="251"/>
      <point x="624" y="92"/>
      <point x="474" y="92" type="curve" smooth="yes"/>
      <point x="362" y="92"/>
      <point x="336" y="157"/>
      <point x="329" y="181" type="curve" smooth="yes"/>
      <point x="323" y="203"/>
      <point x="301" y="283"/>
      <point x="202" y="283" type="curve" smooth="yes"/>
      <point x="113" y="283"/>
      <point x="32" y="216"/>
      <point x="32" y="115" type="curve" smooth="yes"/>
      <point x="32" y="40"/>
      <point x="83" y="-15"/>
    </contour>
    <contour>
      <point x="176" y="86" type="curve" smooth="yes"/>
      <point x="118" y="86"/>
      <point x="87" y="114"/>
      <point x="87" y="153" type="curve" smooth="yes"/>
      <point x="87" y="199"/>
      <point x="132" y="244"/>
      <point x="195" y="244" type="curve" smooth="yes"/>
      <point x="253" y="244"/>
      <point x="284" y="206"/>
      <point x="284" y="167" type="curve" smooth="yes"/>
      <point x="284" y="121"/>
      <point x="240" y="86"/>
    </contour>
  </outline>
</glyph>
<glyph name="tAi" format="2">
  <advance width="807"/>
  <unicode hex="0C10"/>
  <outline>
    <contour>
      <point x="177" y="-15" type="curve" smooth="yes"/>
      <point x="250" y="-15"/>
      <point x="312" y="30"/>
      <point x="334" y="115" type="curve"/>
      <point x="312" y="102" type="line"/>
      <point x="336" y="102" type="line"/>
      <point x="353" y="16"/>
      <point x="421" y="-15"/>
      <point x="487" y="-15" type="curve" smooth="yes"/>
      <point x="637" y="-15"/>
      <point x="745" y="128"/>
      <point x="745" y="312" type="curve" smooth="yes"/>
      <point x="745" y="467"/>
      <point x="671" y="525"/>
      <point x="589" y="525" type="curve" smooth="yes"/>
      <point x="526" y="525"/>
      <point x="463" y="491"/>
      <point x="427" y="434" type="curve"/>
      <point x="407" y="434" type="line"/>
      <point x="419" y="313" type="line"/>
      <point x="453" y="387"/>
      <point x="511" y="442"/>
      <point x="582" y="442" type="curve" smooth="yes"/>
      <point x="644" y="442"/>
      <point x="698" y="400"/>
      <point x="698" y="304" type="curve" smooth="yes"/>
      <point x="698" y="204"/>
      <point x="637" y="92"/>
      <point x="498" y="92" type="curve" smooth="yes"/>
      <point x="377" y="92"/>
      <point x="351" y="157"/>
      <point x="344" y="181" type="curve" smooth="yes"/>
      <point x="338" y="203"/>
      <point x="316" y="283"/>
      <point x="217" y="283" type="curve" smooth="yes"/>
      <point x="128" y="283"/>
      <point x="47" y="216"/>
      <point x="47" y="115" type="curve" smooth="yes"/>
      <point x="47" y="40"/>
      <point x="98" y="-15"/>
    </contour>
    <contour>
      <point x="191" y="86" type="curve" smooth="yes"/>
      <point x="133" y="86"/>
      <point x="102" y="114"/>
      <point x="102" y="153" type="curve" smooth="yes"/>
      <point x="102" y="199"/>
      <point x="147" y="244"/>
      <point x="210" y="244" type="curve" smooth="yes"/>
      <point x="268" y="244"/>
      <point x="299" y="206"/>
      <point x="299" y="167" type="curve" smooth="yes"/>
      <point x="299" y="121"/>
      <point x="255" y="86"/>
    </contour>
    <contour>
      <point x="419" y="313" type="line"/>
      <point x="428" y="386" type="line"/>
      <point x="431" y="466"/>
      <point x="364" y="525"/>
      <point x="277" y="525" type="curve" smooth="yes"/>
      <point x="192" y="525"/>
      <point x="94" y="468"/>
      <point x="94" y="341" type="curve" smooth="yes"/>
      <point x="94" y="336"/>
      <point x="94" y="323"/>
      <point x="95" y="317" type="curve"/>
      <point x="132" y="324" type="line"/>
      <point x="132" y="331"/>
      <point x="133" y="339"/>
      <point x="134" y="346" type="curve" smooth="yes"/>
      <point x="142" y="398"/>
      <point x="201" y="442"/>
      <point x="269" y="442" type="curve" smooth="yes"/>
      <point x="347" y="442"/>
      <point x="394" y="384"/>
      <point x="408" y="313" type="curve"/>
    </contour>
  </outline>
</glyph>
<glyph name="tO" format="2">
  <advance width="797"/>
  <unicode hex="0C12"/>
  <outline>
    <contour>
      <point x="202" y="-15" type="curve" smooth="yes"/>
      <point x="277" y="-15"/>
      <point x="344" y="19"/>
      <point x="383" y="86" type="curve"/>
      <point x="403" y="86" type="line"/>
      <point x="394" y="215" type="line"/>
      <point x="356" y="131"/>
      <point x="294" y="92"/>
      <point x="221" y="92" type="curve" smooth="yes"/>
      <point x="152" y="92"/>
      <point x="109" y="112"/>
      <point x="109" y="155" type="curve" smooth="yes"/>
      <point x="109" y="208"/>
      <point x="166" y="227"/>
      <point x="239" y="247" type="curve" smooth="yes"/>
      <point x="341" y="275"/>
      <point x="420" y="303"/>
      <point x="420" y="398" type="curve" smooth="yes"/>
      <point x="420" y="476"/>
      <point x="358" y="525"/>
      <point x="284" y="525" type="curve" smooth="yes"/>
      <point x="182" y="525"/>
      <point x="113" y="456"/>
      <point x="106" y="353" type="curve"/>
      <point x="140" y="353" type="line"/>
      <point x="149" y="392"/>
      <point x="186" y="452"/>
      <point x="275" y="452" type="curve" smooth="yes"/>
      <point x="334" y="452"/>
      <point x="371" y="425"/>
      <point x="371" y="382" type="curve" smooth="yes"/>
      <point x="371" y="322"/>
      <point x="303" y="307"/>
      <point x="229" y="287" type="curve" smooth="yes"/>
      <point x="142" y="263"/>
      <point x="48" y="232"/>
      <point x="48" y="118" type="curve" smooth="yes"/>
      <point x="48" y="26"/>
      <point x="130" y="-15"/>
    </contour>
    <contour>
      <point x="526" y="-15" type="curve" smooth="yes"/>
      <point x="642" y="-15"/>
      <point x="717" y="61"/>
      <point x="717" y="179" type="curve" smooth="yes"/>
      <point x="717" y="223"/>
      <point x="699" y="272"/>
      <point x="671" y="299" type="curve"/>
      <point x="643" y="274" type="line"/>
      <point x="660" y="254"/>
      <point x="672" y="218"/>
      <point x="672" y="190" type="curve" smooth="yes"/>
      <point x="672" y="132"/>
      <point x="618" y="92"/>
      <point x="537" y="92" type="curve" smooth="yes"/>
      <point x="457" y="92"/>
      <point x="417" y="147"/>
      <point x="408" y="215" type="curve"/>
      <point x="394" y="215" type="line"/>
      <point x="389" y="182"/>
      <point x="382" y="159"/>
      <point x="382" y="129" type="curve" smooth="yes"/>
      <point x="382" y="40"/>
      <point x="443" y="-15"/>
    </contour>
  </outline>
</glyph>
<glyph name="tAu" format="2">
  <advance width="832"/>
  <unicode hex="0C14"/>
  <outline>
    <contour>
      <point x="202" y="-15" type="curve" smooth="yes"/>
      <point x="277" y="-15"/>
      <point x="344" y="19"/>
      <point x="383" y="86" type="curve"/>
      <point x="403" y="86" type="line"/>
      <point x="394" y="215" type="line"/>
      <point x="356" y="131"/>
      <point x="294" y="92"/>
      <point x="221" y="92" type="curve" smooth="yes"/>
      <point x="152" y="92"/>
      <point x="109" y="112"/>
      <point x="109" y="155" type="curve" smooth="yes"/>
      <point x="109" y="208"/>
      <point x="166" y="227"/>
      <point x="239" y="247" type="curve" smooth="yes"/>
      <point x="341" y="275"/>
      <point x="420" y="303"/>
      <point x="420" y="398" type="curve" smooth="yes"/>
      <point x="420" y="476"/>
      <point x="358" y="525"/>
      <point x="284" y="525" type="curve" smooth="yes"/>
      <point x="182" y="525"/>
      <point x="113" y="456"/>
      <point x="106" y="353" type="curve"/>
      <point x="140" y="353" type="line"/>
      <point x="149" y="392"/>
      <point x="186" y="452"/>
      <point x="275" y="452" type="curve" smooth="yes"/>
      <point x="334" y="452"/>
      <point x="371" y="425"/>
      <point x="371" y="382" type="curve" smooth="yes"/>
      <point x="371" y="322"/>
      <point x="303" y="307"/>
      <point x="229" y="287" type="curve" smooth="yes"/>
      <point x="142" y="263"/>
      <point x="48" y="232"/>
      <point x="48" y="118" type="curve" smooth="yes"/>
      <point x="48" y="26"/>
      <point x="130" y="-15"/>
    </contour>
    <contour>
      <point x="526" y="-15" type="curve" smooth="yes"/>
      <point x="642" y="-15"/>
      <point x="717" y="61"/>
      <point x="717" y="179" type="curve" smooth="yes"/>
      <point x="717" y="223"/>
      <point x="699" y="272"/>
      <point x="671" y="299" type="curve"/>
      <point x="643" y="274" type="line"/>
      <point x="660" y="254"/>
      <point x="672" y="218"/>
      <point x="672" y="190" type="curve" smooth="yes"/>
      <point x="672" y="132"/>
      <point x="618" y="92"/>
      <point x="537" y="92" type="curve" smooth="yes"/>
      <point x="457" y="92"/>
      <point x="417" y="147"/>
      <point x="408" y="215" type="curve"/>
      <point x="394" y="215" type="line"/>
      <point x="389" y="182"/>
      <point x="382" y="159"/>
      <point x="382" y="129" type="curve" smooth="yes"/>
      <point x="382" y="40"/>
      <point x="443" y="-15"/>
    </contour>
    <contour>
      <point x="423" y="482" type="line" smooth="yes"/>
      <point x="489" y="482"/>
      <point x="529" y="520"/>
      <point x="529" y="570" type="curve" smooth="yes"/>
      <point x="529" y="594"/>
      <point x="520" y="612"/>
      <point x="504" y="624" type="curve"/>
      <point x="517" y="646" type="line"/>
      <point x="419" y="647" type="line"/>
      <point x="415" y="627" type="line"/>
      <point x="465" y="627"/>
      <point x="485" y="603"/>
      <point x="485" y="573" type="curve" smooth="yes"/>
      <point x="485" y="544"/>
      <point x="466" y="525"/>
      <point x="422" y="525" type="curve" smooth="yes"/>
      <point x="114" y="525" type="line"/>
      <point x="108" y="482" type="line"/>
    </contour>
    <contour>
      <point x="752" y="458" type="curve" smooth="yes"/>
      <point x="816" y="458"/>
      <point x="876" y="505"/>
      <point x="876" y="579" type="curve" smooth="yes"/>
      <point x="876" y="645"/>
      <point x="834" y="693"/>
      <point x="739" y="693" type="curve" smooth="yes"/>
      <point x="138" y="693" type="line"/>
      <point x="128" y="627" type="line"/>
      <point x="713" y="627" type="line"/>
      <point x="766" y="628" type="line"/>
      <point x="803" y="628"/>
      <point x="829" y="604"/>
      <point x="829" y="570" type="curve" smooth="yes"/>
      <point x="829" y="532"/>
      <point x="799" y="501"/>
      <point x="756" y="501" type="curve" smooth="yes"/>
      <point x="718" y="501"/>
      <point x="692" y="526"/>
      <point x="692" y="559" type="curve" smooth="yes"/>
      <point x="692" y="600"/>
      <point x="729" y="628"/>
      <point x="766" y="628" type="curve"/>
      <point x="729" y="651" type="line"/>
      <point x="675" y="633"/>
      <point x="650" y="597"/>
      <point x="650" y="552" type="curve" smooth="yes"/>
      <point x="650" y="501"/>
      <point x="690" y="458"/>
    </contour>
  </outline>
</glyph>
<glyph name="tKa" format="2">
  <advance width="552"/>
  <unicode hex="0C15"/>
  <outline>
    <contour>
      <point x="241" y="-15" type="curve" smooth="yes"/>
      <point x="380" y="-15"/>
      <point x="465" y="77"/>
      <point x="465" y="168" type="curve" smooth="yes"/>
      <point x="465" y="272"/>
      <point x="374" y="284"/>
      <point x="300" y="295" type="curve" smooth="yes"/>
      <point x="224" y="306"/>
      <point x="161" y="310"/>
      <point x="161" y="367" type="curve" smooth="yes"/>
      <point x="161" y="410"/>
      <point x="213" y="453"/>
      <point x="314" y="453" type="curve" smooth="yes"/>
      <point x="442" y="453"/>
      <point x="453" y="392"/>
      <point x="452" y="359" type="curve"/>
      <point x="486" y="359" type="line"/>
      <point x="489" y="368"/>
      <point x="493" y="386"/>
      <point x="493" y="398" type="curve" smooth="yes"/>
      <point x="493" y="472"/>
      <point x="427" y="525"/>
      <point x="325" y="525" type="curve" smooth="yes"/>
      <point x="211" y="525"/>
      <point x="115" y="461"/>
      <point x="115" y="365" type="curve" smooth="yes"/>
      <point x="115" y="273"/>
      <point x="215" y="263"/>
      <point x="290" y="252" type="curve" smooth="yes"/>
      <point x="374" y="240"/>
      <point x="418" y="223"/>
      <point x="418" y="172" type="curve" smooth="yes"/>
      <point x="418" y="129"/>
      <point x="361" y="86"/>
      <point x="255" y="86" type="curve" smooth="yes"/>
      <point x="120" y="86"/>
      <point x="94" y="135"/>
      <point x="94" y="176" type="curve" smooth="yes"/>
      <point x="94" y="180"/>
      <point x="94" y="184"/>
      <point x="95" y="188" type="curve"/>
      <point x="59" y="188" type="line"/>
      <point x="52" y="173"/>
      <point x="48" y="159"/>
      <point x="48" y="139" type="curve" smooth="yes"/>
      <point x="48" y="48"/>
      <point x="137" y="-15"/>
    </contour>
    <contour>
      <point x="343" y="506" type="line"/>
      <point x="290" y="639"/>
      <point x="276" y="659"/>
      <point x="243" y="659" type="curve" smooth="yes"/>
      <point x="207" y="659"/>
      <point x="194" y="635"/>
      <point x="194" y="612" type="curve" smooth="yes"/>
      <point x="194" y="586"/>
      <point x="212" y="564"/>
      <point x="320" y="505" type="curve"/>
    </contour>
    <contour>
      <point x="339" y="499" type="line"/>
      <point x="494" y="610"/>
      <point x="562" y="655"/>
      <point x="649" y="707" type="curve" smooth="yes"/>
      <point x="651" y="708"/>
      <point x="672" y="719"/>
      <point x="672" y="727" type="curve" smooth="yes"/>
      <point x="672" y="731"/>
      <point x="669" y="734"/>
      <point x="657" y="734" type="curve" smooth="yes"/>
      <point x="590" y="734"/>
      <point x="555" y="727"/>
      <point x="543" y="715" type="curve" smooth="yes"/>
      <point x="488" y="657"/>
      <point x="450" y="617"/>
      <point x="315" y="516" type="curve"/>
    </contour>
  </outline>
</glyph>
<glyph name="tGa" format="2">
  <advance width="647"/>
  <unicode hex="0C17"/>
  <outline>
    <contour>
      <point x="104" y="-15" type="curve" smooth="yes"/>
      <point x="140" y="-15"/>
      <point x="164" y="8"/>
      <point x="164" y="43" type="curve" smooth="yes"/>
      <point x="164" y="72"/>
      <point x="139" y="104"/>
      <point x="139" y="201" type="curve" smooth="yes"/>
      <point x="139" y="393"/>
      <point x="308" y="482"/>
      <point x="366" y="482" type="curve" smooth="yes"/>
      <point x="414" y="482"/>
      <point x="508" y="441"/>
      <point x="508" y="266" type="curve" smooth="yes"/>
      <point x="508" y="105"/>
      <point x="407" y="84"/>
      <point x="407" y="27" type="curve" smooth="yes"/>
      <point x="407" y="4"/>
      <point x="423" y="-15"/>
      <point x="453" y="-15" type="curve" smooth="yes"/>
      <point x="528" y="-15"/>
      <point x="571" y="89"/>
      <point x="571" y="212" type="curve" smooth="yes"/>
      <point x="571" y="421"/>
      <point x="470" y="525"/>
      <point x="374" y="525" type="curve" smooth="yes"/>
      <point x="231" y="525"/>
      <point x="46" y="339"/>
      <point x="46" y="108" type="curve" smooth="yes"/>
      <point x="46" y="18"/>
      <point x="70" y="-15"/>
    </contour>
    <contour>
      <point x="393" y="506" type="line"/>
      <point x="340" y="639"/>
      <point x="326" y="659"/>
      <point x="293" y="659" type="curve" smooth="yes"/>
      <point x="257" y="659"/>
      <point x="244" y="635"/>
      <point x="244" y="612" type="curve" smooth="yes"/>
      <point x="244" y="586"/>
      <point x="262" y="564"/>
      <point x="370" y="505" type="curve"/>
    </contour>
    <contour>
      <point x="389" y="499" type="line"/>
      <point x="544" y="610"/>
      <point x="612" y="655"/>
      <point x="699" y="707" type="curve" smooth="yes"/>
      <point x="701" y="708"/>
      <point x="722" y="719"/>
      <point x="722" y="727" type="curve" smooth="yes"/>
      <point x="722" y="731"/>
      <point x="719" y="734"/>
      <point x="707" y="734" type="curve" smooth="yes"/>
      <point x="640" y="734"/>
      <point x="605" y="727"/>
      <point x="593" y="715" type="curve" smooth="yes"/>
      <point x="538" y="657"/>
      <point x="500" y="617"/>
      <point x="365" y="516" type="curve"/>
    </contour>
  </outline>
  <guideline angle="0" x="0" y="520"/>
</glyph>
<glyph name="tGha" format="2">
  <advance width="1133"/>
  <unicode hex="0C18"/>
  <outline>
    <contour>
      <point x="164" y="-15" type="curve" smooth="yes"/>
      <point x="237" y="-15"/>
      <point x="299" y="30"/>
      <point x="321" y="115" type="curve"/>
      <point x="299" y="102" type="line"/>
      <point x="323" y="102" type="line"/>
      <point x="340" y="16"/>
      <point x="414" y="-15"/>
      <point x="474" y="-15" type="curve" smooth="yes"/>
      <point x="580" y="-15"/>
      <point x="699" y="85"/>
      <point x="699" y="276" type="curve" smooth="yes"/>
      <point x="699" y="435"/>
      <point x="588" y="525"/>
      <point x="498" y="525" type="curve" smooth="yes"/>
      <point x="458" y="525"/>
      <point x="447" y="500"/>
      <point x="447" y="484" type="curve" smooth="yes"/>
      <point x="447" y="467"/>
      <point x="459" y="447"/>
      <point x="492" y="447" type="curve" smooth="yes"/>
      <point x="500" y="447"/>
      <point x="514" y="448"/>
      <point x="524" y="448" type="curve" smooth="yes"/>
      <point x="595" y="448"/>
      <point x="654" y="385"/>
      <point x="654" y="283" type="curve" smooth="yes"/>
      <point x="654" y="200"/>
      <point x="600" y="92"/>
      <point x="476" y="92" type="curve" smooth="yes"/>
      <point x="364" y="92"/>
      <point x="338" y="151"/>
      <point x="331" y="181" type="curve" smooth="yes"/>
      <point x="325" y="208"/>
      <point x="303" y="283"/>
      <point x="204" y="283" type="curve" smooth="yes"/>
      <point x="115" y="283"/>
      <point x="34" y="216"/>
      <point x="34" y="115" type="curve" smooth="yes"/>
      <point x="34" y="40"/>
      <point x="85" y="-15"/>
    </contour>
    <contour>
      <point x="283" y="-153" type="curve" smooth="yes"/>
      <point x="313" y="-153"/>
      <point x="335" y="-132"/>
      <point x="335" y="-100" type="curve" smooth="yes"/>
      <point x="335" y="-80"/>
      <point x="329" y="-39"/>
      <point x="317" y="19" type="curve"/>
      <point x="311" y="19" type="line"/>
      <point x="257" y="-67"/>
      <point x="243" y="-93"/>
      <point x="243" y="-114" type="curve" smooth="yes"/>
      <point x="243" y="-135"/>
      <point x="258" y="-153"/>
    </contour>
    <contour>
      <point x="178" y="86" type="curve" smooth="yes"/>
      <point x="120" y="86"/>
      <point x="89" y="114"/>
      <point x="89" y="153" type="curve" smooth="yes"/>
      <point x="89" y="199"/>
      <point x="134" y="244"/>
      <point x="197" y="244" type="curve" smooth="yes"/>
      <point x="255" y="244"/>
      <point x="286" y="206"/>
      <point x="286" y="167" type="curve" smooth="yes"/>
      <point x="286" y="121"/>
      <point x="242" y="86"/>
    </contour>
    <contour>
      <point x="352" y="497" type="line"/>
      <point x="525" y="621"/>
      <point x="571" y="651"/>
      <point x="664" y="707" type="curve" smooth="yes"/>
      <point x="666" y="708"/>
      <point x="687" y="719"/>
      <point x="687" y="727" type="curve" smooth="yes"/>
      <point x="687" y="731"/>
      <point x="684" y="734"/>
      <point x="672" y="734" type="curve" smooth="yes"/>
      <point x="607" y="734"/>
      <point x="571" y="728"/>
      <point x="558" y="715" type="curve" smooth="yes"/>
      <point x="506" y="660"/>
      <point x="470" y="622"/>
      <point x="338" y="522" type="curve"/>
      <point x="358" y="506" type="line"/>
      <point x="303" y="639"/>
      <point x="291" y="659"/>
      <point x="258" y="659" type="curve" smooth="yes"/>
      <point x="229" y="659"/>
      <point x="209" y="644"/>
      <point x="209" y="615" type="curve" smooth="yes"/>
      <point x="209" y="584"/>
      <point x="231" y="561"/>
      <point x="339" y="497" type="curve"/>
    </contour>
    <contour>
      <point x="833" y="-15" type="curve" smooth="yes"/>
      <point x="956" y="-15"/>
      <point x="1062" y="106"/>
      <point x="1062" y="269" type="curve" smooth="yes"/>
      <point x="1062" y="440"/>
      <point x="946" y="525"/>
      <point x="865" y="525" type="curve" smooth="yes"/>
      <point x="822" y="525"/>
      <point x="813" y="500"/>
      <point x="813" y="483" type="curve" smooth="yes"/>
      <point x="813" y="466"/>
      <point x="827" y="447"/>
      <point x="859" y="447" type="curve" smooth="yes"/>
      <point x="867" y="447"/>
      <point x="881" y="448"/>
      <point x="891" y="448" type="curve" smooth="yes"/>
      <point x="963" y="448"/>
      <point x="1018" y="379"/>
      <point x="1018" y="276" type="curve" smooth="yes"/>
      <point x="1018" y="192"/>
      <point x="956" y="92"/>
      <point x="838" y="92" type="curve" smooth="yes"/>
      <point x="755" y="92"/>
      <point x="698" y="127"/>
      <point x="693" y="253" type="curve"/>
      <point x="639" y="140" type="line"/>
      <point x="679" y="140" type="line"/>
      <point x="690" y="13"/>
      <point x="767" y="-15"/>
    </contour>
  </outline>
</glyph>
<glyph name="tNga" format="2">
  <advance width="799"/>
  <unicode hex="0C19"/>
  <outline>
    <contour>
      <point x="202" y="-15" type="curve" smooth="yes"/>
      <point x="277" y="-15"/>
      <point x="344" y="19"/>
      <point x="383" y="86" type="curve"/>
      <point x="403" y="86" type="line"/>
      <point x="394" y="215" type="line"/>
      <point x="356" y="131"/>
      <point x="294" y="92"/>
      <point x="221" y="92" type="curve" smooth="yes"/>
      <point x="152" y="92"/>
      <point x="109" y="115"/>
      <point x="109" y="158" type="curve" smooth="yes"/>
      <point x="109" y="211"/>
      <point x="166" y="227"/>
      <point x="239" y="247" type="curve" smooth="yes"/>
      <point x="341" y="275"/>
      <point x="420" y="303"/>
      <point x="420" y="398" type="curve" smooth="yes"/>
      <point x="420" y="476"/>
      <point x="358" y="525"/>
      <point x="284" y="525" type="curve" smooth="yes"/>
      <point x="182" y="525"/>
      <point x="113" y="456"/>
      <point x="106" y="353" type="curve"/>
      <point x="140" y="353" type="line"/>
      <point x="149" y="392"/>
      <point x="186" y="452"/>
      <point x="275" y="452" type="curve" smooth="yes"/>
      <point x="334" y="452"/>
      <point x="371" y="425"/>
      <point x="371" y="382" type="curve" smooth="yes"/>
      <point x="371" y="322"/>
      <point x="303" y="307"/>
      <point x="229" y="287" type="curve" smooth="yes"/>
      <point x="142" y="263"/>
      <point x="48" y="235"/>
      <point x="48" y="121" type="curve" smooth="yes"/>
      <point x="48" y="29"/>
      <point x="130" y="-15"/>
    </contour>
    <contour>
      <point x="526" y="-15" type="curve" smooth="yes"/>
      <point x="644" y="-15"/>
      <point x="719" y="61"/>
      <point x="719" y="179" type="curve" smooth="yes"/>
      <point x="719" y="201"/>
      <point x="715" y="224"/>
      <point x="706" y="246" type="curve"/>
      <point x="668" y="231" type="line"/>
      <point x="674" y="217"/>
      <point x="675" y="202"/>
      <point x="675" y="190" type="curve" smooth="yes"/>
      <point x="675" y="132"/>
      <point x="621" y="92"/>
      <point x="546" y="92" type="curve" smooth="yes"/>
      <point x="457" y="92"/>
      <point x="417" y="147"/>
      <point x="408" y="215" type="curve"/>
      <point x="394" y="215" type="line"/>
      <point x="389" y="182"/>
      <point x="382" y="159"/>
      <point x="382" y="129" type="curve" smooth="yes"/>
      <point x="382" y="40"/>
      <point x="443" y="-15"/>
    </contour>
    <contour>
      <point x="680" y="311" type="line"/>
      <point x="686" y="354" type="line"/>
      <point x="378" y="354" type="line"/>
      <point x="360" y="311" type="line"/>
    </contour>
    <contour>
      <point x="542" y="331" type="line"/>
      <point x="595" y="441"/>
      <point x="606" y="464"/>
      <point x="606" y="488" type="curve" smooth="yes"/>
      <point x="606" y="511"/>
      <point x="595" y="525"/>
      <point x="573" y="525" type="curve" smooth="yes"/>
      <point x="547" y="525"/>
      <point x="527" y="507"/>
      <point x="527" y="467" type="curve" smooth="yes"/>
      <point x="527" y="428"/>
      <point x="528" y="380"/>
      <point x="531" y="331" type="curve"/>
    </contour>
  </outline>
</glyph>
<glyph name="tCha" format="2">
  <advance width="857"/>
  <unicode hex="0C1B"/>
  <outline>
    <contour>
      <point x="560" y="-15" type="curve" smooth="yes"/>
      <point x="670" y="-15"/>
      <point x="781" y="75"/>
      <point x="781" y="247" type="curve" smooth="yes"/>
      <point x="781" y="402"/>
      <point x="684" y="517"/>
      <point x="497" y="520" type="curve"/>
      <point x="480" y="485" type="line"/>
      <point x="661" y="477"/>
      <point x="730" y="382"/>
      <point x="730" y="262" type="curve" smooth="yes"/>
      <point x="730" y="158"/>
      <point x="655" y="92"/>
      <point x="583" y="92" type="curve" smooth="yes"/>
      <point x="500" y="92"/>
      <point x="459" y="150"/>
      <point x="444" y="215" type="curve"/>
      <point x="404" y="86" type="line"/>
      <point x="424" y="86" type="line"/>
      <point x="438" y="22"/>
      <point x="489" y="-15"/>
    </contour>
    <contour>
      <point x="379" y="-153" type="curve" smooth="yes"/>
      <point x="409" y="-153"/>
      <point x="431" y="-132"/>
      <point x="431" y="-100" type="curve" smooth="yes"/>
      <point x="431" y="-80"/>
      <point x="425" y="-39"/>
      <point x="413" y="19" type="curve"/>
      <point x="407" y="19" type="line"/>
      <point x="353" y="-67"/>
      <point x="339" y="-93"/>
      <point x="339" y="-114" type="curve" smooth="yes"/>
      <point x="339" y="-135"/>
      <point x="354" y="-153"/>
    </contour>
    <contour>
      <point x="242" y="-15" type="curve" smooth="yes"/>
      <point x="347" y="-15"/>
      <point x="445" y="60"/>
      <point x="444" y="198" type="curve" smooth="yes"/>
      <point x="444" y="201"/>
      <point x="444" y="212"/>
      <point x="444" y="215" type="curve"/>
      <point x="430" y="215" type="line"/>
      <point x="399" y="145"/>
      <point x="336" y="92"/>
      <point x="267" y="92" type="curve" smooth="yes"/>
      <point x="193" y="92"/>
      <point x="162" y="130"/>
      <point x="162" y="181" type="curve" smooth="yes"/>
      <point x="162" y="235"/>
      <point x="216" y="283"/>
      <point x="296" y="298" type="curve"/>
      <point x="266" y="321" type="line"/>
      <point x="141" y="287"/>
      <point x="95" y="208"/>
      <point x="95" y="131" type="curve" smooth="yes"/>
      <point x="95" y="38"/>
      <point x="167" y="-15"/>
    </contour>
    <contour>
      <point x="296" y="298" type="line"/>
      <point x="306" y="325" type="line"/>
      <point x="243" y="346"/>
      <point x="193" y="366"/>
      <point x="134" y="392" type="curve" smooth="yes"/>
      <point x="126" y="396"/>
      <point x="121" y="398"/>
      <point x="116" y="398" type="curve" smooth="yes"/>
      <point x="103" y="398"/>
      <point x="44" y="336"/>
      <point x="44" y="324" type="curve" smooth="yes"/>
      <point x="44" y="320"/>
      <point x="47" y="318"/>
      <point x="59" y="318" type="curve" smooth="yes"/>
      <point x="98" y="318"/>
      <point x="154" y="317"/>
      <point x="230" y="311" type="curve"/>
      <point x="234" y="298" type="line"/>
    </contour>
    <contour>
      <point x="501" y="504" type="line"/>
      <point x="446" y="637"/>
      <point x="436" y="657"/>
      <point x="398" y="657" type="curve" smooth="yes"/>
      <point x="374" y="657"/>
      <point x="352" y="644"/>
      <point x="352" y="609" type="curve" smooth="yes"/>
      <point x="352" y="582"/>
      <point x="381" y="555"/>
      <point x="480" y="485" type="curve"/>
    </contour>
    <contour>
      <point x="498" y="499" type="line"/>
      <point x="653" y="610"/>
      <point x="721" y="655"/>
      <point x="808" y="707" type="curve" smooth="yes"/>
      <point x="810" y="708"/>
      <point x="831" y="719"/>
      <point x="831" y="727" type="curve" smooth="yes"/>
      <point x="831" y="731"/>
      <point x="828" y="734"/>
      <point x="816" y="734" type="curve" smooth="yes"/>
      <point x="749" y="734"/>
      <point x="714" y="727"/>
      <point x="702" y="715" type="curve" smooth="yes"/>
      <point x="647" y="657"/>
      <point x="609" y="617"/>
      <point x="474" y="516" type="curve"/>
    </contour>
  </outline>
</glyph>
<glyph name="tNya" format="2">
  <advance width="994"/>
  <unicode hex="0C1E"/>
  <outline>
    <contour>
      <point x="587" y="-61" type="curve" smooth="yes"/>
      <point x="613" y="-61"/>
      <point x="625" y="-35"/>
      <point x="625" y="-12" type="curve" smooth="yes"/>
      <point x="625" y="108"/>
      <point x="509" y="259"/>
      <point x="310" y="259" type="curve" smooth="yes"/>
      <point x="185" y="259"/>
      <point x="86" y="205"/>
      <point x="86" y="117" type="curve" smooth="yes"/>
      <point x="86" y="44"/>
      <point x="154" y="-15"/>
      <point x="280" y="-15" type="curve" smooth="yes"/>
      <point x="515" y="-15"/>
      <point x="706" y="168"/>
      <point x="706" y="361" type="curve" smooth="yes"/>
      <point x="706" y="459"/>
      <point x="650" y="525"/>
      <point x="566" y="525" type="curve" smooth="yes"/>
      <point x="506" y="525"/>
      <point x="431" y="490"/>
      <point x="386" y="418" type="curve"/>
      <point x="383" y="313" type="line"/>
      <point x="421" y="386"/>
      <point x="489" y="434"/>
      <point x="551" y="434" type="curve" smooth="yes"/>
      <point x="615" y="434"/>
      <point x="657" y="394"/>
      <point x="657" y="335" type="curve" smooth="yes"/>
      <point x="657" y="246"/>
      <point x="549" y="85"/>
      <point x="293" y="85" type="curve" smooth="yes"/>
      <point x="183" y="85"/>
      <point x="137" y="110"/>
      <point x="137" y="148" type="curve" smooth="yes"/>
      <point x="137" y="188"/>
      <point x="206" y="223"/>
      <point x="305" y="223" type="curve" smooth="yes"/>
      <point x="495" y="223"/>
      <point x="565" y="109"/>
      <point x="565" y="-11" type="curve" smooth="yes"/>
      <point x="565" y="-53"/>
      <point x="575" y="-61"/>
    </contour>
    <contour>
      <point x="114" y="316" type="line"/>
      <point x="122" y="382"/>
      <point x="162" y="434"/>
      <point x="244" y="434" type="curve" smooth="yes"/>
      <point x="323" y="434"/>
      <point x="363" y="378"/>
      <point x="372" y="313" type="curve"/>
      <point x="383" y="313" type="line"/>
      <point x="415" y="434" type="line"/>
      <point x="395" y="434" type="line"/>
      <point x="372" y="492"/>
      <point x="327" y="525"/>
      <point x="258" y="525" type="curve" smooth="yes"/>
      <point x="171" y="525"/>
      <point x="78" y="468"/>
      <point x="78" y="324" type="curve" smooth="yes"/>
      <point x="78" y="321"/>
      <point x="78" y="320"/>
      <point x="79" y="309" type="curve"/>
    </contour>
    <contour>
      <point x="975" y="311" type="line"/>
      <point x="982" y="354" type="line"/>
      <point x="674" y="354" type="line"/>
      <point x="674" y="311" type="line"/>
    </contour>
    <contour>
      <point x="838" y="331" type="line"/>
      <point x="891" y="441"/>
      <point x="902" y="464"/>
      <point x="902" y="488" type="curve" smooth="yes"/>
      <point x="902" y="511"/>
      <point x="891" y="525"/>
      <point x="869" y="525" type="curve" smooth="yes"/>
      <point x="843" y="525"/>
      <point x="823" y="507"/>
      <point x="823" y="467" type="curve" smooth="yes"/>
      <point x="823" y="428"/>
      <point x="824" y="380"/>
      <point x="827" y="331" type="curve"/>
    </contour>
  </outline>
</glyph>
<glyph name="tTtha" format="2">
  <advance width="680"/>
  <unicode hex="0C20"/>
  <outline>
    <contour>
      <point x="312" y="-15" type="curve" smooth="yes"/>
      <point x="478" y="-15"/>
      <point x="613" y="118"/>
      <point x="613" y="287" type="curve" smooth="yes"/>
      <point x="613" y="430"/>
      <point x="515" y="525"/>
      <point x="377" y="525" type="curve" smooth="yes"/>
      <point x="214" y="525"/>
      <point x="70" y="400"/>
      <point x="70" y="229" type="curve" smooth="yes"/>
      <point x="70" y="93"/>
      <point x="164" y="-15"/>
    </contour>
    <contour>
      <point x="322" y="92" type="curve" smooth="yes"/>
      <point x="208" y="92"/>
      <point x="130" y="161"/>
      <point x="130" y="261" type="curve" smooth="yes"/>
      <point x="130" y="381"/>
      <point x="240" y="482"/>
      <point x="372" y="482" type="curve" smooth="yes"/>
      <point x="499" y="482"/>
      <point x="563" y="402"/>
      <point x="563" y="303" type="curve" smooth="yes"/>
      <point x="563" y="174"/>
      <point x="447" y="92"/>
    </contour>
    <contour>
      <point x="342" y="228" type="curve" smooth="yes"/>
      <point x="381" y="228"/>
      <point x="410" y="260"/>
      <point x="410" y="296" type="curve" smooth="yes"/>
      <point x="410" y="327"/>
      <point x="389" y="351"/>
      <point x="355" y="351" type="curve" smooth="yes"/>
      <point x="316" y="351"/>
      <point x="287" y="321"/>
      <point x="287" y="284" type="curve" smooth="yes"/>
      <point x="287" y="253"/>
      <point x="308" y="228"/>
    </contour>
    <contour>
      <point x="404" y="506" type="line"/>
      <point x="351" y="639"/>
      <point x="337" y="659"/>
      <point x="304" y="659" type="curve" smooth="yes"/>
      <point x="268" y="659"/>
      <point x="255" y="635"/>
      <point x="255" y="612" type="curve" smooth="yes"/>
      <point x="255" y="586"/>
      <point x="273" y="564"/>
      <point x="381" y="505" type="curve"/>
    </contour>
    <contour>
      <point x="400" y="499" type="line"/>
      <point x="555" y="610"/>
      <point x="623" y="655"/>
      <point x="710" y="707" type="curve" smooth="yes"/>
      <point x="712" y="708"/>
      <point x="733" y="719"/>
      <point x="733" y="727" type="curve" smooth="yes"/>
      <point x="733" y="731"/>
      <point x="730" y="734"/>
      <point x="718" y="734" type="curve" smooth="yes"/>
      <point x="651" y="734"/>
      <point x="616" y="727"/>
      <point x="604" y="715" type="curve" smooth="yes"/>
      <point x="549" y="657"/>
      <point x="511" y="617"/>
      <point x="376" y="516" type="curve"/>
    </contour>
  </outline>
</glyph>
<glyph name="tTa" format="2">
  <advance width="814"/>
  <unicode hex="0C24"/>
  <outline>
    <contour>
      <point x="374" y="-15" type="curve" smooth="yes"/>
      <point x="619" y="-15"/>
      <point x="742" y="123"/>
      <point x="742" y="262" type="curve" smooth="yes"/>
      <point x="742" y="319"/>
      <point x="722" y="381"/>
      <point x="673" y="412" type="curve"/>
      <point x="641" y="424"/>
      <point x="616" y="428"/>
      <point x="591" y="428" type="curve" smooth="yes"/>
      <point x="514" y="428"/>
      <point x="456" y="375"/>
      <point x="456" y="307" type="curve" smooth="yes"/>
      <point x="456" y="245"/>
      <point x="503" y="212"/>
      <point x="560" y="212" type="curve" smooth="yes"/>
      <point x="629" y="212"/>
      <point x="680" y="268"/>
      <point x="680" y="349" type="curve"/>
      <point x="695" y="356" type="line"/>
      <point x="642" y="398" type="line"/>
      <point x="644" y="386"/>
      <point x="644" y="369"/>
      <point x="644" y="359" type="curve" smooth="yes"/>
      <point x="644" y="302"/>
      <point x="611" y="254"/>
      <point x="568" y="254" type="curve" smooth="yes"/>
      <point x="539" y="254"/>
      <point x="516" y="275"/>
      <point x="516" y="313" type="curve" smooth="yes"/>
      <point x="516" y="361"/>
      <point x="552" y="387"/>
      <point x="596" y="387" type="curve" smooth="yes"/>
      <point x="625" y="387"/>
      <point x="653" y="376"/>
      <point x="675" y="361" type="curve"/>
      <point x="688" y="347"/>
      <point x="699" y="316"/>
      <point x="699" y="281" type="curve" smooth="yes"/>
      <point x="699" y="163"/>
      <point x="572" y="87"/>
      <point x="381" y="87" type="curve" smooth="yes"/>
      <point x="205" y="87"/>
      <point x="118" y="147"/>
      <point x="118" y="246" type="curve" smooth="yes"/>
      <point x="118" y="294"/>
      <point x="148" y="359"/>
      <point x="222" y="390" type="curve"/>
      <point x="278" y="389" type="line" smooth="yes"/>
      <point x="318" y="388"/>
      <point x="336" y="363"/>
      <point x="336" y="331" type="curve" smooth="yes"/>
      <point x="336" y="283"/>
      <point x="298" y="252"/>
      <point x="261" y="252" type="curve" smooth="yes"/>
      <point x="229" y="252"/>
      <point x="206" y="276"/>
      <point x="206" y="313" type="curve" smooth="yes"/>
      <point x="206" y="361"/>
      <point x="246" y="389"/>
      <point x="278" y="389" type="curve"/>
      <point x="281" y="405" type="line"/>
      <point x="196" y="392" type="line"/>
      <point x="207" y="379" type="line"/>
      <point x="175" y="352"/>
      <point x="166" y="325"/>
      <point x="166" y="298" type="curve" smooth="yes"/>
      <point x="166" y="247"/>
      <point x="203" y="210"/>
      <point x="266" y="210" type="curve" smooth="yes"/>
      <point x="345" y="210"/>
      <point x="394" y="271"/>
      <point x="394" y="331" type="curve" smooth="yes"/>
      <point x="394" y="390"/>
      <point x="348" y="432"/>
      <point x="272" y="432" type="curve" smooth="yes"/>
      <point x="145" y="432"/>
      <point x="66" y="314"/>
      <point x="66" y="218" type="curve" smooth="yes"/>
      <point x="66" y="85"/>
      <point x="180" y="-15"/>
    </contour>
    <contour>
      <point x="478" y="504" type="line"/>
      <point x="424" y="639"/>
      <point x="412" y="659"/>
      <point x="374" y="659" type="curve" smooth="yes"/>
      <point x="350" y="659"/>
      <point x="328" y="646"/>
      <point x="328" y="611" type="curve" smooth="yes"/>
      <point x="328" y="583"/>
      <point x="357" y="556"/>
      <point x="458" y="497" type="curve"/>
    </contour>
    <contour>
      <point x="684" y="395" type="line"/>
      <point x="671" y="465"/>
      <point x="620" y="525"/>
      <point x="515" y="529" type="curve"/>
      <point x="458" y="497" type="line"/>
      <point x="566" y="497"/>
      <point x="616" y="470"/>
      <point x="638" y="425" type="curve"/>
      <point x="628" y="411" type="line"/>
    </contour>
    <contour>
      <point x="474" y="499" type="line"/>
      <point x="629" y="610"/>
      <point x="697" y="655"/>
      <point x="784" y="707" type="curve" smooth="yes"/>
      <point x="786" y="708"/>
      <point x="807" y="719"/>
      <point x="807" y="727" type="curve" smooth="yes"/>
      <point x="807" y="731"/>
      <point x="804" y="734"/>
      <point x="792" y="734" type="curve" smooth="yes"/>
      <point x="725" y="734"/>
      <point x="690" y="727"/>
      <point x="678" y="715" type="curve" smooth="yes"/>
      <point x="623" y="657"/>
      <point x="585" y="617"/>
      <point x="450" y="516" type="curve"/>
    </contour>
  </outline>
</glyph>
<glyph name="tNa" format="2">
  <advance width="737"/>
  <unicode hex="0C28"/>
  <outline>
    <contour>
      <point x="125" y="-24" type="curve" smooth="yes"/>
      <point x="157" y="-24"/>
      <point x="178" y="-4"/>
      <point x="178" y="23" type="curve" smooth="yes"/>
      <point x="178" y="56"/>
      <point x="150" y="65"/>
      <point x="138" y="70" type="curve" smooth="yes"/>
      <point x="97" y="87"/>
      <point x="84" y="123"/>
      <point x="84" y="148" type="curve" smooth="yes"/>
      <point x="84" y="189"/>
      <point x="118" y="240"/>
      <point x="178" y="240" type="curve" smooth="yes"/>
      <point x="251" y="240"/>
      <point x="267" y="178"/>
      <point x="284" y="132" type="curve" smooth="yes"/>
      <point x="307" y="70"/>
      <point x="348" y="-15"/>
      <point x="453" y="-15" type="curve" smooth="yes"/>
      <point x="575" y="-15"/>
      <point x="664" y="111"/>
      <point x="664" y="259" type="curve" smooth="yes"/>
      <point x="664" y="443"/>
      <point x="523" y="512"/>
      <point x="373" y="521" type="curve"/>
      <point x="375" y="533" type="line"/>
      <point x="334" y="520" type="line"/>
      <point x="317" y="485" type="line"/>
      <point x="520" y="482"/>
      <point x="617" y="401"/>
      <point x="617" y="267" type="curve" smooth="yes"/>
      <point x="617" y="195"/>
      <point x="563" y="92"/>
      <point x="455" y="92" type="curve" smooth="yes"/>
      <point x="390" y="92"/>
      <point x="354" y="115"/>
      <point x="322" y="175" type="curve" smooth="yes"/>
      <point x="297" y="222"/>
      <point x="271" y="280"/>
      <point x="185" y="280" type="curve" smooth="yes"/>
      <point x="95" y="280"/>
      <point x="33" y="200"/>
      <point x="33" y="112" type="curve" smooth="yes"/>
      <point x="33" y="38"/>
      <point x="70" y="-24"/>
    </contour>
    <contour>
      <point x="338" y="504" type="line"/>
      <point x="284" y="640"/>
      <point x="273" y="659"/>
      <point x="235" y="659" type="curve" smooth="yes"/>
      <point x="211" y="659"/>
      <point x="189" y="642"/>
      <point x="189" y="610" type="curve" smooth="yes"/>
      <point x="189" y="582"/>
      <point x="218" y="555"/>
      <point x="317" y="485" type="curve"/>
    </contour>
    <contour>
      <point x="335" y="499" type="line"/>
      <point x="490" y="610"/>
      <point x="558" y="655"/>
      <point x="645" y="707" type="curve" smooth="yes"/>
      <point x="647" y="708"/>
      <point x="668" y="719"/>
      <point x="668" y="727" type="curve" smooth="yes"/>
      <point x="668" y="731"/>
      <point x="665" y="734"/>
      <point x="653" y="734" type="curve" smooth="yes"/>
      <point x="586" y="734"/>
      <point x="551" y="727"/>
      <point x="539" y="715" type="curve" smooth="yes"/>
      <point x="484" y="657"/>
      <point x="446" y="617"/>
      <point x="311" y="516" type="curve"/>
    </contour>
  </outline>
</glyph>
<glyph name="tPha" format="2">
  <advance width="769"/>
  <unicode hex="0C2B"/>
  <outline>
    <contour>
      <point x="164" y="-15" type="curve" smooth="yes"/>
      <point x="237" y="-15"/>
      <point x="299" y="30"/>
      <point x="321" y="115" type="curve"/>
      <point x="299" y="102" type="line"/>
      <point x="323" y="102" type="line"/>
      <point x="340" y="16"/>
      <point x="414" y="-15"/>
      <point x="474" y="-15" type="curve" smooth="yes"/>
      <point x="580" y="-15"/>
      <point x="698" y="85"/>
      <point x="698" y="276" type="curve" smooth="yes"/>
      <point x="698" y="435"/>
      <point x="588" y="525"/>
      <point x="498" y="525" type="curve" smooth="yes"/>
      <point x="458" y="525"/>
      <point x="447" y="500"/>
      <point x="447" y="484" type="curve" smooth="yes"/>
      <point x="447" y="467"/>
      <point x="459" y="447"/>
      <point x="492" y="447" type="curve" smooth="yes"/>
      <point x="500" y="447"/>
      <point x="514" y="448"/>
      <point x="524" y="448" type="curve" smooth="yes"/>
      <point x="595" y="448"/>
      <point x="654" y="385"/>
      <point x="654" y="283" type="curve" smooth="yes"/>
      <point x="654" y="200"/>
      <point x="603" y="92"/>
      <point x="476" y="92" type="curve" smooth="yes"/>
      <point x="364" y="92"/>
      <point x="338" y="151"/>
      <point x="331" y="181" type="curve" smooth="yes"/>
      <point x="325" y="208"/>
      <point x="303" y="283"/>
      <point x="204" y="283" type="curve" smooth="yes"/>
      <point x="115" y="283"/>
      <point x="34" y="216"/>
      <point x="34" y="115" type="curve" smooth="yes"/>
      <point x="34" y="40"/>
      <point x="85" y="-15"/>
    </contour>
    <contour>
      <point x="283" y="-153" type="curve" smooth="yes"/>
      <point x="313" y="-153"/>
      <point x="335" y="-132"/>
      <point x="335" y="-100" type="curve" smooth="yes"/>
      <point x="335" y="-80"/>
      <point x="329" y="-39"/>
      <point x="317" y="19" type="curve"/>
      <point x="311" y="19" type="line"/>
      <point x="257" y="-67"/>
      <point x="243" y="-93"/>
      <point x="243" y="-114" type="curve" smooth="yes"/>
      <point x="243" y="-135"/>
      <point x="258" y="-153"/>
    </contour>
    <contour>
      <point x="178" y="86" type="curve" smooth="yes"/>
      <point x="120" y="86"/>
      <point x="89" y="114"/>
      <point x="89" y="153" type="curve" smooth="yes"/>
      <point x="89" y="199"/>
      <point x="134" y="244"/>
      <point x="197" y="244" type="curve" smooth="yes"/>
      <point x="255" y="244"/>
      <point x="286" y="206"/>
      <point x="286" y="167" type="curve" smooth="yes"/>
      <point x="286" y="121"/>
      <point x="242" y="86"/>
    </contour>
    <contour>
      <point x="292" y="497" type="line"/>
      <point x="465" y="621"/>
      <point x="511" y="651"/>
      <point x="604" y="707" type="curve" smooth="yes"/>
      <point x="606" y="708"/>
      <point x="627" y="719"/>
      <point x="627" y="727" type="curve" smooth="yes"/>
      <point x="627" y="731"/>
      <point x="624" y="734"/>
      <point x="612" y="734" type="curve" smooth="yes"/>
      <point x="547" y="734"/>
      <point x="511" y="728"/>
      <point x="498" y="715" type="curve" smooth="yes"/>
      <point x="446" y="660"/>
      <point x="410" y="622"/>
      <point x="278" y="522" type="curve"/>
      <point x="298" y="506" type="line"/>
      <point x="243" y="639"/>
      <point x="231" y="659"/>
      <point x="198" y="659" type="curve" smooth="yes"/>
      <point x="169" y="659"/>
      <point x="149" y="644"/>
      <point x="149" y="615" type="curve" smooth="yes"/>
      <point x="149" y="584"/>
      <point x="171" y="561"/>
      <point x="279" y="497" type="curve"/>
    </contour>
  </outline>
</glyph>
<glyph name="tBa" format="2">
  <advance width="829"/>
  <unicode hex="0C2C"/>
  <outline>
    <contour>
      <point x="529" y="-15" type="curve" smooth="yes"/>
      <point x="640" y="-15"/>
      <point x="758" y="85"/>
      <point x="758" y="274" type="curve" smooth="yes"/>
      <point x="758" y="435"/>
      <point x="648" y="525"/>
      <point x="558" y="525" type="curve" smooth="yes"/>
      <point x="518" y="525"/>
      <point x="507" y="500"/>
      <point x="507" y="484" type="curve" smooth="yes"/>
      <point x="507" y="467"/>
      <point x="519" y="447"/>
      <point x="552" y="447" type="curve" smooth="yes"/>
      <point x="560" y="447"/>
      <point x="574" y="448"/>
      <point x="584" y="448" type="curve" smooth="yes"/>
      <point x="655" y="448"/>
      <point x="714" y="385"/>
      <point x="714" y="281" type="curve" smooth="yes"/>
      <point x="714" y="200"/>
      <point x="660" y="92"/>
      <point x="542" y="92" type="curve" smooth="yes"/>
      <point x="457" y="92"/>
      <point x="417" y="147"/>
      <point x="408" y="215" type="curve"/>
      <point x="394" y="215" type="line"/>
      <point x="389" y="182"/>
      <point x="382" y="159"/>
      <point x="382" y="129" type="curve" smooth="yes"/>
      <point x="382" y="40"/>
      <point x="443" y="-15"/>
    </contour>
    <contour>
      <point x="202" y="-15" type="curve" smooth="yes"/>
      <point x="277" y="-15"/>
      <point x="344" y="19"/>
      <point x="383" y="86" type="curve"/>
      <point x="403" y="86" type="line"/>
      <point x="394" y="215" type="line"/>
      <point x="356" y="131"/>
      <point x="294" y="92"/>
      <point x="221" y="92" type="curve" smooth="yes"/>
      <point x="152" y="92"/>
      <point x="109" y="112"/>
      <point x="109" y="155" type="curve" smooth="yes"/>
      <point x="109" y="208"/>
      <point x="166" y="227"/>
      <point x="239" y="247" type="curve" smooth="yes"/>
      <point x="338" y="274"/>
      <point x="420" y="305"/>
      <point x="420" y="400" type="curve" smooth="yes"/>
      <point x="420" y="481"/>
      <point x="359" y="525"/>
      <point x="284" y="525" type="curve" smooth="yes"/>
      <point x="182" y="525"/>
      <point x="113" y="456"/>
      <point x="106" y="353" type="curve"/>
      <point x="140" y="353" type="line"/>
      <point x="149" y="392"/>
      <point x="186" y="452"/>
      <point x="275" y="452" type="curve" smooth="yes"/>
      <point x="334" y="452"/>
      <point x="371" y="425"/>
      <point x="371" y="382" type="curve" smooth="yes"/>
      <point x="371" y="322"/>
      <point x="303" y="307"/>
      <point x="229" y="287" type="curve" smooth="yes"/>
      <point x="142" y="263"/>
      <point x="48" y="232"/>
      <point x="48" y="118" type="curve" smooth="yes"/>
      <point x="48" y="26"/>
      <point x="130" y="-15"/>
    </contour>
  </outline>
</glyph>
<glyph name="tMa" format="2">
  <advance width="1133"/>
  <unicode hex="0C2E"/>
  <outline>
    <contour>
      <point x="164" y="-15" type="curve" smooth="yes"/>
      <point x="237" y="-15"/>
      <point x="299" y="30"/>
      <point x="321" y="115" type="curve"/>
      <point x="299" y="102" type="line"/>
      <point x="323" y="102" type="line"/>
      <point x="340" y="16"/>
      <point x="414" y="-15"/>
      <point x="474" y="-15" type="curve" smooth="yes"/>
      <point x="580" y="-15"/>
      <point x="696" y="95"/>
      <point x="696" y="264" type="curve" smooth="yes"/>
      <point x="696" y="444"/>
      <point x="567" y="511"/>
      <point x="404" y="520" type="curve"/>
      <point x="404" y="528" type="line"/>
      <point x="367" y="520" type="line"/>
      <point x="350" y="485" type="line"/>
      <point x="537" y="483"/>
      <point x="649" y="410"/>
      <point x="649" y="278" type="curve" smooth="yes"/>
      <point x="649" y="185"/>
      <point x="594" y="92"/>
      <point x="476" y="92" type="curve" smooth="yes"/>
      <point x="364" y="92"/>
      <point x="338" y="151"/>
      <point x="331" y="181" type="curve" smooth="yes"/>
      <point x="325" y="208"/>
      <point x="303" y="283"/>
      <point x="204" y="283" type="curve" smooth="yes"/>
      <point x="115" y="283"/>
      <point x="34" y="216"/>
      <point x="34" y="115" type="curve" smooth="yes"/>
      <point x="34" y="40"/>
      <point x="85" y="-15"/>
    </contour>
    <contour>
      <point x="178" y="86" type="curve" smooth="yes"/>
      <point x="120" y="86"/>
      <point x="89" y="114"/>
      <point x="89" y="153" type="curve" smooth="yes"/>
      <point x="89" y="199"/>
      <point x="134" y="244"/>
      <point x="197" y="244" type="curve" smooth="yes"/>
      <point x="255" y="244"/>
      <point x="286" y="206"/>
      <point x="286" y="167" type="curve" smooth="yes"/>
      <point x="286" y="121"/>
      <point x="242" y="86"/>
    </contour>
    <contour>
      <point x="371" y="504" type="line"/>
      <point x="318" y="643"/>
      <point x="299" y="659"/>
      <point x="271" y="659" type="curve" smooth="yes"/>
      <point x="242" y="659"/>
      <point x="221" y="642"/>
      <point x="221" y="615" type="curve" smooth="yes"/>
      <point x="221" y="581"/>
      <point x="251" y="555"/>
      <point x="350" y="485" type="curve"/>
    </contour>
    <contour>
      <point x="833" y="-15" type="curve" smooth="yes"/>
      <point x="956" y="-15"/>
      <point x="1062" y="106"/>
      <point x="1062" y="269" type="curve" smooth="yes"/>
      <point x="1062" y="440"/>
      <point x="946" y="525"/>
      <point x="865" y="525" type="curve" smooth="yes"/>
      <point x="822" y="525"/>
      <point x="813" y="500"/>
      <point x="813" y="483" type="curve" smooth="yes"/>
      <point x="813" y="466"/>
      <point x="827" y="447"/>
      <point x="859" y="447" type="curve" smooth="yes"/>
      <point x="867" y="447"/>
      <point x="881" y="448"/>
      <point x="891" y="448" type="curve" smooth="yes"/>
      <point x="963" y="448"/>
      <point x="1018" y="379"/>
      <point x="1018" y="276" type="curve" smooth="yes"/>
      <point x="1018" y="192"/>
      <point x="956" y="92"/>
      <point x="838" y="92" type="curve" smooth="yes"/>
      <point x="755" y="92"/>
      <point x="697" y="127"/>
      <point x="692" y="253" type="curve"/>
      <point x="639" y="140" type="line"/>
      <point x="679" y="140" type="line"/>
      <point x="690" y="13"/>
      <point x="767" y="-15"/>
    </contour>
    <contour>
      <point x="366" y="496" type="line"/>
      <point x="521" y="607"/>
      <point x="590" y="655"/>
      <point x="677" y="707" type="curve" smooth="yes"/>
      <point x="679" y="708"/>
      <point x="700" y="719"/>
      <point x="700" y="727" type="curve" smooth="yes"/>
      <point x="700" y="731"/>
      <point x="697" y="734"/>
      <point x="685" y="734" type="curve" smooth="yes"/>
      <point x="618" y="734"/>
      <point x="583" y="727"/>
      <point x="571" y="715" type="curve" smooth="yes"/>
      <point x="516" y="656"/>
      <point x="477" y="614"/>
      <point x="342" y="513" type="curve"/>
    </contour>
  </outline>
</glyph>
<glyph name="tYa" format="2">
  <advance width="1425"/>
  <unicode hex="0C2F"/>
  <outline>
    <contour>
      <point x="312" y="-15" type="curve" smooth="yes"/>
      <point x="435" y="-15"/>
      <point x="538" y="59"/>
      <point x="584" y="166" type="curve"/>
      <point x="561" y="155" type="line"/>
      <point x="584" y="155" type="line"/>
      <point x="608" y="27"/>
      <point x="675" y="-15"/>
      <point x="755" y="-15" type="curve" smooth="yes"/>
      <point x="851" y="-15"/>
      <point x="924" y="47"/>
      <point x="962" y="153" type="curve"/>
      <point x="939" y="140" type="line"/>
      <point x="962" y="140" type="line"/>
      <point x="977" y="13"/>
      <point x="1066" y="-15"/>
      <point x="1129" y="-15" type="curve" smooth="yes"/>
      <point x="1250" y="-15"/>
      <point x="1354" y="98"/>
      <point x="1354" y="264" type="curve" smooth="yes"/>
      <point x="1354" y="444"/>
      <point x="1232" y="525"/>
      <point x="1161" y="525" type="curve" smooth="yes"/>
      <point x="1118" y="525"/>
      <point x="1105" y="501"/>
      <point x="1105" y="484" type="curve" smooth="yes"/>
      <point x="1105" y="467"/>
      <point x="1117" y="447"/>
      <point x="1144" y="447" type="curve" smooth="yes"/>
      <point x="1152" y="447"/>
      <point x="1166" y="448"/>
      <point x="1176" y="448" type="curve" smooth="yes"/>
      <point x="1254" y="448"/>
      <point x="1310" y="382"/>
      <point x="1310" y="271" type="curve" smooth="yes"/>
      <point x="1310" y="184"/>
      <point x="1249" y="92"/>
      <point x="1134" y="92" type="curve" smooth="yes"/>
      <point x="1044" y="92"/>
      <point x="988" y="132"/>
      <point x="988" y="209" type="curve" smooth="yes"/>
      <point x="988" y="244"/>
      <point x="991" y="263"/>
      <point x="991" y="286" type="curve" smooth="yes"/>
      <point x="991" y="436"/>
      <point x="891" y="512"/>
      <point x="777" y="522" type="curve"/>
      <point x="787" y="504" type="line"/>
      <point x="792" y="524" type="line"/>
      <point x="931" y="623"/>
      <point x="982" y="655"/>
      <point x="1063" y="707" type="curve" smooth="yes"/>
      <point x="1065" y="708"/>
      <point x="1086" y="720"/>
      <point x="1086" y="728" type="curve" smooth="yes"/>
      <point x="1086" y="732"/>
      <point x="1083" y="734"/>
      <point x="1071" y="734" type="curve" smooth="yes"/>
      <point x="995" y="734"/>
      <point x="976" y="734"/>
      <point x="959" y="715" type="curve" smooth="yes"/>
      <point x="909" y="660"/>
      <point x="836" y="596"/>
      <point x="737" y="521" type="curve"/>
      <point x="759" y="505" type="line"/>
      <point x="707" y="640"/>
      <point x="693" y="659"/>
      <point x="655" y="659" type="curve" smooth="yes"/>
      <point x="631" y="659"/>
      <point x="609" y="639"/>
      <point x="609" y="610" type="curve" smooth="yes"/>
      <point x="609" y="584"/>
      <point x="641" y="548"/>
      <point x="739" y="485" type="curve"/>
      <point x="889" y="476"/>
      <point x="947" y="390"/>
      <point x="947" y="285" type="curve" smooth="yes"/>
      <point x="947" y="190"/>
      <point x="880" y="92"/>
      <point x="758" y="92" type="curve" smooth="yes"/>
      <point x="678" y="92"/>
      <point x="609" y="144"/>
      <point x="609" y="233" type="curve" smooth="yes"/>
      <point x="609" y="256"/>
      <point x="613" y="280"/>
      <point x="613" y="298" type="curve" smooth="yes"/>
      <point x="613" y="430"/>
      <point x="515" y="525"/>
      <point x="377" y="525" type="curve" smooth="yes"/>
      <point x="214" y="525"/>
      <point x="70" y="400"/>
      <point x="70" y="229" type="curve" smooth="yes"/>
      <point x="70" y="93"/>
      <point x="164" y="-15"/>
    </contour>
    <contour>
      <point x="322" y="92" type="curve" smooth="yes"/>
      <point x="208" y="92"/>
      <point x="130" y="161"/>
      <point x="130" y="261" type="curve" smooth="yes"/>
      <point x="130" y="381"/>
      <point x="240" y="482"/>
      <point x="372" y="482" type="curve" smooth="yes"/>
      <point x="499" y="482"/>
      <point x="563" y="402"/>
      <point x="563" y="303" type="curve" smooth="yes"/>
      <point x="563" y="174"/>
      <point x="447" y="92"/>
    </contour>
  </outline>
</glyph>
<glyph name="tRa" format="2">
  <advance width="680"/>
  <unicode hex="0C30"/>
  <outline>
    <contour>
      <point x="312" y="-15" type="curve" smooth="yes"/>
      <point x="478" y="-15"/>
      <point x="613" y="118"/>
      <point x="613" y="287" type="curve" smooth="yes"/>
      <point x="613" y="430"/>
      <point x="515" y="525"/>
      <point x="377" y="525" type="curve" smooth="yes"/>
      <point x="214" y="525"/>
      <point x="70" y="400"/>
      <point x="70" y="229" type="curve" smooth="yes"/>
      <point x="70" y="93"/>
      <point x="164" y="-15"/>
    </contour>
    <contour>
      <point x="322" y="92" type="curve" smooth="yes"/>
      <point x="208" y="92"/>
      <point x="130" y="161"/>
      <point x="130" y="261" type="curve" smooth="yes"/>
      <point x="130" y="381"/>
      <point x="240" y="482"/>
      <point x="372" y="482" type="curve" smooth="yes"/>
      <point x="499" y="482"/>
      <point x="563" y="402"/>
      <point x="563" y="303" type="curve" smooth="yes"/>
      <point x="563" y="174"/>
      <point x="447" y="92"/>
    </contour>
    <contour>
      <point x="404" y="506" type="line"/>
      <point x="351" y="639"/>
      <point x="337" y="659"/>
      <point x="304" y="659" type="curve" smooth="yes"/>
      <point x="268" y="659"/>
      <point x="255" y="635"/>
      <point x="255" y="612" type="curve" smooth="yes"/>
      <point x="255" y="586"/>
      <point x="273" y="564"/>
      <point x="381" y="505" type="curve"/>
    </contour>
    <contour>
      <point x="400" y="499" type="line"/>
      <point x="555" y="610"/>
      <point x="623" y="655"/>
      <point x="710" y="707" type="curve" smooth="yes"/>
      <point x="712" y="708"/>
      <point x="733" y="719"/>
      <point x="733" y="727" type="curve" smooth="yes"/>
      <point x="733" y="731"/>
      <point x="730" y="734"/>
      <point x="718" y="734" type="curve" smooth="yes"/>
      <point x="651" y="734"/>
      <point x="616" y="727"/>
      <point x="604" y="715" type="curve" smooth="yes"/>
      <point x="549" y="657"/>
      <point x="511" y="617"/>
      <point x="376" y="516" type="curve"/>
    </contour>
  </outline>
</glyph>
<glyph name="tLa" format="2">
  <advance width="831"/>
  <unicode hex="0C32"/>
  <outline>
    <contour>
      <point x="382" y="-15" type="curve" smooth="yes"/>
      <point x="617" y="-15"/>
      <point x="770" y="139"/>
      <point x="770" y="307" type="curve" smooth="yes"/>
      <point x="770" y="456"/>
      <point x="662" y="525"/>
      <point x="592" y="525" type="curve" smooth="yes"/>
      <point x="549" y="525"/>
      <point x="538" y="500"/>
      <point x="538" y="483" type="curve" smooth="yes"/>
      <point x="538" y="466"/>
      <point x="553" y="447"/>
      <point x="586" y="447" type="curve" smooth="yes"/>
      <point x="594" y="447"/>
      <point x="608" y="448"/>
      <point x="619" y="448" type="curve" smooth="yes"/>
      <point x="673" y="448"/>
      <point x="726" y="406"/>
      <point x="726" y="319" type="curve" smooth="yes"/>
      <point x="726" y="191"/>
      <point x="574" y="92"/>
      <point x="401" y="92" type="curve" smooth="yes"/>
      <point x="225" y="92"/>
      <point x="128" y="171"/>
      <point x="128" y="282" type="curve" smooth="yes"/>
      <point x="128" y="361"/>
      <point x="176" y="438"/>
      <point x="278" y="482" type="curve"/>
      <point x="323" y="482" type="line"/>
      <point x="365" y="482"/>
      <point x="387" y="452"/>
      <point x="387" y="420" type="curve" smooth="yes"/>
      <point x="387" y="378"/>
      <point x="352" y="341"/>
      <point x="307" y="341" type="curve" smooth="yes"/>
      <point x="270" y="341"/>
      <point x="243" y="366"/>
      <point x="243" y="405" type="curve" smooth="yes"/>
      <point x="243" y="448"/>
      <point x="281" y="482"/>
      <point x="323" y="482" type="curve"/>
      <point x="338" y="509" type="line"/>
      <point x="191" y="459" type="line"/>
      <point x="215" y="440" type="line"/>
      <point x="204" y="426"/>
      <point x="199" y="409"/>
      <point x="199" y="393" type="curve" smooth="yes"/>
      <point x="199" y="344"/>
      <point x="240" y="296"/>
      <point x="311" y="296" type="curve" smooth="yes"/>
      <point x="390" y="296"/>
      <point x="449" y="353"/>
      <point x="449" y="421" type="curve" smooth="yes"/>
      <point x="449" y="479"/>
      <point x="407" y="525"/>
      <point x="330" y="525" type="curve" smooth="yes"/>
      <point x="221" y="525"/>
      <point x="75" y="422"/>
      <point x="75" y="256" type="curve" smooth="yes"/>
      <point x="75" y="102"/>
      <point x="205" y="-15"/>
    </contour>
  </outline>
</glyph>
<glyph name="tLla" format="2">
  <advance width="750"/>
  <unicode hex="0C33"/>
  <outline>
    <contour>
      <point x="335" y="-15" type="curve" smooth="yes"/>
      <point x="417" y="-15"/>
      <point x="474" y="46"/>
      <point x="474" y="108" type="curve" smooth="yes"/>
      <point x="474" y="158"/>
      <point x="451" y="185"/>
      <point x="416" y="205" type="curve"/>
      <point x="392" y="224"/>
      <point x="343" y="236"/>
      <point x="297" y="245" type="curve" smooth="yes"/>
      <point x="230" y="259"/>
      <point x="142" y="285"/>
      <point x="142" y="362" type="curve" smooth="yes"/>
      <point x="142" y="419"/>
      <point x="190" y="468"/>
      <point x="276" y="487" type="curve"/>
      <point x="336" y="479" type="line"/>
      <point x="370" y="479"/>
      <point x="390" y="456"/>
      <point x="390" y="423" type="curve" smooth="yes"/>
      <point x="390" y="383"/>
      <point x="360" y="351"/>
      <point x="322" y="351" type="curve" smooth="yes"/>
      <point x="289" y="351"/>
      <point x="265" y="374"/>
      <point x="265" y="408" type="curve" smooth="yes"/>
      <point x="265" y="445"/>
      <point x="296" y="479"/>
      <point x="336" y="479" type="curve"/>
      <point x="343" y="496" type="line"/>
      <point x="263" y="496" type="line"/>
      <point x="273" y="484" type="line"/>
      <point x="237" y="458"/>
      <point x="224" y="429"/>
      <point x="224" y="400" type="curve" smooth="yes"/>
      <point x="224" y="348"/>
      <point x="264" y="311"/>
      <point x="323" y="311" type="curve" smooth="yes"/>
      <point x="398" y="311"/>
      <point x="445" y="363"/>
      <point x="445" y="423" type="curve" smooth="yes"/>
      <point x="445" y="486"/>
      <point x="387" y="525"/>
      <point x="311" y="525" type="curve" smooth="yes"/>
      <point x="187" y="525"/>
      <point x="80" y="444"/>
      <point x="80" y="330" type="curve" smooth="yes"/>
      <point x="80" y="212"/>
      <point x="191" y="181"/>
      <point x="310" y="161" type="curve"/>
      <point x="372" y="144"/>
      <point x="403" y="125"/>
      <point x="403" y="82" type="curve" smooth="yes"/>
      <point x="403" y="51"/>
      <point x="372" y="23"/>
      <point x="336" y="23" type="curve" smooth="yes"/>
      <point x="300" y="23"/>
      <point x="276" y="47"/>
      <point x="276" y="81" type="curve" smooth="yes"/>
      <point x="276" y="119"/>
      <point x="306" y="142"/>
      <point x="349" y="163" type="curve"/>
      <point x="287" y="177" type="line"/>
      <point x="284" y="161" type="line"/>
      <point x="248" y="138"/>
      <point x="234" y="108"/>
      <point x="234" y="77" type="curve" smooth="yes"/>
      <point x="234" y="22"/>
      <point x="275" y="-15"/>
    </contour>
    <contour>
      <point x="444" y="189" type="line"/>
      <point x="453" y="191"/>
      <point x="475" y="197"/>
      <point x="509" y="205" type="curve" smooth="yes"/>
      <point x="564" y="218"/>
      <point x="715" y="251"/>
      <point x="715" y="381" type="curve" smooth="yes"/>
      <point x="715" y="454"/>
      <point x="675" y="508"/>
      <point x="591" y="528" type="curve"/>
      <point x="546" y="530" type="line"/>
      <point x="536" y="497" type="line"/>
      <point x="616" y="492"/>
      <point x="670" y="457"/>
      <point x="670" y="379" type="curve" smooth="yes"/>
      <point x="670" y="254"/>
      <point x="505" y="247"/>
      <point x="380" y="211" type="curve"/>
      <point x="440" y="171" type="line"/>
    </contour>
    <contour>
      <point x="558" y="501" type="line"/>
      <point x="504" y="643"/>
      <point x="485" y="659"/>
      <point x="457" y="659" type="curve" smooth="yes"/>
      <point x="427" y="659"/>
      <point x="407" y="641"/>
      <point x="407" y="615" type="curve" smooth="yes"/>
      <point x="407" y="585"/>
      <point x="435" y="559"/>
      <point x="536" y="497" type="curve"/>
    </contour>
    <contour>
      <point x="589" y="527" type="line"/>
      <point x="725" y="628"/>
      <point x="883" y="712"/>
      <point x="883" y="729" type="curve" smooth="yes"/>
      <point x="883" y="732"/>
      <point x="879" y="734"/>
      <point x="866" y="734" type="curve" smooth="yes"/>
      <point x="849" y="734"/>
      <point x="798" y="731"/>
      <point x="788" y="730" type="curve" smooth="yes"/>
      <point x="772" y="728"/>
      <point x="769" y="725"/>
      <point x="760" y="715" type="curve" smooth="yes"/>
      <point x="702" y="650"/>
      <point x="650" y="608"/>
      <point x="524" y="513" type="curve"/>
      <point x="584" y="500" type="line"/>
    </contour>
  </outline>
</glyph>
<glyph name="tSha" format="2">
  <advance width="557"/>
  <unicode hex="0C36"/>
  <outline>
    <contour>
      <point x="301" y="-15" type="curve" smooth="yes"/>
      <point x="390" y="-15"/>
      <point x="462" y="68"/>
      <point x="462" y="166" type="curve" smooth="yes"/>
      <point x="462" y="217"/>
      <point x="444" y="273"/>
      <point x="414" y="319" type="curve" smooth="yes"/>
      <point x="373" y="382"/>
      <point x="307" y="426"/>
      <point x="228" y="426" type="curve" smooth="yes"/>
      <point x="127" y="426"/>
      <point x="69" y="355"/>
      <point x="69" y="297" type="curve" smooth="yes"/>
      <point x="69" y="260"/>
      <point x="87" y="242"/>
      <point x="110" y="242" type="curve" smooth="yes"/>
      <point x="128" y="242"/>
      <point x="143" y="254"/>
      <point x="147" y="273" type="curve" smooth="yes"/>
      <point x="149" y="282"/>
      <point x="147" y="296"/>
      <point x="149" y="312" type="curve" smooth="yes"/>
      <point x="154" y="347"/>
      <point x="178" y="377"/>
      <point x="239" y="377" type="curve" smooth="yes"/>
      <point x="305" y="377"/>
      <point x="350" y="342"/>
      <point x="374" y="303" type="curve" smooth="yes"/>
      <point x="397" y="265"/>
      <point x="404" y="222"/>
      <point x="404" y="194" type="curve" smooth="yes"/>
      <point x="404" y="123"/>
      <point x="353" y="81"/>
      <point x="304" y="81" type="curve" smooth="yes"/>
      <point x="262" y="81"/>
      <point x="242" y="106"/>
      <point x="242" y="136" type="curve" smooth="yes"/>
      <point x="242" y="192"/>
      <point x="316" y="237"/>
      <point x="392" y="284" type="curve"/>
      <point x="420" y="303" type="line"/>
      <point x="478" y="342"/>
      <point x="530" y="373"/>
      <point x="530" y="431" type="curve" smooth="yes"/>
      <point x="530" y="490"/>
      <point x="486" y="522"/>
      <point x="404" y="529" type="curve"/>
      <point x="357" y="530" type="line"/>
      <point x="347" y="497" type="line"/>
      <point x="448" y="497"/>
      <point x="485" y="473"/>
      <point x="485" y="427" type="curve" smooth="yes"/>
      <point x="485" y="396"/>
      <point x="467" y="374"/>
      <point x="375" y="319" type="curve" smooth="yes"/>
      <point x="292" y="270"/>
      <point x="182" y="214"/>
      <point x="182" y="105" type="curve" smooth="yes"/>
      <point x="182" y="32"/>
      <point x="231" y="-15"/>
    </contour>
    <contour>
      <point x="369" y="501" type="line"/>
      <point x="311" y="649"/>
      <point x="292" y="659"/>
      <point x="264" y="659" type="curve" smooth="yes"/>
      <point x="230" y="659"/>
      <point x="218" y="634"/>
      <point x="218" y="614" type="curve" smooth="yes"/>
      <point x="218" y="585"/>
      <point x="246" y="559"/>
      <point x="347" y="497" type="curve"/>
    </contour>
    <contour>
      <point x="401" y="526" type="line"/>
      <point x="537" y="627"/>
      <point x="695" y="712"/>
      <point x="695" y="729" type="curve" smooth="yes"/>
      <point x="695" y="732"/>
      <point x="691" y="734"/>
      <point x="678" y="734" type="curve" smooth="yes"/>
      <point x="662" y="734"/>
      <point x="604" y="731"/>
      <point x="594" y="730" type="curve" smooth="yes"/>
      <point x="578" y="728"/>
      <point x="575" y="725"/>
      <point x="566" y="715" type="curve" smooth="yes"/>
      <point x="508" y="650"/>
      <point x="461" y="608"/>
      <point x="335" y="513" type="curve"/>
      <point x="395" y="500" type="line"/>
    </contour>
  </outline>
</glyph>
<glyph name="tSsa" format="2">
  <advance width="830"/>
  <unicode hex="0C37"/>
  <outline>
    <contour>
      <point x="164" y="-15" type="curve" smooth="yes"/>
      <point x="237" y="-15"/>
      <point x="299" y="30"/>
      <point x="321" y="115" type="curve"/>
      <point x="299" y="102" type="line"/>
      <point x="323" y="102" type="line"/>
      <point x="340" y="16"/>
      <point x="405" y="-15"/>
      <point x="470" y="-15" type="curve" smooth="yes"/>
      <point x="550" y="-15"/>
      <point x="606" y="31"/>
      <point x="650" y="104" type="curve"/>
      <point x="625" y="93" type="line"/>
      <point x="648" y="93" type="line"/>
      <point x="650" y="33"/>
      <point x="679" y="-15"/>
      <point x="730" y="-15" type="curve" smooth="yes"/>
      <point x="764" y="-15"/>
      <point x="788" y="6"/>
      <point x="788" y="39" type="curve" smooth="yes"/>
      <point x="788" y="66"/>
      <point x="771" y="77"/>
      <point x="738" y="84" type="curve" smooth="yes"/>
      <point x="708" y="90"/>
      <point x="674" y="99"/>
      <point x="674" y="138" type="curve" smooth="yes"/>
      <point x="674" y="171"/>
      <point x="698" y="203"/>
      <point x="698" y="276" type="curve" smooth="yes"/>
      <point x="698" y="435"/>
      <point x="588" y="525"/>
      <point x="498" y="525" type="curve" smooth="yes"/>
      <point x="458" y="525"/>
      <point x="447" y="500"/>
      <point x="447" y="484" type="curve" smooth="yes"/>
      <point x="447" y="467"/>
      <point x="459" y="447"/>
      <point x="492" y="447" type="curve" smooth="yes"/>
      <point x="500" y="447"/>
      <point x="514" y="448"/>
      <point x="524" y="448" type="curve" smooth="yes"/>
      <point x="595" y="448"/>
      <point x="654" y="385"/>
      <point x="654" y="283" type="curve" smooth="yes"/>
      <point x="654" y="200"/>
      <point x="604" y="92"/>
      <point x="468" y="92" type="curve" smooth="yes"/>
      <point x="368" y="92"/>
      <point x="338" y="151"/>
      <point x="331" y="181" type="curve" smooth="yes"/>
      <point x="325" y="208"/>
      <point x="303" y="283"/>
      <point x="204" y="283" type="curve" smooth="yes"/>
      <point x="115" y="283"/>
      <point x="34" y="216"/>
      <point x="34" y="115" type="curve" smooth="yes"/>
      <point x="34" y="40"/>
      <point x="85" y="-15"/>
    </contour>
    <contour>
      <point x="178" y="86" type="curve" smooth="yes"/>
      <point x="120" y="86"/>
      <point x="89" y="114"/>
      <point x="89" y="153" type="curve" smooth="yes"/>
      <point x="89" y="199"/>
      <point x="134" y="244"/>
      <point x="197" y="244" type="curve" smooth="yes"/>
      <point x="255" y="244"/>
      <point x="286" y="206"/>
      <point x="286" y="167" type="curve" smooth="yes"/>
      <point x="286" y="121"/>
      <point x="242" y="86"/>
    </contour>
    <contour>
      <point x="292" y="497" type="line"/>
      <point x="465" y="621"/>
      <point x="511" y="651"/>
      <point x="604" y="707" type="curve" smooth="yes"/>
      <point x="606" y="708"/>
      <point x="627" y="719"/>
      <point x="627" y="727" type="curve" smooth="yes"/>
      <point x="627" y="731"/>
      <point x="624" y="734"/>
      <point x="612" y="734" type="curve" smooth="yes"/>
      <point x="547" y="734"/>
      <point x="511" y="728"/>
      <point x="498" y="715" type="curve" smooth="yes"/>
      <point x="446" y="660"/>
      <point x="410" y="622"/>
      <point x="278" y="522" type="curve"/>
      <point x="298" y="506" type="line"/>
      <point x="243" y="639"/>
      <point x="231" y="659"/>
      <point x="198" y="659" type="curve" smooth="yes"/>
      <point x="169" y="659"/>
      <point x="149" y="644"/>
      <point x="149" y="615" type="curve" smooth="yes"/>
      <point x="149" y="584"/>
      <point x="171" y="561"/>
      <point x="279" y="497" type="curve"/>
    </contour>
  </outline>
</glyph>
<glyph name="tSa" format="2">
  <advance width="734"/>
  <unicode hex="0C38"/>
  <outline>
    <contour>
      <point x="125" y="-24" type="curve" smooth="yes"/>
      <point x="157" y="-24"/>
      <point x="178" y="-4"/>
      <point x="178" y="23" type="curve" smooth="yes"/>
      <point x="178" y="56"/>
      <point x="150" y="65"/>
      <point x="138" y="70" type="curve" smooth="yes"/>
      <point x="97" y="87"/>
      <point x="84" y="123"/>
      <point x="84" y="148" type="curve" smooth="yes"/>
      <point x="84" y="189"/>
      <point x="118" y="240"/>
      <point x="178" y="240" type="curve" smooth="yes"/>
      <point x="251" y="240"/>
      <point x="267" y="178"/>
      <point x="284" y="132" type="curve" smooth="yes"/>
      <point x="307" y="70"/>
      <point x="348" y="-15"/>
      <point x="453" y="-15" type="curve" smooth="yes"/>
      <point x="575" y="-15"/>
      <point x="663" y="111"/>
      <point x="663" y="269" type="curve" smooth="yes"/>
      <point x="663" y="452"/>
      <point x="543" y="525"/>
      <point x="464" y="525" type="curve" smooth="yes"/>
      <point x="422" y="525"/>
      <point x="412" y="500"/>
      <point x="412" y="484" type="curve" smooth="yes"/>
      <point x="412" y="467"/>
      <point x="424" y="447"/>
      <point x="457" y="447" type="curve" smooth="yes"/>
      <point x="465" y="447"/>
      <point x="480" y="448"/>
      <point x="489" y="448" type="curve" smooth="yes"/>
      <point x="560" y="448"/>
      <point x="619" y="384"/>
      <point x="619" y="281" type="curve" smooth="yes"/>
      <point x="619" y="195"/>
      <point x="563" y="92"/>
      <point x="455" y="92" type="curve" smooth="yes"/>
      <point x="390" y="92"/>
      <point x="354" y="115"/>
      <point x="322" y="175" type="curve" smooth="yes"/>
      <point x="297" y="222"/>
      <point x="271" y="280"/>
      <point x="185" y="280" type="curve" smooth="yes"/>
      <point x="95" y="280"/>
      <point x="33" y="200"/>
      <point x="33" y="112" type="curve" smooth="yes"/>
      <point x="33" y="38"/>
      <point x="70" y="-24"/>
    </contour>
    <contour>
      <point x="255" y="497" type="line"/>
      <point x="428" y="621"/>
      <point x="474" y="651"/>
      <point x="567" y="707" type="curve" smooth="yes"/>
      <point x="569" y="708"/>
      <point x="590" y="719"/>
      <point x="590" y="727" type="curve" smooth="yes"/>
      <point x="590" y="731"/>
      <point x="587" y="734"/>
      <point x="575" y="734" type="curve" smooth="yes"/>
      <point x="510" y="734"/>
      <point x="474" y="728"/>
      <point x="461" y="715" type="curve" smooth="yes"/>
      <point x="409" y="660"/>
      <point x="373" y="622"/>
      <point x="241" y="522" type="curve"/>
      <point x="261" y="506" type="line"/>
      <point x="206" y="639"/>
      <point x="194" y="659"/>
      <point x="161" y="659" type="curve" smooth="yes"/>
      <point x="132" y="659"/>
      <point x="112" y="644"/>
      <point x="112" y="615" type="curve" smooth="yes"/>
      <point x="112" y="584"/>
      <point x="134" y="561"/>
      <point x="242" y="497" type="curve"/>
    </contour>
  </outline>
</glyph>
<glyph name="tHa" format="2">
  <advance width="1049"/>
  <unicode hex="0C39"/>
  <outline>
    <contour>
      <point x="164" y="-15" type="curve" smooth="yes"/>
      <point x="237" y="-15"/>
      <point x="299" y="30"/>
      <point x="321" y="115" type="curve"/>
      <point x="299" y="102" type="line"/>
      <point x="323" y="102" type="line"/>
      <point x="340" y="16"/>
      <point x="414" y="-15"/>
      <point x="472" y="-15" type="curve" smooth="yes"/>
      <point x="602" y="-15"/>
      <point x="697" y="110"/>
      <point x="697" y="264" type="curve" smooth="yes"/>
      <point x="697" y="353"/>
      <point x="666" y="413"/>
      <point x="630" y="450" type="curve"/>
      <point x="648" y="476" type="line"/>
      <point x="528" y="478" type="line"/>
      <point x="523" y="454" type="line"/>
      <point x="602" y="454"/>
      <point x="653" y="378"/>
      <point x="653" y="273" type="curve" smooth="yes"/>
      <point x="653" y="202"/>
      <point x="605" y="92"/>
      <point x="477" y="92" type="curve" smooth="yes"/>
      <point x="365" y="92"/>
      <point x="338" y="151"/>
      <point x="331" y="181" type="curve" smooth="yes"/>
      <point x="325" y="208"/>
      <point x="303" y="283"/>
      <point x="204" y="283" type="curve" smooth="yes"/>
      <point x="115" y="283"/>
      <point x="34" y="216"/>
      <point x="34" y="115" type="curve" smooth="yes"/>
      <point x="34" y="40"/>
      <point x="85" y="-15"/>
    </contour>
    <contour>
      <point x="178" y="86" type="curve" smooth="yes"/>
      <point x="120" y="86"/>
      <point x="89" y="114"/>
      <point x="89" y="153" type="curve" smooth="yes"/>
      <point x="89" y="199"/>
      <point x="134" y="244"/>
      <point x="197" y="244" type="curve" smooth="yes"/>
      <point x="255" y="244"/>
      <point x="286" y="206"/>
      <point x="286" y="167" type="curve" smooth="yes"/>
      <point x="286" y="121"/>
      <point x="242" y="86"/>
    </contour>
    <contour>
      <point x="292" y="497" type="line"/>
      <point x="465" y="621"/>
      <point x="511" y="651"/>
      <point x="604" y="707" type="curve" smooth="yes"/>
      <point x="606" y="708"/>
      <point x="627" y="719"/>
      <point x="627" y="727" type="curve" smooth="yes"/>
      <point x="627" y="731"/>
      <point x="624" y="734"/>
      <point x="612" y="734" type="curve" smooth="yes"/>
      <point x="547" y="734"/>
      <point x="511" y="728"/>
      <point x="498" y="715" type="curve" smooth="yes"/>
      <point x="446" y="660"/>
      <point x="410" y="622"/>
      <point x="278" y="522" type="curve"/>
      <point x="298" y="506" type="line"/>
      <point x="243" y="639"/>
      <point x="231" y="659"/>
      <point x="198" y="659" type="curve" smooth="yes"/>
      <point x="169" y="659"/>
      <point x="149" y="644"/>
      <point x="149" y="615" type="curve" smooth="yes"/>
      <point x="149" y="584"/>
      <point x="171" y="561"/>
      <point x="279" y="497" type="curve"/>
    </contour>
    <contour>
      <point x="935" y="287" type="curve" smooth="yes"/>
      <point x="999" y="287"/>
      <point x="1059" y="332"/>
      <point x="1059" y="406" type="curve" smooth="yes"/>
      <point x="1059" y="472"/>
      <point x="1017" y="520"/>
      <point x="922" y="520" type="curve" smooth="yes"/>
      <point x="464" y="520" type="line"/>
      <point x="454" y="454" type="line"/>
      <point x="896" y="454" type="line"/>
      <point x="949" y="455" type="line" smooth="yes"/>
      <point x="986" y="455"/>
      <point x="1012" y="431"/>
      <point x="1012" y="397" type="curve" smooth="yes"/>
      <point x="1012" y="359"/>
      <point x="982" y="327"/>
      <point x="939" y="327" type="curve" smooth="yes"/>
      <point x="902" y="327"/>
      <point x="876" y="353"/>
      <point x="876" y="386" type="curve" smooth="yes"/>
      <point x="876" y="427"/>
      <point x="912" y="455"/>
      <point x="949" y="455" type="curve"/>
      <point x="912" y="478" type="line"/>
      <point x="858" y="460"/>
      <point x="835" y="424"/>
      <point x="835" y="379" type="curve" smooth="yes"/>
      <point x="835" y="328"/>
      <point x="873" y="287"/>
    </contour>
  </outline>
</glyph>
<glyph name="tNukta" format="2">
  <unicode hex="0C3C"/>
  <outline>
    <contour>
      <point x="-75" y="-88" type="curve" smooth="yes"/>
      <point x="-140" y="-88"/>
      <point x="-191" y="-138"/>
      <point x="-191" y="-201" type="curve" smooth="yes"/>
      <point x="-191" y="-256"/>
      <point x="-148" y="-292"/>
      <point x="-96" y="-292" type="curve" smooth="yes"/>
      <point x="-33" y="-292"/>
      <point x="20" y="-241"/>
      <point x="20" y="-178" type="curve" smooth="yes"/>
      <point x="20" y="-125"/>
      <point x="-20" y="-88"/>
    </contour>
    <contour>
      <point x="-74" y="-126" type="curve" smooth="yes"/>
      <point x="-46" y="-126"/>
      <point x="-23" y="-146"/>
      <point x="-23" y="-178" type="curve" smooth="yes"/>
      <point x="-23" y="-216"/>
      <point x="-53" y="-243"/>
      <point x="-89" y="-243" type="curve" smooth="yes"/>
      <point x="-120" y="-243"/>
      <point x="-145" y="-224"/>
      <point x="-145" y="-190" type="curve" smooth="yes"/>
      <point x="-145" y="-151"/>
      <point x="-112" y="-126"/>
    </contour>
  </outline>
  <guideline angle="90" x="-360" y="0"/>
</glyph>
<glyph name="tAvagraha" format="2">
  <advance width="719"/>
  <unicode hex="0C3D"/>
  <outline>
    <contour>
      <point x="659" y="-5" type="line"/>
      <point x="671" y="77" type="line"/>
      <point x="221" y="77" type="line" smooth="yes"/>
      <point x="141" y="77"/>
      <point x="109" y="96"/>
      <point x="109" y="144" type="curve" smooth="yes"/>
      <point x="109" y="209"/>
      <point x="174" y="227"/>
      <point x="247" y="247" type="curve" smooth="yes"/>
      <point x="346" y="274"/>
      <point x="428" y="305"/>
      <point x="428" y="400" type="curve" smooth="yes"/>
      <point x="428" y="481"/>
      <point x="367" y="525"/>
      <point x="292" y="525" type="curve" smooth="yes"/>
      <point x="190" y="525"/>
      <point x="121" y="456"/>
      <point x="114" y="353" type="curve"/>
      <point x="148" y="353" type="line"/>
      <point x="157" y="392"/>
      <point x="194" y="452"/>
      <point x="283" y="452" type="curve" smooth="yes"/>
      <point x="342" y="452"/>
      <point x="377" y="425"/>
      <point x="377" y="382" type="curve" smooth="yes"/>
      <point x="377" y="322"/>
      <point x="311" y="307"/>
      <point x="237" y="287" type="curve" smooth="yes"/>
      <point x="150" y="263"/>
      <point x="47" y="229"/>
      <point x="47" y="119" type="curve" smooth="yes"/>
      <point x="47" y="30"/>
      <point x="121" y="-5"/>
      <point x="216" y="-5" type="curve" smooth="yes"/>
    </contour>
  </outline>
</glyph>
<glyph name="tSignAa" format="2">
  <unicode hex="0C3E"/>
  <outline>
    <contour>
      <point x="470" y="313" type="curve" smooth="yes"/>
      <point x="537" y="313"/>
      <point x="598" y="360"/>
      <point x="598" y="435" type="curve" smooth="yes"/>
      <point x="598" y="504"/>
      <point x="548" y="548"/>
      <point x="462" y="548" type="curve" smooth="yes"/>
      <point x="-180" y="548" type="line"/>
      <point x="-190" y="482" type="line"/>
      <point x="435" y="482" type="line"/>
      <point x="488" y="483" type="line"/>
      <point x="525" y="483"/>
      <point x="551" y="459"/>
      <point x="551" y="424" type="curve" smooth="yes"/>
      <point x="551" y="386"/>
      <point x="519" y="356"/>
      <point x="478" y="356" type="curve" smooth="yes"/>
      <point x="440" y="356"/>
      <point x="415" y="379"/>
      <point x="415" y="414" type="curve" smooth="yes"/>
      <point x="415" y="455"/>
      <point x="451" y="483"/>
      <point x="488" y="483" type="curve"/>
      <point x="453" y="507" type="line"/>
      <point x="398" y="490"/>
      <point x="372" y="447"/>
      <point x="372" y="406" type="curve" smooth="yes"/>
      <point x="372" y="353"/>
      <point x="412" y="313"/>
    </contour>
  </outline>
</glyph>
<glyph name="tSignI" format="2">
  <unicode hex="0C3F"/>
  <outline>
    <contour>
      <point x="51" y="487" type="curve" smooth="yes"/>
      <point x="191" y="487"/>
      <point x="277" y="560"/>
      <point x="277" y="656" type="curve" smooth="yes"/>
      <point x="277" y="732"/>
      <point x="221" y="794"/>
      <point x="113" y="794" type="curve" smooth="yes"/>
      <point x="4" y="794"/>
      <point x="-59" y="730"/>
      <point x="-59" y="666" type="curve" smooth="yes"/>
      <point x="-59" y="617"/>
      <point x="-21" y="574"/>
      <point x="50" y="574" type="curve" smooth="yes"/>
      <point x="101" y="574"/>
      <point x="143" y="596"/>
      <point x="163" y="653" type="curve"/>
      <point x="132" y="666" type="line"/>
      <point x="115" y="627"/>
      <point x="87" y="615"/>
      <point x="61" y="615" type="curve" smooth="yes"/>
      <point x="30" y="615"/>
      <point x="11" y="631"/>
      <point x="11" y="660" type="curve" smooth="yes"/>
      <point x="11" y="712"/>
      <point x="69" y="738"/>
      <point x="123" y="738" type="curve" smooth="yes"/>
      <point x="187" y="738"/>
      <point x="228" y="701"/>
      <point x="228" y="646" type="curve" smooth="yes"/>
      <point x="228" y="575"/>
      <point x="157" y="525"/>
      <point x="55" y="525" type="curve" smooth="yes"/>
      <point x="-9" y="525"/>
      <point x="-54" y="540"/>
      <point x="-95" y="574" type="curve"/>
      <point x="-120" y="543" type="line"/>
      <point x="-73" y="505"/>
      <point x="-25" y="487"/>
    </contour>
  </outline>
</glyph>
<glyph name="tSignIi" format="2">
  <unicode hex="0C40"/>
  <outline>
    <contour>
      <point x="51" y="487" type="curve" smooth="yes"/>
      <point x="191" y="487"/>
      <point x="277" y="560"/>
      <point x="277" y="655" type="curve" smooth="yes"/>
      <point x="277" y="729"/>
      <point x="221" y="787"/>
      <point x="137" y="791" type="curve" smooth="yes"/>
      <point x="104" y="793"/>
      <point x="86" y="821"/>
      <point x="86" y="849" type="curve" smooth="yes"/>
      <point x="86" y="887"/>
      <point x="115" y="908"/>
      <point x="151" y="908" type="curve" smooth="yes"/>
      <point x="186" y="908"/>
      <point x="208" y="888"/>
      <point x="208" y="852" type="curve"/>
      <point x="239" y="852" type="line"/>
      <point x="245" y="861"/>
      <point x="249" y="875"/>
      <point x="249" y="888" type="curve" smooth="yes"/>
      <point x="249" y="929"/>
      <point x="212" y="966"/>
      <point x="157" y="966" type="curve" smooth="yes"/>
      <point x="89" y="966"/>
      <point x="38" y="920"/>
      <point x="38" y="860" type="curve" smooth="yes"/>
      <point x="38" y="830"/>
      <point x="50" y="810"/>
      <point x="67" y="791" type="curve"/>
      <point x="62" y="773" type="line"/>
      <point x="80" y="790" type="line"/>
      <point x="-8" y="777"/>
      <point x="-59" y="726"/>
      <point x="-59" y="666" type="curve" smooth="yes"/>
      <point x="-59" y="617"/>
      <point x="-21" y="574"/>
      <point x="50" y="574" type="curve" smooth="yes"/>
      <point x="101" y="574"/>
      <point x="143" y="596"/>
      <point x="163" y="653" type="curve"/>
      <point x="132" y="666" type="line"/>
      <point x="115" y="627"/>
      <point x="87" y="615"/>
      <point x="61" y="615" type="curve" smooth="yes"/>
      <point x="30" y="615"/>
      <point x="11" y="631"/>
      <point x="11" y="660" type="curve" smooth="yes"/>
      <point x="11" y="712"/>
      <point x="69" y="738"/>
      <point x="123" y="738" type="curve" smooth="yes"/>
      <point x="187" y="738"/>
      <point x="228" y="701"/>
      <point x="228" y="645" type="curve" smooth="yes"/>
      <point x="228" y="575"/>
      <point x="157" y="525"/>
      <point x="55" y="525" type="curve" smooth="yes"/>
      <point x="-9" y="525"/>
      <point x="-54" y="540"/>
      <point x="-95" y="574" type="curve"/>
      <point x="-120" y="543" type="line"/>
      <point x="-73" y="505"/>
      <point x="-25" y="487"/>
    </contour>
  </outline>
</glyph>
<glyph name="tSignU" format="2">
  <advance width="365"/>
  <unicode hex="0C41"/>
  <outline>
    <contour>
      <point x="61" y="-15" type="curve" smooth="yes"/>
      <point x="202" y="-15"/>
      <point x="295" y="113"/>
      <point x="295" y="274" type="curve" smooth="yes"/>
      <point x="295" y="446"/>
      <point x="174" y="525"/>
      <point x="104" y="525" type="curve" smooth="yes"/>
      <point x="59" y="525"/>
      <point x="48" y="499"/>
      <point x="48" y="483" type="curve" smooth="yes"/>
      <point x="48" y="466"/>
      <point x="59" y="447"/>
      <point x="86" y="447" type="curve" smooth="yes"/>
      <point x="93" y="447"/>
      <point x="107" y="448"/>
      <point x="116" y="448" type="curve" smooth="yes"/>
      <point x="184" y="448"/>
      <point x="251" y="383"/>
      <point x="251" y="280" type="curve" smooth="yes"/>
      <point x="251" y="195"/>
      <point x="197" y="92"/>
      <point x="67" y="92" type="curve" smooth="yes"/>
      <point x="-4" y="92"/>
      <point x="-66" y="126"/>
      <point x="-77" y="253" type="curve"/>
      <point x="-79" y="253" type="line"/>
      <point x="-105" y="170" type="line"/>
      <point x="-92" y="17"/>
      <point x="-8" y="-15"/>
    </contour>
  </outline>
</glyph>
<glyph name="tSignUu" format="2">
  <advance width="642"/>
  <unicode hex="0C42"/>
  <outline>
    <contour>
      <point x="62" y="-15" type="curve" smooth="yes"/>
      <point x="197" y="-15"/>
      <point x="290" y="110"/>
      <point x="290" y="266" type="curve" smooth="yes"/>
      <point x="290" y="348"/>
      <point x="257" y="415"/>
      <point x="222" y="451" type="curve"/>
      <point x="250" y="491" type="line"/>
      <point x="116" y="454" type="line"/>
      <point x="187" y="454"/>
      <point x="246" y="383"/>
      <point x="246" y="275" type="curve" smooth="yes"/>
      <point x="246" y="182"/>
      <point x="184" y="92"/>
      <point x="68" y="92" type="curve" smooth="yes"/>
      <point x="-4" y="92"/>
      <point x="-76" y="125"/>
      <point x="-77" y="253" type="curve"/>
      <point x="-79" y="253" type="line"/>
      <point x="-105" y="170" type="line"/>
      <point x="-91" y="17"/>
      <point x="-9" y="-15"/>
    </contour>
    <contour>
      <point x="528" y="287" type="curve" smooth="yes"/>
      <point x="592" y="287"/>
      <point x="652" y="334"/>
      <point x="652" y="408" type="curve" smooth="yes"/>
      <point x="652" y="472"/>
      <point x="610" y="520"/>
      <point x="515" y="520" type="curve" smooth="yes"/>
      <point x="57" y="520" type="line"/>
      <point x="47" y="454" type="line"/>
      <point x="489" y="454" type="line"/>
      <point x="542" y="455" type="line"/>
      <point x="579" y="455"/>
      <point x="605" y="431"/>
      <point x="605" y="399" type="curve" smooth="yes"/>
      <point x="605" y="358"/>
      <point x="575" y="327"/>
      <point x="532" y="327" type="curve" smooth="yes"/>
      <point x="494" y="327"/>
      <point x="469" y="352"/>
      <point x="469" y="388" type="curve" smooth="yes"/>
      <point x="469" y="427"/>
      <point x="505" y="455"/>
      <point x="542" y="455" type="curve"/>
      <point x="506" y="478" type="line"/>
      <point x="452" y="460"/>
      <point x="428" y="424"/>
      <point x="428" y="381" type="curve" smooth="yes"/>
      <point x="428" y="330"/>
      <point x="466" y="287"/>
    </contour>
  </outline>
</glyph>
<glyph name="tSignVocalicR" format="2">
  <unicode hex="0C43"/>
  <outline>
    <contour>
      <point x="1" y="-444" type="curve" smooth="yes"/>
      <point x="197" y="-444"/>
      <point x="319" y="-268"/>
      <point x="319" y="17" type="curve" smooth="yes"/>
      <point x="319" y="318"/>
      <point x="148" y="505"/>
      <point x="72" y="505" type="curve" smooth="yes"/>
      <point x="38" y="505"/>
      <point x="24" y="485"/>
      <point x="24" y="466" type="curve" smooth="yes"/>
      <point x="24" y="441"/>
      <point x="47" y="430"/>
      <point x="73" y="422" type="curve" smooth="yes"/>
      <point x="191" y="384"/>
      <point x="273" y="228"/>
      <point x="273" y="11" type="curve" smooth="yes"/>
      <point x="273" y="-330"/>
      <point x="101" y="-361"/>
      <point x="12" y="-361" type="curve" smooth="yes"/>
      <point x="-85" y="-361"/>
      <point x="-135" y="-316"/>
      <point x="-135" y="-254" type="curve" smooth="yes"/>
      <point x="-135" y="-195"/>
      <point x="-74" y="-126"/>
      <point x="-9" y="-126" type="curve" smooth="yes"/>
      <point x="26" y="-126"/>
      <point x="43" y="-148"/>
      <point x="43" y="-176" type="curve" smooth="yes"/>
      <point x="43" y="-212"/>
      <point x="13" y="-237"/>
      <point x="-21" y="-237" type="curve" smooth="yes"/>
      <point x="-53" y="-237"/>
      <point x="-73" y="-215"/>
      <point x="-73" y="-186" type="curve" smooth="yes"/>
      <point x="-73" y="-148"/>
      <point x="-38" y="-126"/>
      <point x="-9" y="-126" type="curve"/>
      <point x="-81" y="-126" type="line"/>
      <point x="-125" y="-188" type="line"/>
      <point x="-108" y="-194" type="line"/>
      <point x="-107" y="-241"/>
      <point x="-79" y="-277"/>
      <point x="-23" y="-277" type="curve" smooth="yes"/>
      <point x="53" y="-277"/>
      <point x="92" y="-222"/>
      <point x="92" y="-173" type="curve" smooth="yes"/>
      <point x="92" y="-127"/>
      <point x="61" y="-88"/>
      <point x="2" y="-88" type="curve" smooth="yes"/>
      <point x="-91" y="-88"/>
      <point x="-178" y="-175"/>
      <point x="-178" y="-277" type="curve" smooth="yes"/>
      <point x="-178" y="-375"/>
      <point x="-105" y="-444"/>
    </contour>
  </outline>
</glyph>
<glyph name="tSignVocalicRr" format="2">
  <unicode hex="0C44"/>
  <outline>
    <contour>
      <point x="1" y="-442" type="curve" smooth="yes"/>
      <point x="197" y="-442"/>
      <point x="319" y="-266"/>
      <point x="319" y="19" type="curve" smooth="yes"/>
      <point x="319" y="222"/>
      <point x="251" y="368"/>
      <point x="179" y="438" type="curve"/>
      <point x="195" y="463" type="line"/>
      <point x="41" y="441" type="line"/>
      <point x="182" y="408"/>
      <point x="273" y="250"/>
      <point x="273" y="13" type="curve" smooth="yes"/>
      <point x="273" y="-328"/>
      <point x="101" y="-359"/>
      <point x="12" y="-359" type="curve" smooth="yes"/>
      <point x="-85" y="-359"/>
      <point x="-135" y="-314"/>
      <point x="-135" y="-252" type="curve" smooth="yes"/>
      <point x="-135" y="-193"/>
      <point x="-74" y="-124"/>
      <point x="-9" y="-124" type="curve" smooth="yes"/>
      <point x="26" y="-124"/>
      <point x="43" y="-146"/>
      <point x="43" y="-174" type="curve" smooth="yes"/>
      <point x="43" y="-210"/>
      <point x="13" y="-235"/>
      <point x="-21" y="-235" type="curve" smooth="yes"/>
      <point x="-53" y="-235"/>
      <point x="-73" y="-213"/>
      <point x="-73" y="-184" type="curve" smooth="yes"/>
      <point x="-73" y="-146"/>
      <point x="-38" y="-124"/>
      <point x="-9" y="-124" type="curve"/>
      <point x="-81" y="-124" type="line"/>
      <point x="-125" y="-186" type="line"/>
      <point x="-108" y="-192" type="line"/>
      <point x="-107" y="-239"/>
      <point x="-79" y="-275"/>
      <point x="-23" y="-275" type="curve" smooth="yes"/>
      <point x="53" y="-275"/>
      <point x="92" y="-220"/>
      <point x="92" y="-171" type="curve" smooth="yes"/>
      <point x="92" y="-125"/>
      <point x="61" y="-86"/>
      <point x="2" y="-86" type="curve" smooth="yes"/>
      <point x="-91" y="-86"/>
      <point x="-178" y="-173"/>
      <point x="-178" y="-275" type="curve" smooth="yes"/>
      <point x="-178" y="-373"/>
      <point x="-105" y="-442"/>
    </contour>
    <contour>
      <point x="488" y="272" type="curve" smooth="yes"/>
      <point x="555" y="272"/>
      <point x="614" y="322"/>
      <point x="614" y="397" type="curve" smooth="yes"/>
      <point x="614" y="460"/>
      <point x="572" y="507"/>
      <point x="477" y="507" type="curve" smooth="yes"/>
      <point x="50" y="507" type="line"/>
      <point x="40" y="441" type="line"/>
      <point x="451" y="441" type="line"/>
      <point x="505" y="442" type="line" smooth="yes"/>
      <point x="542" y="443"/>
      <point x="567" y="417"/>
      <point x="567" y="384" type="curve" smooth="yes"/>
      <point x="567" y="346"/>
      <point x="536" y="315"/>
      <point x="493" y="315" type="curve" smooth="yes"/>
      <point x="453" y="315"/>
      <point x="431" y="343"/>
      <point x="431" y="374" type="curve" smooth="yes"/>
      <point x="431" y="415"/>
      <point x="468" y="442"/>
      <point x="505" y="442" type="curve"/>
      <point x="472" y="466" type="line"/>
      <point x="418" y="448"/>
      <point x="388" y="411"/>
      <point x="388" y="367" type="curve" smooth="yes"/>
      <point x="388" y="316"/>
      <point x="426" y="272"/>
    </contour>
  </outline>
</glyph>
<glyph name="tSignE" format="2">
  <unicode hex="0C46"/>
  <outline>
    <contour>
      <point x="227" y="482" type="line" smooth="yes"/>
      <point x="317" y="482"/>
      <point x="347" y="540"/>
      <point x="347" y="591" type="curve" smooth="yes"/>
      <point x="347" y="648"/>
      <point x="308" y="693"/>
      <point x="224" y="693" type="curve" smooth="yes"/>
      <point x="-219" y="693" type="line"/>
      <point x="-229" y="627" type="line"/>
      <point x="227" y="627" type="line" smooth="yes"/>
      <point x="281" y="627"/>
      <point x="299" y="604"/>
      <point x="299" y="577" type="curve" smooth="yes"/>
      <point x="299" y="556"/>
      <point x="286" y="525"/>
      <point x="233" y="525" type="curve" smooth="yes"/>
      <point x="-132" y="525" type="line"/>
      <point x="-138" y="482" type="line"/>
    </contour>
  </outline>
</glyph>
<glyph name="tSignEe" format="2">
  <unicode hex="0C47"/>
  <outline>
    <contour>
      <point x="227" y="482" type="line" smooth="yes"/>
      <point x="317" y="482"/>
      <point x="347" y="540"/>
      <point x="347" y="591" type="curve" smooth="yes"/>
      <point x="347" y="625"/>
      <point x="334" y="660"/>
      <point x="293" y="682" type="curve" smooth="yes"/>
      <point x="262" y="699"/>
      <point x="221" y="726"/>
      <point x="221" y="768" type="curve" smooth="yes"/>
      <point x="221" y="806"/>
      <point x="254" y="823"/>
      <point x="288" y="823" type="curve" smooth="yes"/>
      <point x="323" y="823"/>
      <point x="344" y="801"/>
      <point x="341" y="767" type="curve"/>
      <point x="372" y="767" type="line"/>
      <point x="379" y="778"/>
      <point x="383" y="792"/>
      <point x="383" y="805" type="curve" smooth="yes"/>
      <point x="383" y="845"/>
      <point x="348" y="881"/>
      <point x="291" y="881" type="curve" smooth="yes"/>
      <point x="226" y="881"/>
      <point x="173" y="839"/>
      <point x="173" y="779" type="curve" smooth="yes"/>
      <point x="173" y="745"/>
      <point x="188" y="720"/>
      <point x="214" y="697" type="curve"/>
      <point x="205" y="677" type="line"/>
      <point x="231" y="693" type="line"/>
      <point x="-219" y="693" type="line"/>
      <point x="-229" y="627" type="line"/>
      <point x="227" y="627" type="line" smooth="yes"/>
      <point x="281" y="627"/>
      <point x="299" y="604"/>
      <point x="299" y="577" type="curve" smooth="yes"/>
      <point x="299" y="556"/>
      <point x="286" y="525"/>
      <point x="233" y="525" type="curve" smooth="yes"/>
      <point x="-132" y="525" type="line"/>
      <point x="-138" y="482" type="line"/>
    </contour>
  </outline>
</glyph>
<glyph name="tSignAi" format="2">
  <unicode hex="0C48"/>
  <outline>
    <contour>
      <point x="197" y="-323" type="line"/>
      <point x="207" y="-257" type="line"/>
      <point x="-273" y="-257" type="line"/>
      <point x="-326" y="-258" type="line"/>
      <point x="-363" y="-258"/>
      <point x="-389" y="-234"/>
      <point x="-389" y="-200" type="curve" smooth="yes"/>
      <point x="-389" y="-162"/>
      <point x="-359" y="-131"/>
      <point x="-316" y="-131" type="curve" smooth="yes"/>
      <point x="-278" y="-131"/>
      <point x="-252" y="-156"/>
      <point x="-252" y="-189" type="curve" smooth="yes"/>
      <point x="-252" y="-230"/>
      <point x="-289" y="-258"/>
      <point x="-326" y="-258" type="curve"/>
      <point x="-289" y="-281" type="line"/>
      <point x="-235" y="-263"/>
      <point x="-210" y="-227"/>
      <point x="-210" y="-182" type="curve" smooth="yes"/>
      <point x="-210" y="-131"/>
      <point x="-250" y="-88"/>
      <point x="-312" y="-88" type="curve" smooth="yes"/>
      <point x="-376" y="-88"/>
      <point x="-436" y="-135"/>
      <point x="-436" y="-209" type="curve" smooth="yes"/>
      <point x="-436" y="-275"/>
      <point x="-389" y="-323"/>
      <point x="-294" y="-323" type="curve" smooth="yes"/>
    </contour>
    <contour>
      <point x="226" y="482" type="line" smooth="yes"/>
      <point x="316" y="482"/>
      <point x="346" y="540"/>
      <point x="346" y="591" type="curve" smooth="yes"/>
      <point x="346" y="648"/>
      <point x="307" y="693"/>
      <point x="223" y="693" type="curve" smooth="yes"/>
      <point x="-219" y="693" type="line"/>
      <point x="-229" y="627" type="line"/>
      <point x="226" y="627" type="line" smooth="yes"/>
      <point x="280" y="627"/>
      <point x="298" y="604"/>
      <point x="298" y="577" type="curve" smooth="yes"/>
      <point x="298" y="556"/>
      <point x="285" y="525"/>
      <point x="232" y="525" type="curve" smooth="yes"/>
      <point x="-132" y="525" type="line"/>
      <point x="-138" y="482" type="line"/>
    </contour>
  </outline>
  <guideline angle="90" x="370" y="0"/>
  <guideline angle="90" x="-226" y="0"/>
</glyph>
<glyph name="tSignO" format="2">
  <unicode hex="0C4A"/>
  <outline>
    <contour>
      <point x="347" y="490" type="curve" smooth="yes"/>
      <point x="413" y="490"/>
      <point x="470" y="538"/>
      <point x="470" y="610" type="curve" smooth="yes"/>
      <point x="470" y="691"/>
      <point x="394" y="729"/>
      <point x="302" y="729" type="curve" smooth="yes"/>
      <point x="240" y="729"/>
      <point x="169" y="709"/>
      <point x="112" y="666" type="curve"/>
      <point x="116" y="593" type="line"/>
      <point x="119" y="593" type="line"/>
      <point x="164" y="626"/>
      <point x="229" y="664"/>
      <point x="317" y="664" type="curve"/>
      <point x="366" y="657" type="line"/>
      <point x="397" y="657"/>
      <point x="423" y="634"/>
      <point x="423" y="600" type="curve" smooth="yes"/>
      <point x="423" y="562"/>
      <point x="391" y="532"/>
      <point x="353" y="532" type="curve" smooth="yes"/>
      <point x="319" y="532"/>
      <point x="294" y="556"/>
      <point x="294" y="588" type="curve" smooth="yes"/>
      <point x="294" y="627"/>
      <point x="329" y="657"/>
      <point x="366" y="657" type="curve"/>
      <point x="291" y="686" type="line"/>
      <point x="296" y="660" type="line"/>
      <point x="261" y="635"/>
      <point x="253" y="603"/>
      <point x="253" y="578" type="curve" smooth="yes"/>
      <point x="253" y="530"/>
      <point x="290" y="490"/>
    </contour>
    <contour>
      <point x="-54" y="485" type="curve" smooth="yes"/>
      <point x="-26" y="485"/>
      <point x="12" y="498"/>
      <point x="16" y="520" type="curve"/>
      <point x="-27" y="520" type="line" smooth="yes"/>
      <point x="-85" y="520"/>
      <point x="-116" y="553"/>
      <point x="-116" y="594" type="curve" smooth="yes"/>
      <point x="-116" y="632"/>
      <point x="-80" y="663"/>
      <point x="-26" y="663" type="curve" smooth="yes"/>
      <point x="33" y="663"/>
      <point x="81" y="634"/>
      <point x="116" y="593" type="curve"/>
      <point x="144" y="676" type="line"/>
      <point x="123" y="676" type="line"/>
      <point x="90" y="709"/>
      <point x="44" y="729"/>
      <point x="-13" y="729" type="curve" smooth="yes"/>
      <point x="-97" y="729"/>
      <point x="-169" y="677"/>
      <point x="-169" y="602" type="curve" smooth="yes"/>
      <point x="-169" y="534"/>
      <point x="-116" y="485"/>
    </contour>
  </outline>
</glyph>
<glyph name="tSignOo" format="2">
  <unicode hex="0C4B"/>
  <outline>
    <contour>
      <point x="349" y="490" type="curve" smooth="yes"/>
      <point x="413" y="490"/>
      <point x="470" y="537"/>
      <point x="470" y="611" type="curve" smooth="yes"/>
      <point x="470" y="661"/>
      <point x="437" y="688"/>
      <point x="407" y="708" type="curve" smooth="yes"/>
      <point x="381" y="725"/>
      <point x="346" y="749"/>
      <point x="346" y="790" type="curve" smooth="yes"/>
      <point x="346" y="829"/>
      <point x="379" y="846"/>
      <point x="413" y="846" type="curve" smooth="yes"/>
      <point x="448" y="846"/>
      <point x="469" y="824"/>
      <point x="466" y="790" type="curve"/>
      <point x="497" y="790" type="line"/>
      <point x="504" y="801"/>
      <point x="508" y="815"/>
      <point x="508" y="828" type="curve" smooth="yes"/>
      <point x="508" y="868"/>
      <point x="473" y="904"/>
      <point x="416" y="904" type="curve" smooth="yes"/>
      <point x="351" y="904"/>
      <point x="298" y="862"/>
      <point x="298" y="798" type="curve" smooth="yes"/>
      <point x="298" y="772"/>
      <point x="307" y="749"/>
      <point x="325" y="732" type="curve"/>
      <point x="315" y="712" type="line"/>
      <point x="341" y="729" type="line"/>
      <point x="302" y="729" type="line" smooth="yes"/>
      <point x="240" y="729"/>
      <point x="167" y="708"/>
      <point x="111" y="666" type="curve"/>
      <point x="113" y="593" type="line"/>
      <point x="116" y="593" type="line"/>
      <point x="161" y="625"/>
      <point x="225" y="662"/>
      <point x="309" y="664" type="curve"/>
      <point x="287" y="680" type="line"/>
      <point x="294" y="660" type="line"/>
      <point x="261" y="635"/>
      <point x="253" y="603"/>
      <point x="253" y="580" type="curve" smooth="yes"/>
      <point x="253" y="530"/>
      <point x="289" y="490"/>
    </contour>
    <contour>
      <point x="-54" y="485" type="curve" smooth="yes"/>
      <point x="-26" y="485"/>
      <point x="12" y="498"/>
      <point x="16" y="520" type="curve"/>
      <point x="-27" y="520" type="line" smooth="yes"/>
      <point x="-85" y="520"/>
      <point x="-116" y="553"/>
      <point x="-116" y="594" type="curve" smooth="yes"/>
      <point x="-116" y="632"/>
      <point x="-80" y="663"/>
      <point x="-24" y="663" type="curve" smooth="yes"/>
      <point x="33" y="663"/>
      <point x="81" y="634"/>
      <point x="113" y="593" type="curve"/>
      <point x="144" y="676" type="line"/>
      <point x="123" y="676" type="line"/>
      <point x="90" y="709"/>
      <point x="44" y="729"/>
      <point x="-11" y="729" type="curve" smooth="yes"/>
      <point x="-97" y="729"/>
      <point x="-169" y="677"/>
      <point x="-169" y="602" type="curve" smooth="yes"/>
      <point x="-169" y="534"/>
      <point x="-116" y="485"/>
    </contour>
    <contour>
      <point x="353" y="532" type="curve" smooth="yes"/>
      <point x="319" y="532"/>
      <point x="294" y="556"/>
      <point x="294" y="588" type="curve" smooth="yes"/>
      <point x="294" y="627"/>
      <point x="327" y="657"/>
      <point x="365" y="657" type="curve" smooth="yes"/>
      <point x="398" y="657"/>
      <point x="423" y="634"/>
      <point x="423" y="600" type="curve" smooth="yes"/>
      <point x="423" y="562"/>
      <point x="391" y="532"/>
    </contour>
  </outline>
</glyph>
<glyph name="tSignAu" format="2">
  <unicode hex="0C4C"/>
  <outline>
    <contour>
      <point x="502" y="458" type="curve" smooth="yes"/>
      <point x="566" y="458"/>
      <point x="626" y="505"/>
      <point x="626" y="579" type="curve" smooth="yes"/>
      <point x="626" y="645"/>
      <point x="584" y="693"/>
      <point x="489" y="693" type="curve" smooth="yes"/>
      <point x="-142" y="693" type="line"/>
      <point x="-152" y="627" type="line"/>
      <point x="463" y="627" type="line"/>
      <point x="516" y="628" type="line"/>
      <point x="553" y="628"/>
      <point x="579" y="604"/>
      <point x="579" y="570" type="curve" smooth="yes"/>
      <point x="579" y="532"/>
      <point x="549" y="501"/>
      <point x="506" y="501" type="curve" smooth="yes"/>
      <point x="468" y="501"/>
      <point x="442" y="526"/>
      <point x="442" y="559" type="curve" smooth="yes"/>
      <point x="442" y="600"/>
      <point x="479" y="628"/>
      <point x="516" y="628" type="curve"/>
      <point x="479" y="651" type="line"/>
      <point x="425" y="633"/>
      <point x="400" y="597"/>
      <point x="400" y="552" type="curve" smooth="yes"/>
      <point x="400" y="501"/>
      <point x="440" y="458"/>
    </contour>
    <contour>
      <point x="171" y="482" type="line" smooth="yes"/>
      <point x="247" y="482"/>
      <point x="288" y="521"/>
      <point x="288" y="571" type="curve" smooth="yes"/>
      <point x="288" y="595"/>
      <point x="279" y="612"/>
      <point x="264" y="624" type="curve"/>
      <point x="277" y="646" type="line"/>
      <point x="177" y="647" type="line"/>
      <point x="173" y="627" type="line"/>
      <point x="224" y="627"/>
      <point x="243" y="604"/>
      <point x="243" y="574" type="curve" smooth="yes"/>
      <point x="243" y="545"/>
      <point x="224" y="525"/>
      <point x="170" y="525" type="curve" smooth="yes"/>
      <point x="-168" y="525" type="line"/>
      <point x="-174" y="482" type="line"/>
    </contour>
  </outline>
  <guideline angle="92.4851" x="-261" y="0"/>
</glyph>
<glyph name="tVirama" format="2">
  <unicode hex="0C4D"/>
  <outline>
    <contour>
      <point x="-12" y="662" type="line"/>
      <point x="-68" y="662" type="line" smooth="yes"/>
      <point x="-110" y="662"/>
      <point x="-128" y="681"/>
      <point x="-128" y="706" type="curve" smooth="yes"/>
      <point x="-128" y="724"/>
      <point x="-114" y="752"/>
      <point x="-61" y="752" type="curve" smooth="yes"/>
      <point x="371" y="752" type="line"/>
      <point x="380" y="818" type="line"/>
      <point x="-32" y="818" type="line" smooth="yes"/>
      <point x="-116" y="818"/>
      <point x="-172" y="775"/>
      <point x="-172" y="711" type="curve" smooth="yes"/>
      <point x="-172" y="680"/>
      <point x="-159" y="655"/>
      <point x="-135" y="642" type="curve"/>
      <point x="-139" y="624" type="line"/>
    </contour>
    <contour>
      <point x="50" y="482" type="line"/>
      <point x="56" y="525" type="line"/>
      <point x="-78" y="525" type="line" smooth="yes"/>
      <point x="-122" y="525"/>
      <point x="-141" y="544"/>
      <point x="-141" y="569" type="curve" smooth="yes"/>
      <point x="-141" y="587"/>
      <point x="-127" y="615"/>
      <point x="-76" y="615" type="curve" smooth="yes"/>
      <point x="197" y="615" type="line"/>
      <point x="204" y="662" type="line"/>
      <point x="-12" y="662" type="line" smooth="yes"/>
      <point x="-128" y="662"/>
      <point x="-185" y="622"/>
      <point x="-185" y="561" type="curve" smooth="yes"/>
      <point x="-185" y="526"/>
      <point x="-164" y="482"/>
      <point x="-79" y="482" type="curve" smooth="yes"/>
    </contour>
  </outline>
</glyph>
<glyph name="tLengthMark" format="2">
  <unicode hex="0C55"/>
  <outline>
    <contour>
      <point x="303" y="679" type="line"/>
      <point x="263" y="700"/>
      <point x="221" y="726"/>
      <point x="221" y="769" type="curve" smooth="yes"/>
      <point x="221" y="804"/>
      <point x="254" y="823"/>
      <point x="286" y="823" type="curve" smooth="yes"/>
      <point x="323" y="823"/>
      <point x="344" y="801"/>
      <point x="341" y="767" type="curve"/>
      <point x="372" y="767" type="line"/>
      <point x="379" y="778"/>
      <point x="383" y="792"/>
      <point x="383" y="805" type="curve" smooth="yes"/>
      <point x="383" y="845"/>
      <point x="348" y="881"/>
      <point x="289" y="881" type="curve" smooth="yes"/>
      <point x="226" y="881"/>
      <point x="173" y="839"/>
      <point x="173" y="777" type="curve" smooth="yes"/>
      <point x="173" y="743"/>
      <point x="188" y="717"/>
      <point x="215" y="695" type="curve"/>
      <point x="214" y="690" type="line"/>
      <point x="301" y="674" type="line"/>
    </contour>
  </outline>
</glyph>
<glyph name="tAiLengthMark" format="2">
  <unicode hex="0C56"/>
  <outline>
    <contour>
      <point x="196" y="-323" type="line"/>
      <point x="206" y="-257" type="line"/>
      <point x="-274" y="-257" type="line"/>
      <point x="-327" y="-258" type="line"/>
      <point x="-364" y="-258"/>
      <point x="-390" y="-234"/>
      <point x="-390" y="-200" type="curve" smooth="yes"/>
      <point x="-390" y="-162"/>
      <point x="-360" y="-131"/>
      <point x="-317" y="-131" type="curve" smooth="yes"/>
      <point x="-279" y="-131"/>
      <point x="-253" y="-156"/>
      <point x="-253" y="-189" type="curve" smooth="yes"/>
      <point x="-253" y="-230"/>
      <point x="-290" y="-258"/>
      <point x="-327" y="-258" type="curve"/>
      <point x="-290" y="-281" type="line"/>
      <point x="-236" y="-263"/>
      <point x="-211" y="-227"/>
      <point x="-211" y="-182" type="curve" smooth="yes"/>
      <point x="-211" y="-131"/>
      <point x="-251" y="-88"/>
      <point x="-313" y="-88" type="curve" smooth="yes"/>
      <point x="-377" y="-88"/>
      <point x="-437" y="-135"/>
      <point x="-437" y="-209" type="curve" smooth="yes"/>
      <point x="-437" y="-275"/>
      <point x="-390" y="-323"/>
      <point x="-295" y="-323" type="curve" smooth="yes"/>
    </contour>
  </outline>
</glyph>
<glyph name="tTsa" format="2">
  <advance width="857"/>
  <unicode hex="0C58"/>
  <outline>
    <contour>
      <point x="560" y="-15" type="curve" smooth="yes"/>
      <point x="670" y="-15"/>
      <point x="781" y="75"/>
      <point x="781" y="247" type="curve" smooth="yes"/>
      <point x="781" y="402"/>
      <point x="684" y="517"/>
      <point x="497" y="520" type="curve"/>
      <point x="480" y="485" type="line"/>
      <point x="661" y="477"/>
      <point x="730" y="382"/>
      <point x="730" y="262" type="curve" smooth="yes"/>
      <point x="730" y="158"/>
      <point x="655" y="92"/>
      <point x="583" y="92" type="curve" smooth="yes"/>
      <point x="500" y="92"/>
      <point x="459" y="150"/>
      <point x="444" y="215" type="curve"/>
      <point x="404" y="86" type="line"/>
      <point x="424" y="86" type="line"/>
      <point x="438" y="22"/>
      <point x="489" y="-15"/>
    </contour>
    <contour>
      <point x="242" y="-15" type="curve" smooth="yes"/>
      <point x="347" y="-15"/>
      <point x="444" y="60"/>
      <point x="444" y="198" type="curve" smooth="yes"/>
      <point x="444" y="201"/>
      <point x="444" y="212"/>
      <point x="444" y="215" type="curve"/>
      <point x="430" y="215" type="line"/>
      <point x="399" y="145"/>
      <point x="336" y="92"/>
      <point x="267" y="92" type="curve" smooth="yes"/>
      <point x="193" y="92"/>
      <point x="162" y="130"/>
      <point x="162" y="181" type="curve" smooth="yes"/>
      <point x="162" y="235"/>
      <point x="216" y="283"/>
      <point x="296" y="298" type="curve"/>
      <point x="266" y="321" type="line"/>
      <point x="141" y="287"/>
      <point x="95" y="208"/>
      <point x="95" y="131" type="curve" smooth="yes"/>
      <point x="95" y="38"/>
      <point x="167" y="-15"/>
    </contour>
    <contour>
      <point x="296" y="298" type="line"/>
      <point x="306" y="325" type="line"/>
      <point x="243" y="346"/>
      <point x="193" y="366"/>
      <point x="134" y="392" type="curve" smooth="yes"/>
      <point x="126" y="396"/>
      <point x="118" y="398"/>
      <point x="116" y="398" type="curve"/>
      <point x="103" y="398"/>
      <point x="44" y="336"/>
      <point x="44" y="324" type="curve" smooth="yes"/>
      <point x="44" y="320"/>
      <point x="47" y="318"/>
      <point x="59" y="318" type="curve" smooth="yes"/>
      <point x="98" y="318"/>
      <point x="154" y="317"/>
      <point x="230" y="311" type="curve"/>
      <point x="234" y="298" type="line"/>
    </contour>
    <contour>
      <point x="501" y="504" type="line"/>
      <point x="446" y="637"/>
      <point x="436" y="657"/>
      <point x="398" y="657" type="curve" smooth="yes"/>
      <point x="374" y="657"/>
      <point x="352" y="644"/>
      <point x="352" y="609" type="curve" smooth="yes"/>
      <point x="352" y="582"/>
      <point x="381" y="555"/>
      <point x="480" y="485" type="curve"/>
    </contour>
    <contour>
      <point x="498" y="499" type="line"/>
      <point x="653" y="610"/>
      <point x="721" y="655"/>
      <point x="808" y="707" type="curve" smooth="yes"/>
      <point x="810" y="708"/>
      <point x="831" y="719"/>
      <point x="831" y="727" type="curve" smooth="yes"/>
      <point x="831" y="731"/>
      <point x="828" y="734"/>
      <point x="816" y="734" type="curve" smooth="yes"/>
      <point x="749" y="734"/>
      <point x="714" y="727"/>
      <point x="702" y="715" type="curve" smooth="yes"/>
      <point x="647" y="657"/>
      <point x="609" y="617"/>
      <point x="474" y="516" type="curve"/>
    </contour>
    <contour>
      <point x="710" y="774" type="line" smooth="yes"/>
      <point x="827" y="774"/>
      <point x="877" y="841"/>
      <point x="877" y="910" type="curve" smooth="yes"/>
      <point x="877" y="974"/>
      <point x="827" y="1007"/>
      <point x="772" y="1007" type="curve" smooth="yes"/>
      <point x="705" y="1007"/>
      <point x="654" y="955"/>
      <point x="654" y="898" type="curve" smooth="yes"/>
      <point x="654" y="874"/>
      <point x="664" y="842"/>
      <point x="687" y="825" type="curve"/>
      <point x="757" y="837" type="line"/>
      <point x="717" y="837"/>
      <point x="696" y="862"/>
      <point x="696" y="897" type="curve" smooth="yes"/>
      <point x="696" y="938"/>
      <point x="730" y="964"/>
      <point x="768" y="964" type="curve" smooth="yes"/>
      <point x="805" y="964"/>
      <point x="831" y="940"/>
      <point x="831" y="905" type="curve" smooth="yes"/>
      <point x="831" y="866"/>
      <point x="800" y="837"/>
      <point x="757" y="837" type="curve"/>
      <point x="711" y="838" type="line"/>
      <point x="275" y="838" type="line"/>
      <point x="265" y="774" type="line"/>
    </contour>
  </outline>
</glyph>
<glyph name="tDza" format="2">
  <advance width="802"/>
  <unicode hex="0C59"/>
  <outline>
    <contour>
      <point x="202" y="-15" type="curve" smooth="yes"/>
      <point x="277" y="-15"/>
      <point x="344" y="19"/>
      <point x="383" y="86" type="curve"/>
      <point x="403" y="86" type="line"/>
      <point x="394" y="215" type="line"/>
      <point x="356" y="131"/>
      <point x="294" y="92"/>
      <point x="221" y="92" type="curve" smooth="yes"/>
      <point x="152" y="92"/>
      <point x="109" y="112"/>
      <point x="109" y="155" type="curve" smooth="yes"/>
      <point x="109" y="208"/>
      <point x="166" y="227"/>
      <point x="239" y="247" type="curve" smooth="yes"/>
      <point x="338" y="274"/>
      <point x="414" y="302"/>
      <point x="419" y="392" type="curve"/>
      <point x="400" y="372" type="line"/>
      <point x="422" y="382" type="line"/>
      <point x="460" y="318"/>
      <point x="502" y="279"/>
      <point x="577" y="279" type="curve" smooth="yes"/>
      <point x="670" y="279"/>
      <point x="721" y="347"/>
      <point x="721" y="410" type="curve" smooth="yes"/>
      <point x="721" y="480"/>
      <point x="674" y="529"/>
      <point x="615" y="529" type="curve" smooth="yes"/>
      <point x="589" y="529"/>
      <point x="576" y="515"/>
      <point x="576" y="499" type="curve" smooth="yes"/>
      <point x="576" y="486"/>
      <point x="586" y="473"/>
      <point x="610" y="471" type="curve" smooth="yes"/>
      <point x="643" y="468"/>
      <point x="678" y="458"/>
      <point x="678" y="414" type="curve" smooth="yes"/>
      <point x="678" y="377"/>
      <point x="630" y="352"/>
      <point x="576" y="352" type="curve" smooth="yes"/>
      <point x="480" y="352"/>
      <point x="434" y="415"/>
      <point x="414" y="451" type="curve" smooth="yes"/>
      <point x="389" y="496"/>
      <point x="346" y="525"/>
      <point x="284" y="525" type="curve" smooth="yes"/>
      <point x="182" y="525"/>
      <point x="113" y="456"/>
      <point x="106" y="353" type="curve"/>
      <point x="140" y="353" type="line"/>
      <point x="149" y="392"/>
      <point x="186" y="452"/>
      <point x="275" y="452" type="curve" smooth="yes"/>
      <point x="334" y="452"/>
      <point x="371" y="425"/>
      <point x="371" y="382" type="curve" smooth="yes"/>
      <point x="371" y="322"/>
      <point x="303" y="307"/>
      <point x="229" y="287" type="curve" smooth="yes"/>
      <point x="142" y="263"/>
      <point x="48" y="232"/>
      <point x="48" y="118" type="curve" smooth="yes"/>
      <point x="48" y="26"/>
      <point x="130" y="-15"/>
    </contour>
    <contour>
      <point x="524" y="-15" type="curve" smooth="yes"/>
      <point x="633" y="-15"/>
      <point x="719" y="52"/>
      <point x="719" y="182" type="curve" smooth="yes"/>
      <point x="719" y="206"/>
      <point x="715" y="229"/>
      <point x="708" y="247" type="curve"/>
      <point x="671" y="232" type="line"/>
      <point x="675" y="220"/>
      <point x="675" y="207"/>
      <point x="675" y="193" type="curve" smooth="yes"/>
      <point x="675" y="138"/>
      <point x="614" y="92"/>
      <point x="544" y="92" type="curve" smooth="yes"/>
      <point x="457" y="92"/>
      <point x="417" y="147"/>
      <point x="408" y="215" type="curve"/>
      <point x="394" y="215" type="line"/>
      <point x="389" y="182"/>
      <point x="382" y="159"/>
      <point x="382" y="129" type="curve" smooth="yes"/>
      <point x="382" y="40"/>
      <point x="443" y="-15"/>
    </contour>
    <contour>
      <point x="604" y="589" type="line" smooth="yes"/>
      <point x="721" y="589"/>
      <point x="771" y="656"/>
      <point x="771" y="725" type="curve" smooth="yes"/>
      <point x="771" y="789"/>
      <point x="721" y="822"/>
      <point x="666" y="822" type="curve" smooth="yes"/>
      <point x="599" y="822"/>
      <point x="548" y="770"/>
      <point x="548" y="713" type="curve" smooth="yes"/>
      <point x="548" y="689"/>
      <point x="558" y="657"/>
      <point x="581" y="640" type="curve"/>
      <point x="651" y="652" type="line"/>
      <point x="611" y="652"/>
      <point x="590" y="677"/>
      <point x="590" y="712" type="curve" smooth="yes"/>
      <point x="590" y="753"/>
      <point x="624" y="779"/>
      <point x="662" y="779" type="curve" smooth="yes"/>
      <point x="699" y="779"/>
      <point x="725" y="755"/>
      <point x="725" y="720" type="curve" smooth="yes"/>
      <point x="725" y="681"/>
      <point x="694" y="652"/>
      <point x="651" y="652" type="curve"/>
      <point x="605" y="653" type="line"/>
      <point x="209" y="653" type="line"/>
      <point x="200" y="589" type="line"/>
    </contour>
  </outline>
</glyph>
<glyph name="tNakaaraPollu" format="2">
  <advance width="656"/>
  <unicode hex="0C5D"/>
  <outline>
    <contour>
      <point x="230" y="356" type="line"/>
      <point x="188" y="356"/>
      <point x="161" y="378"/>
      <point x="161" y="409" type="curve" smooth="yes"/>
      <point x="161" y="441"/>
      <point x="192" y="459"/>
      <point x="238" y="459" type="curve" smooth="yes"/>
      <point x="681" y="459" type="line"/>
      <point x="691" y="529" type="line"/>
      <point x="264" y="529" type="line" smooth="yes"/>
      <point x="165" y="529"/>
      <point x="104" y="486"/>
      <point x="104" y="414" type="curve" smooth="yes"/>
      <point x="104" y="369"/>
      <point x="127" y="334"/>
      <point x="176" y="321" type="curve"/>
    </contour>
    <contour>
      <point x="279" y="-11" type="line"/>
      <point x="286" y="40" type="line"/>
      <point x="175" y="40" type="line" smooth="yes"/>
      <point x="140" y="40"/>
      <point x="113" y="59"/>
      <point x="113" y="89" type="curve" smooth="yes"/>
      <point x="113" y="115"/>
      <point x="134" y="143"/>
      <point x="201" y="143" type="curve" smooth="yes"/>
      <point x="429" y="143" type="line"/>
      <point x="436" y="197" type="line"/>
      <point x="134" y="197" type="line"/>
      <point x="128" y="166" type="line"/>
      <point x="81" y="153"/>
      <point x="56" y="117"/>
      <point x="56" y="79" type="curve" smooth="yes"/>
      <point x="56" y="27"/>
      <point x="99" y="-11"/>
      <point x="160" y="-11" type="curve" smooth="yes"/>
    </contour>
    <contour>
      <point x="212" y="197" type="line"/>
      <point x="163" y="197"/>
      <point x="136" y="217"/>
      <point x="136" y="248" type="curve" smooth="yes"/>
      <point x="136" y="276"/>
      <point x="163" y="300"/>
      <point x="225" y="300" type="curve" smooth="yes"/>
      <point x="479" y="300" type="line"/>
      <point x="487" y="356" type="line"/>
      <point x="164" y="356" type="line"/>
      <point x="158" y="325" type="line"/>
      <point x="107" y="314"/>
      <point x="79" y="282"/>
      <point x="79" y="241" type="curve" smooth="yes"/>
      <point x="79" y="205"/>
      <point x="100" y="175"/>
      <point x="148" y="161" type="curve"/>
    </contour>
  </outline>
  <guideline angle="0" x="0" y="-5"/>
  <guideline angle="0" x="0" y="143"/>
  <guideline angle="0" x="0" y="300"/>
  <guideline angle="90" x="467" y="0"/>
</glyph>
<glyph name="tVocalicRr" format="2">
  <advance width="1743"/>
  <unicode hex="0C60"/>
  <outline>
    <contour>
      <point x="524" y="-15" type="curve" smooth="yes"/>
      <point x="620" y="-15"/>
      <point x="683" y="56"/>
      <point x="716" y="143" type="curve"/>
      <point x="694" y="132" type="line"/>
      <point x="717" y="132" type="line"/>
      <point x="740" y="23"/>
      <point x="802" y="-15"/>
      <point x="866" y="-15" type="curve" smooth="yes"/>
      <point x="959" y="-15"/>
      <point x="1022" y="53"/>
      <point x="1059" y="144" type="curve"/>
      <point x="1037" y="132" type="line"/>
      <point x="1059" y="132" type="line"/>
      <point x="1068" y="44"/>
      <point x="1122" y="-15"/>
      <point x="1207" y="-15" type="curve" smooth="yes"/>
      <point x="1324" y="-15"/>
      <point x="1421" y="110"/>
      <point x="1421" y="267" type="curve" smooth="yes"/>
      <point x="1421" y="356"/>
      <point x="1390" y="413"/>
      <point x="1354" y="450" type="curve"/>
      <point x="1372" y="476" type="line"/>
      <point x="1252" y="478" type="line"/>
      <point x="1247" y="454" type="line"/>
      <point x="1326" y="454"/>
      <point x="1377" y="381"/>
      <point x="1377" y="276" type="curve" smooth="yes"/>
      <point x="1377" y="202"/>
      <point x="1329" y="92"/>
      <point x="1215" y="92" type="curve" smooth="yes"/>
      <point x="1141" y="92"/>
      <point x="1084" y="127"/>
      <point x="1084" y="211" type="curve" smooth="yes"/>
      <point x="1084" y="235"/>
      <point x="1088" y="265"/>
      <point x="1088" y="284" type="curve" smooth="yes"/>
      <point x="1088" y="452"/>
      <point x="965" y="525"/>
      <point x="900" y="525" type="curve" smooth="yes"/>
      <point x="853" y="525"/>
      <point x="847" y="497"/>
      <point x="847" y="481" type="curve" smooth="yes"/>
      <point x="847" y="464"/>
      <point x="858" y="447"/>
      <point x="887" y="447" type="curve" smooth="yes"/>
      <point x="894" y="447"/>
      <point x="904" y="448"/>
      <point x="913" y="448" type="curve" smooth="yes"/>
      <point x="985" y="448"/>
      <point x="1044" y="384"/>
      <point x="1044" y="285" type="curve" smooth="yes"/>
      <point x="1044" y="192"/>
      <point x="985" y="92"/>
      <point x="875" y="92" type="curve" smooth="yes"/>
      <point x="800" y="92"/>
      <point x="738" y="127"/>
      <point x="738" y="227" type="curve" smooth="yes"/>
      <point x="738" y="242"/>
      <point x="741" y="261"/>
      <point x="741" y="279" type="curve" smooth="yes"/>
      <point x="741" y="433"/>
      <point x="639" y="525"/>
      <point x="564" y="525" type="curve" smooth="yes"/>
      <point x="517" y="525"/>
      <point x="508" y="498"/>
      <point x="508" y="481" type="curve" smooth="yes"/>
      <point x="508" y="464"/>
      <point x="520" y="447"/>
      <point x="550" y="447" type="curve" smooth="yes"/>
      <point x="557" y="447"/>
      <point x="568" y="448"/>
      <point x="576" y="448" type="curve" smooth="yes"/>
      <point x="645" y="448"/>
      <point x="697" y="382"/>
      <point x="697" y="283" type="curve" smooth="yes"/>
      <point x="697" y="179"/>
      <point x="623" y="92"/>
      <point x="537" y="92" type="curve" smooth="yes"/>
      <point x="457" y="92"/>
      <point x="417" y="147"/>
      <point x="408" y="215" type="curve"/>
      <point x="394" y="215" type="line"/>
      <point x="389" y="182"/>
      <point x="382" y="159"/>
      <point x="382" y="129" type="curve" smooth="yes"/>
      <point x="382" y="40"/>
      <point x="443" y="-15"/>
    </contour>
    <contour>
      <point x="202" y="-15" type="curve" smooth="yes"/>
      <point x="267" y="-15"/>
      <point x="344" y="19"/>
      <point x="383" y="86" type="curve"/>
      <point x="403" y="86" type="line"/>
      <point x="394" y="215" type="line"/>
      <point x="350" y="142"/>
      <point x="304" y="92"/>
      <point x="221" y="92" type="curve" smooth="yes"/>
      <point x="152" y="92"/>
      <point x="109" y="112"/>
      <point x="109" y="155" type="curve" smooth="yes"/>
      <point x="109" y="208"/>
      <point x="166" y="227"/>
      <point x="239" y="247" type="curve" smooth="yes"/>
      <point x="341" y="275"/>
      <point x="420" y="303"/>
      <point x="420" y="398" type="curve" smooth="yes"/>
      <point x="420" y="476"/>
      <point x="358" y="525"/>
      <point x="284" y="525" type="curve" smooth="yes"/>
      <point x="184" y="525"/>
      <point x="126" y="462"/>
      <point x="108" y="372" type="curve"/>
      <point x="108" y="371"/>
      <point x="107" y="367"/>
      <point x="106" y="353" type="curve"/>
      <point x="140" y="353" type="line"/>
      <point x="151" y="392"/>
      <point x="188" y="452"/>
      <point x="275" y="452" type="curve" smooth="yes"/>
      <point x="334" y="452"/>
      <point x="371" y="425"/>
      <point x="371" y="382" type="curve" smooth="yes"/>
      <point x="371" y="322"/>
      <point x="303" y="307"/>
      <point x="229" y="287" type="curve" smooth="yes"/>
      <point x="142" y="263"/>
      <point x="48" y="232"/>
      <point x="48" y="118" type="curve" smooth="yes"/>
      <point x="48" y="26"/>
      <point x="130" y="-15"/>
    </contour>
    <contour>
      <point x="1629" y="285" type="curve" smooth="yes"/>
      <point x="1693" y="285"/>
      <point x="1753" y="332"/>
      <point x="1753" y="406" type="curve" smooth="yes"/>
      <point x="1753" y="472"/>
      <point x="1711" y="520"/>
      <point x="1616" y="520" type="curve" smooth="yes"/>
      <point x="1188" y="520" type="line"/>
      <point x="1178" y="454" type="line"/>
      <point x="1590" y="454" type="line"/>
      <point x="1643" y="455" type="line"/>
      <point x="1680" y="455"/>
      <point x="1706" y="431"/>
      <point x="1706" y="397" type="curve" smooth="yes"/>
      <point x="1706" y="359"/>
      <point x="1676" y="328"/>
      <point x="1633" y="328" type="curve" smooth="yes"/>
      <point x="1595" y="328"/>
      <point x="1569" y="353"/>
      <point x="1569" y="386" type="curve" smooth="yes"/>
      <point x="1569" y="427"/>
      <point x="1606" y="455"/>
      <point x="1643" y="455" type="curve"/>
      <point x="1606" y="478" type="line"/>
      <point x="1552" y="460"/>
      <point x="1527" y="424"/>
      <point x="1527" y="379" type="curve" smooth="yes"/>
      <point x="1527" y="328"/>
      <point x="1567" y="285"/>
    </contour>
  </outline>
</glyph>
<glyph name="tVocalicLl" format="2">
  <advance width="1262"/>
  <unicode hex="0C61"/>
  <outline>
    <contour>
      <point x="430" y="-250" type="curve" smooth="yes"/>
      <point x="731" y="-250"/>
      <point x="889" y="38"/>
      <point x="889" y="265" type="curve" smooth="yes"/>
      <point x="889" y="340"/>
      <point x="879" y="408"/>
      <point x="846" y="454" type="curve"/>
      <point x="861" y="477" type="line"/>
      <point x="776" y="459" type="line"/>
      <point x="828" y="406"/>
      <point x="844" y="329"/>
      <point x="844" y="247" type="curve" smooth="yes"/>
      <point x="844" y="73"/>
      <point x="718" y="-143"/>
      <point x="444" y="-143" type="curve" smooth="yes"/>
      <point x="310" y="-143"/>
      <point x="259" y="-104"/>
      <point x="259" y="-40" type="curve" smooth="yes"/>
      <point x="259" y="20"/>
      <point x="338" y="53"/>
      <point x="423" y="80" type="curve" smooth="yes"/>
      <point x="545" y="119"/>
      <point x="706" y="166"/>
      <point x="706" y="361" type="curve" smooth="yes"/>
      <point x="706" y="459"/>
      <point x="647" y="525"/>
      <point x="561" y="525" type="curve" smooth="yes"/>
      <point x="504" y="525"/>
      <point x="429" y="493"/>
      <point x="381" y="406" type="curve"/>
      <point x="380" y="296" type="line"/>
      <point x="417" y="376"/>
      <point x="479" y="434"/>
      <point x="546" y="434" type="curve" smooth="yes"/>
      <point x="608" y="434"/>
      <point x="651" y="389"/>
      <point x="651" y="322" type="curve" smooth="yes"/>
      <point x="651" y="198"/>
      <point x="536" y="161"/>
      <point x="425" y="125" type="curve" smooth="yes"/>
      <point x="314" y="89"/>
      <point x="199" y="48"/>
      <point x="199" y="-69" type="curve" smooth="yes"/>
      <point x="199" y="-167"/>
      <point x="288" y="-250"/>
    </contour>
    <contour>
      <point x="115" y="301" type="line"/>
      <point x="115" y="303"/>
      <point x="115" y="309"/>
      <point x="115" y="311" type="curve"/>
      <point x="115" y="383"/>
      <point x="177" y="434"/>
      <point x="239" y="434" type="curve" smooth="yes"/>
      <point x="323" y="434"/>
      <point x="358" y="371"/>
      <point x="365" y="296" type="curve"/>
      <point x="380" y="296" type="line"/>
      <point x="410" y="425" type="line"/>
      <point x="390" y="425" type="line"/>
      <point x="371" y="491"/>
      <point x="325" y="525"/>
      <point x="259" y="525" type="curve" smooth="yes"/>
      <point x="163" y="525"/>
      <point x="76" y="448"/>
      <point x="76" y="328" type="curve" smooth="yes"/>
      <point x="76" y="319"/>
      <point x="77" y="303"/>
      <point x="78" y="294" type="curve"/>
    </contour>
    <contour>
      <point x="1148" y="290" type="curve" smooth="yes"/>
      <point x="1212" y="290"/>
      <point x="1272" y="337"/>
      <point x="1272" y="411" type="curve" smooth="yes"/>
      <point x="1272" y="477"/>
      <point x="1230" y="525"/>
      <point x="1135" y="525" type="curve" smooth="yes"/>
      <point x="786" y="525" type="line"/>
      <point x="776" y="459" type="line"/>
      <point x="1109" y="459" type="line"/>
      <point x="1162" y="460" type="line"/>
      <point x="1199" y="460"/>
      <point x="1225" y="436"/>
      <point x="1225" y="402" type="curve" smooth="yes"/>
      <point x="1225" y="364"/>
      <point x="1195" y="333"/>
      <point x="1152" y="333" type="curve" smooth="yes"/>
      <point x="1114" y="333"/>
      <point x="1088" y="358"/>
      <point x="1088" y="391" type="curve" smooth="yes"/>
      <point x="1088" y="432"/>
      <point x="1125" y="460"/>
      <point x="1162" y="460" type="curve"/>
      <point x="1125" y="483" type="line"/>
      <point x="1071" y="465"/>
      <point x="1046" y="429"/>
      <point x="1046" y="384" type="curve" smooth="yes"/>
      <point x="1046" y="333"/>
      <point x="1086" y="290"/>
    </contour>
  </outline>
</glyph>
<glyph name="tSignVocalicL" format="2">
  <unicode hex="0C62"/>
  <outline>
    <contour>
      <point x="-113" y="-560" type="curve" smooth="yes"/>
      <point x="55" y="-560"/>
      <point x="190" y="-424"/>
      <point x="190" y="-252" type="curve" smooth="yes"/>
      <point x="190" y="-159"/>
      <point x="151" y="-88"/>
      <point x="111" y="-88" type="curve" smooth="yes"/>
      <point x="94" y="-88"/>
      <point x="82" y="-100"/>
      <point x="82" y="-115" type="curve" smooth="yes"/>
      <point x="82" y="-139"/>
      <point x="113" y="-152"/>
      <point x="131" y="-180" type="curve" smooth="yes"/>
      <point x="141" y="-196"/>
      <point x="150" y="-221"/>
      <point x="150" y="-263" type="curve" smooth="yes"/>
      <point x="150" y="-414"/>
      <point x="31" y="-488"/>
      <point x="-116" y="-488" type="curve" smooth="yes"/>
      <point x="-158" y="-488"/>
      <point x="-229" y="-482"/>
      <point x="-229" y="-433" type="curve" smooth="yes"/>
      <point x="-229" y="-391"/>
      <point x="-179" y="-379"/>
      <point x="-111" y="-359" type="curve" smooth="yes"/>
      <point x="-42" y="-339"/>
      <point x="62" y="-310"/>
      <point x="62" y="-200" type="curve" smooth="yes"/>
      <point x="62" y="-124"/>
      <point x="13" y="-88"/>
      <point x="-42" y="-88" type="curve" smooth="yes"/>
      <point x="-79" y="-88"/>
      <point x="-124" y="-105"/>
      <point x="-152" y="-154" type="curve"/>
      <point x="-181" y="-154" type="line"/>
      <point x="-160" y="-242" type="line"/>
      <point x="-138" y="-192"/>
      <point x="-92" y="-158"/>
      <point x="-51" y="-158" type="curve" smooth="yes"/>
      <point x="-19" y="-158"/>
      <point x="15" y="-176"/>
      <point x="15" y="-222" type="curve" smooth="yes"/>
      <point x="15" y="-283"/>
      <point x="-52" y="-302"/>
      <point x="-117" y="-320" type="curve" smooth="yes"/>
      <point x="-197" y="-343"/>
      <point x="-279" y="-364"/>
      <point x="-279" y="-445" type="curve" smooth="yes"/>
      <point x="-279" y="-528"/>
      <point x="-194" y="-560"/>
    </contour>
    <contour>
      <point x="-337" y="-243" type="line"/>
      <point x="-338" y="-239"/>
      <point x="-339" y="-232"/>
      <point x="-339" y="-226" type="curve" smooth="yes"/>
      <point x="-339" y="-191"/>
      <point x="-307" y="-158"/>
      <point x="-259" y="-158" type="curve" smooth="yes"/>
      <point x="-206" y="-158"/>
      <point x="-181" y="-199"/>
      <point x="-177" y="-242" type="curve"/>
      <point x="-160" y="-242" type="line"/>
      <point x="-154" y="-212" type="line"/>
      <point x="-141" y="-133"/>
      <point x="-185" y="-88"/>
      <point x="-247" y="-88" type="curve" smooth="yes"/>
      <point x="-315" y="-88"/>
      <point x="-370" y="-138"/>
      <point x="-370" y="-219" type="curve" smooth="yes"/>
      <point x="-370" y="-233"/>
      <point x="-368" y="-242"/>
      <point x="-367" y="-249" type="curve"/>
    </contour>
  </outline>
</glyph>
<glyph name="tSignVocalicLl" format="2">
  <unicode hex="0C63"/>
  <outline>
    <contour>
      <point x="-183" y="-560" type="curve" smooth="yes"/>
      <point x="-15" y="-560"/>
      <point x="120" y="-424"/>
      <point x="120" y="-252" type="curve" smooth="yes"/>
      <point x="120" y="-201"/>
      <point x="107" y="-162"/>
      <point x="91" y="-141" type="curve"/>
      <point x="96" y="-113" type="line"/>
      <point x="25" y="-135" type="line"/>
      <point x="55" y="-158"/>
      <point x="80" y="-193"/>
      <point x="80" y="-259" type="curve" smooth="yes"/>
      <point x="80" y="-414"/>
      <point x="-39" y="-488"/>
      <point x="-186" y="-488" type="curve" smooth="yes"/>
      <point x="-228" y="-488"/>
      <point x="-299" y="-482"/>
      <point x="-299" y="-433" type="curve" smooth="yes"/>
      <point x="-299" y="-391"/>
      <point x="-249" y="-379"/>
      <point x="-181" y="-359" type="curve" smooth="yes"/>
      <point x="-112" y="-339"/>
      <point x="-8" y="-310"/>
      <point x="-8" y="-200" type="curve" smooth="yes"/>
      <point x="-8" y="-124"/>
      <point x="-57" y="-88"/>
      <point x="-112" y="-88" type="curve" smooth="yes"/>
      <point x="-149" y="-88"/>
      <point x="-194" y="-105"/>
      <point x="-222" y="-154" type="curve"/>
      <point x="-251" y="-154" type="line"/>
      <point x="-230" y="-242" type="line"/>
      <point x="-208" y="-192"/>
      <point x="-162" y="-158"/>
      <point x="-121" y="-158" type="curve" smooth="yes"/>
      <point x="-89" y="-158"/>
      <point x="-55" y="-176"/>
      <point x="-55" y="-222" type="curve" smooth="yes"/>
      <point x="-55" y="-283"/>
      <point x="-122" y="-302"/>
      <point x="-187" y="-320" type="curve" smooth="yes"/>
      <point x="-267" y="-342"/>
      <point x="-349" y="-364"/>
      <point x="-349" y="-445" type="curve" smooth="yes"/>
      <point x="-349" y="-528"/>
      <point x="-264" y="-560"/>
    </contour>
    <contour>
      <point x="-407" y="-243" type="line"/>
      <point x="-408" y="-239"/>
      <point x="-409" y="-232"/>
      <point x="-409" y="-226" type="curve" smooth="yes"/>
      <point x="-409" y="-191"/>
      <point x="-377" y="-158"/>
      <point x="-329" y="-158" type="curve" smooth="yes"/>
      <point x="-276" y="-158"/>
      <point x="-251" y="-199"/>
      <point x="-247" y="-242" type="curve"/>
      <point x="-230" y="-242" type="line"/>
      <point x="-224" y="-212" type="line"/>
      <point x="-211" y="-133"/>
      <point x="-255" y="-88"/>
      <point x="-317" y="-88" type="curve" smooth="yes"/>
      <point x="-385" y="-88"/>
      <point x="-440" y="-138"/>
      <point x="-440" y="-219" type="curve" smooth="yes"/>
      <point x="-440" y="-233"/>
      <point x="-438" y="-242"/>
      <point x="-437" y="-249" type="curve"/>
    </contour>
    <contour>
      <point x="294" y="-265" type="curve" smooth="yes"/>
      <point x="345" y="-265"/>
      <point x="389" y="-229"/>
      <point x="389" y="-169" type="curve" smooth="yes"/>
      <point x="389" y="-123"/>
      <point x="356" y="-88"/>
      <point x="286" y="-88" type="curve" smooth="yes"/>
      <point x="31" y="-88" type="line"/>
      <point x="25" y="-135" type="line"/>
      <point x="72" y="-138" type="line"/>
      <point x="262" y="-138" type="line"/>
      <point x="306" y="-139" type="line"/>
      <point x="332" y="-139"/>
      <point x="348" y="-156"/>
      <point x="348" y="-180" type="curve" smooth="yes"/>
      <point x="348" y="-208"/>
      <point x="326" y="-229"/>
      <point x="298" y="-229" type="curve" smooth="yes"/>
      <point x="272" y="-229"/>
      <point x="257" y="-213"/>
      <point x="257" y="-189" type="curve" smooth="yes"/>
      <point x="257" y="-159"/>
      <point x="280" y="-139"/>
      <point x="306" y="-139" type="curve"/>
      <point x="247" y="-113" type="line"/>
      <point x="242" y="-141" type="line"/>
      <point x="224" y="-157"/>
      <point x="218" y="-178"/>
      <point x="218" y="-195" type="curve" smooth="yes"/>
      <point x="218" y="-229"/>
      <point x="242" y="-265"/>
    </contour>
  </outline>
</glyph>
<glyph name="tZero" format="2">
  <advance width="660"/>
  <unicode hex="0C66"/>
  <outline>
    <contour>
      <point x="302" y="-15" type="curve" smooth="yes"/>
      <point x="458" y="-15"/>
      <point x="594" y="116"/>
      <point x="594" y="287" type="curve" smooth="yes"/>
      <point x="594" y="433"/>
      <point x="495" y="525"/>
      <point x="367" y="525" type="curve" smooth="yes"/>
      <point x="214" y="525"/>
      <point x="70" y="403"/>
      <point x="70" y="229" type="curve" smooth="yes"/>
      <point x="70" y="91"/>
      <point x="164" y="-15"/>
    </contour>
    <contour>
      <point x="312" y="92" type="curve" smooth="yes"/>
      <point x="208" y="92"/>
      <point x="130" y="159"/>
      <point x="130" y="261" type="curve" smooth="yes"/>
      <point x="130" y="384"/>
      <point x="240" y="482"/>
      <point x="362" y="482" type="curve" smooth="yes"/>
      <point x="479" y="482"/>
      <point x="544" y="405"/>
      <point x="544" y="303" type="curve" smooth="yes"/>
      <point x="544" y="172"/>
      <point x="427" y="92"/>
    </contour>
  </outline>
</glyph>
<glyph name="tOne" format="2">
  <advance width="794"/>
  <unicode hex="0C67"/>
  <outline>
    <contour>
      <point x="217" y="-19" type="curve" smooth="yes"/>
      <point x="270" y="-19"/>
      <point x="288" y="11"/>
      <point x="288" y="34" type="curve" smooth="yes"/>
      <point x="288" y="75"/>
      <point x="252" y="87"/>
      <point x="226" y="92" type="curve" smooth="yes"/>
      <point x="180" y="101"/>
      <point x="114" y="118"/>
      <point x="114" y="222" type="curve" smooth="yes"/>
      <point x="114" y="311"/>
      <point x="194" y="434"/>
      <point x="415" y="434" type="curve" smooth="yes"/>
      <point x="611" y="434"/>
      <point x="675" y="345"/>
      <point x="675" y="250" type="curve" smooth="yes"/>
      <point x="675" y="133"/>
      <point x="585" y="108"/>
      <point x="508" y="94" type="curve" smooth="yes"/>
      <point x="483" y="89"/>
      <point x="422" y="79"/>
      <point x="422" y="26" type="curve" smooth="yes"/>
      <point x="422" y="4"/>
      <point x="440" y="-19"/>
      <point x="474" y="-19" type="curve" smooth="yes"/>
      <point x="582" y="-19"/>
      <point x="724" y="89"/>
      <point x="724" y="268" type="curve" smooth="yes"/>
      <point x="724" y="427"/>
      <point x="598" y="525"/>
      <point x="435" y="525" type="curve" smooth="yes"/>
      <point x="238" y="525"/>
      <point x="64" y="393"/>
      <point x="64" y="200" type="curve" smooth="yes"/>
      <point x="64" y="59"/>
      <point x="162" y="-19"/>
    </contour>
  </outline>
  <guideline angle="0" x="0" y="434"/>
</glyph>
<glyph name="tTwo" format="2">
  <advance width="790"/>
  <unicode hex="0C68"/>
  <outline>
    <contour>
      <point x="420" y="-3" type="line" smooth="yes"/>
      <point x="604" y="-3"/>
      <point x="722" y="121"/>
      <point x="722" y="283" type="curve" smooth="yes"/>
      <point x="722" y="436"/>
      <point x="618" y="525"/>
      <point x="501" y="525" type="curve" smooth="yes"/>
      <point x="414" y="525"/>
      <point x="345" y="467"/>
      <point x="345" y="390" type="curve" smooth="yes"/>
      <point x="345" y="329"/>
      <point x="397" y="294"/>
      <point x="454" y="294" type="curve" smooth="yes"/>
      <point x="530" y="294"/>
      <point x="589" y="348"/>
      <point x="589" y="413" type="curve" smooth="yes"/>
      <point x="589" y="425"/>
      <point x="587" y="437"/>
      <point x="582" y="449" type="curve"/>
      <point x="606" y="468" type="line"/>
      <point x="529" y="481" type="line"/>
      <point x="541" y="466"/>
      <point x="547" y="444"/>
      <point x="547" y="423" type="curve" smooth="yes"/>
      <point x="547" y="371"/>
      <point x="508" y="340"/>
      <point x="460" y="340" type="curve" smooth="yes"/>
      <point x="417" y="340"/>
      <point x="398" y="368"/>
      <point x="398" y="395" type="curve" smooth="yes"/>
      <point x="398" y="437"/>
      <point x="442" y="466"/>
      <point x="510" y="466" type="curve" smooth="yes"/>
      <point x="616" y="466"/>
      <point x="673" y="399"/>
      <point x="673" y="286" type="curve" smooth="yes"/>
      <point x="673" y="163"/>
      <point x="582" y="77"/>
      <point x="437" y="77" type="curve" smooth="yes"/>
      <point x="-24" y="77" type="line"/>
      <point x="-36" y="-3" type="line"/>
    </contour>
  </outline>
</glyph>
<glyph name="tThree" format="2">
  <advance width="546"/>
  <unicode hex="0C69"/>
  <outline>
    <contour>
      <point x="237" y="-15" type="curve" smooth="yes"/>
      <point x="370" y="-15"/>
      <point x="465" y="66"/>
      <point x="465" y="161" type="curve" smooth="yes"/>
      <point x="465" y="284"/>
      <point x="323" y="314"/>
      <point x="256" y="314" type="curve" smooth="yes"/>
      <point x="223" y="314"/>
      <point x="191" y="302"/>
      <point x="191" y="272" type="curve" smooth="yes"/>
      <point x="191" y="239"/>
      <point x="227" y="229"/>
      <point x="270" y="229" type="curve" smooth="yes"/>
      <point x="372" y="229"/>
      <point x="497" y="292"/>
      <point x="497" y="394" type="curve" smooth="yes"/>
      <point x="497" y="487"/>
      <point x="407" y="525"/>
      <point x="321" y="525" type="curve" smooth="yes"/>
      <point x="209" y="525"/>
      <point x="112" y="467"/>
      <point x="112" y="409" type="curve" smooth="yes"/>
      <point x="112" y="383"/>
      <point x="132" y="375"/>
      <point x="150" y="375" type="curve" smooth="yes"/>
      <point x="215" y="375"/>
      <point x="220" y="479"/>
      <point x="337" y="479" type="curve" smooth="yes"/>
      <point x="405" y="479"/>
      <point x="445" y="442"/>
      <point x="445" y="390" type="curve" smooth="yes"/>
      <point x="445" y="339"/>
      <point x="406" y="308"/>
      <point x="352" y="288" type="curve"/>
      <point x="345" y="254" type="line"/>
      <point x="385" y="245"/>
      <point x="414" y="211"/>
      <point x="414" y="155" type="curve" smooth="yes"/>
      <point x="414" y="98"/>
      <point x="348" y="31"/>
      <point x="252" y="31" type="curve" smooth="yes"/>
      <point x="116" y="31"/>
      <point x="158" y="153"/>
      <point x="83" y="153" type="curve" smooth="yes"/>
      <point x="51" y="153"/>
      <point x="34" y="131"/>
      <point x="34" y="106" type="curve" smooth="yes"/>
      <point x="34" y="50"/>
      <point x="119" y="-15"/>
    </contour>
  </outline>
</glyph>
<glyph name="tFour" format="2">
  <advance width="602"/>
  <unicode hex="0C6A"/>
  <outline>
    <contour>
      <point x="335" y="208" type="line"/>
      <point x="461" y="256"/>
      <point x="583" y="338"/>
      <point x="583" y="452" type="curve" smooth="yes"/>
      <point x="583" y="515"/>
      <point x="553" y="548"/>
      <point x="522" y="548" type="curve" smooth="yes"/>
      <point x="499" y="548"/>
      <point x="482" y="532"/>
      <point x="482" y="511" type="curve" smooth="yes"/>
      <point x="482" y="479"/>
      <point x="519" y="469"/>
      <point x="519" y="414" type="curve" smooth="yes"/>
      <point x="519" y="321"/>
      <point x="379" y="255"/>
      <point x="290" y="225" type="curve"/>
      <point x="222" y="247"/>
      <point x="142" y="270"/>
      <point x="142" y="346" type="curve" smooth="yes"/>
      <point x="142" y="405"/>
      <point x="194" y="390"/>
      <point x="194" y="434" type="curve" smooth="yes"/>
      <point x="194" y="452"/>
      <point x="181" y="466"/>
      <point x="158" y="466" type="curve" smooth="yes"/>
      <point x="127" y="466"/>
      <point x="80" y="439"/>
      <point x="80" y="368" type="curve" smooth="yes"/>
      <point x="80" y="268"/>
      <point x="169" y="228"/>
      <point x="238" y="206" type="curve"/>
      <point x="236" y="194" type="line"/>
      <point x="332" y="193" type="line"/>
    </contour>
    <contour>
      <point x="257" y="-15" type="curve" smooth="yes"/>
      <point x="342" y="-15"/>
      <point x="399" y="45"/>
      <point x="399" y="112" type="curve" smooth="yes"/>
      <point x="399" y="174"/>
      <point x="348" y="213"/>
      <point x="291" y="213" type="curve" smooth="yes"/>
      <point x="228" y="213"/>
      <point x="141" y="166"/>
      <point x="141" y="85" type="curve" smooth="yes"/>
      <point x="141" y="26"/>
      <point x="194" y="-15"/>
    </contour>
    <contour>
      <point x="273" y="73" type="curve" smooth="yes"/>
      <point x="220" y="73"/>
      <point x="195" y="92"/>
      <point x="195" y="118" type="curve" smooth="yes"/>
      <point x="195" y="147"/>
      <point x="237" y="179"/>
      <point x="280" y="179" type="curve" smooth="yes"/>
      <point x="325" y="179"/>
      <point x="353" y="153"/>
      <point x="353" y="122" type="curve" smooth="yes"/>
      <point x="353" y="94"/>
      <point x="315" y="73"/>
    </contour>
  </outline>
</glyph>
<glyph name="tFive" format="2">
  <advance width="752"/>
  <unicode hex="0C6B"/>
  <outline>
    <contour>
      <point x="95" y="-7" type="line"/>
      <point x="180" y="147"/>
      <point x="256" y="204"/>
      <point x="372" y="239" type="curve" smooth="yes"/>
      <point x="415" y="252"/>
      <point x="440" y="254"/>
      <point x="473" y="263" type="curve" smooth="yes"/>
      <point x="576" y="291"/>
      <point x="623" y="347"/>
      <point x="623" y="417" type="curve" smooth="yes"/>
      <point x="623" y="488"/>
      <point x="574" y="525"/>
      <point x="512" y="525" type="curve" smooth="yes"/>
      <point x="433" y="525"/>
      <point x="376" y="463"/>
      <point x="376" y="391" type="curve" smooth="yes"/>
      <point x="376" y="345"/>
      <point x="395" y="317"/>
      <point x="420" y="292" type="curve"/>
      <point x="405" y="270" type="line"/>
      <point x="474" y="289" type="line"/>
      <point x="453" y="304"/>
      <point x="436" y="332"/>
      <point x="436" y="375" type="curve" smooth="yes"/>
      <point x="436" y="441"/>
      <point x="481" y="472"/>
      <point x="517" y="472" type="curve" smooth="yes"/>
      <point x="551" y="472"/>
      <point x="574" y="448"/>
      <point x="574" y="401" type="curve" smooth="yes"/>
      <point x="574" y="344"/>
      <point x="541" y="315"/>
      <point x="428" y="288" type="curve"/>
      <point x="398" y="285"/>
      <point x="378" y="280"/>
      <point x="316" y="266" type="curve"/>
      <point x="217" y="240"/>
      <point x="103" y="187"/>
      <point x="14" y="28" type="curve"/>
    </contour>
    <contour>
      <point x="343" y="259" type="line"/>
      <point x="316" y="451"/>
      <point x="246" y="518"/>
      <point x="183" y="518" type="curve" smooth="yes"/>
      <point x="149" y="518"/>
      <point x="130" y="499"/>
      <point x="130" y="476" type="curve" smooth="yes"/>
      <point x="130" y="459"/>
      <point x="141" y="449"/>
      <point x="165" y="441" type="curve" smooth="yes"/>
      <point x="221" y="423"/>
      <point x="290" y="396"/>
      <point x="311" y="255" type="curve"/>
    </contour>
    <contour>
      <point x="541" y="-39" type="curve" smooth="yes"/>
      <point x="642" y="-39"/>
      <point x="676" y="40"/>
      <point x="679" y="121" type="curve"/>
      <point x="644" y="121" type="line"/>
      <point x="634" y="60"/>
      <point x="606" y="26"/>
      <point x="570" y="26" type="curve" smooth="yes"/>
      <point x="545" y="26"/>
      <point x="522" y="42"/>
      <point x="522" y="76" type="curve" smooth="yes"/>
      <point x="522" y="115"/>
      <point x="547" y="148"/>
      <point x="547" y="185" type="curve" smooth="yes"/>
      <point x="547" y="230"/>
      <point x="526" y="258"/>
      <point x="486" y="280" type="curve"/>
      <point x="441" y="269" type="line"/>
      <point x="463" y="248"/>
      <point x="469" y="227"/>
      <point x="469" y="204" type="curve" smooth="yes"/>
      <point x="469" y="154"/>
      <point x="430" y="123"/>
      <point x="430" y="60" type="curve" smooth="yes"/>
      <point x="430" y="-9"/>
      <point x="485" y="-39"/>
    </contour>
  </outline>
</glyph>
<glyph name="tSix" format="2">
  <advance width="749"/>
  <unicode hex="0C6C"/>
  <outline>
    <contour>
      <point x="689" y="-3" type="line"/>
      <point x="701" y="77" type="line"/>
      <point x="243" y="77" type="line" smooth="yes"/>
      <point x="221" y="77"/>
      <point x="113" y="77"/>
      <point x="113" y="154" type="curve" smooth="yes"/>
      <point x="113" y="205"/>
      <point x="161" y="247"/>
      <point x="251" y="247" type="curve" smooth="yes"/>
      <point x="471" y="247" type="line"/>
      <point x="480" y="305" type="line"/>
      <point x="172" y="305" type="line"/>
      <point x="166" y="274" type="line"/>
      <point x="89" y="254"/>
      <point x="51" y="197"/>
      <point x="51" y="135" type="curve" smooth="yes"/>
      <point x="51" y="55"/>
      <point x="112" y="-3"/>
      <point x="218" y="-3" type="curve" smooth="yes"/>
    </contour>
    <contour>
      <point x="272" y="305" type="line"/>
      <point x="183" y="305"/>
      <point x="155" y="347"/>
      <point x="155" y="391" type="curve" smooth="yes"/>
      <point x="155" y="448"/>
      <point x="207" y="474"/>
      <point x="273" y="474" type="curve" smooth="yes"/>
      <point x="365" y="474" type="line"/>
      <point x="373" y="525" type="line"/>
      <point x="283" y="525" type="line" smooth="yes"/>
      <point x="188" y="525"/>
      <point x="98" y="477"/>
      <point x="98" y="387" type="curve" smooth="yes"/>
      <point x="98" y="332"/>
      <point x="130" y="286"/>
      <point x="183" y="271" type="curve"/>
    </contour>
  </outline>
</glyph>
<glyph name="tSeven" format="2">
  <advance width="552"/>
  <unicode hex="0C6D"/>
  <outline>
    <contour>
      <point x="239" y="-15" type="curve" smooth="yes"/>
      <point x="361" y="-15"/>
      <point x="457" y="58"/>
      <point x="468" y="188" type="curve"/>
      <point x="432" y="188" type="line"/>
      <point x="418" y="142"/>
      <point x="386" y="85"/>
      <point x="253" y="85" type="curve" smooth="yes"/>
      <point x="155" y="85"/>
      <point x="103" y="113"/>
      <point x="103" y="161" type="curve" smooth="yes"/>
      <point x="103" y="211"/>
      <point x="158" y="236"/>
      <point x="276" y="253" type="curve" smooth="yes"/>
      <point x="357" y="265"/>
      <point x="490" y="278"/>
      <point x="490" y="390" type="curve" smooth="yes"/>
      <point x="490" y="476"/>
      <point x="412" y="525"/>
      <point x="317" y="525" type="curve" smooth="yes"/>
      <point x="204" y="525"/>
      <point x="120" y="456"/>
      <point x="111" y="357" type="curve"/>
      <point x="145" y="357" type="line"/>
      <point x="159" y="394"/>
      <point x="188" y="451"/>
      <point x="304" y="451" type="curve" smooth="yes"/>
      <point x="393" y="451"/>
      <point x="441" y="418"/>
      <point x="441" y="373" type="curve" smooth="yes"/>
      <point x="441" y="321"/>
      <point x="366" y="308"/>
      <point x="261" y="292" type="curve" smooth="yes"/>
      <point x="178" y="280"/>
      <point x="48" y="259"/>
      <point x="48" y="139" type="curve" smooth="yes"/>
      <point x="48" y="43"/>
      <point x="130" y="-15"/>
    </contour>
  </outline>
</glyph>
<glyph name="tEight" format="2">
  <advance width="729"/>
  <unicode hex="0C6E"/>
  <outline>
    <contour>
      <point x="279" y="-15" type="curve" smooth="yes"/>
      <point x="444" y="-15"/>
      <point x="560" y="109"/>
      <point x="560" y="259" type="curve" smooth="yes"/>
      <point x="560" y="341"/>
      <point x="528" y="409"/>
      <point x="475" y="449" type="curve"/>
      <point x="486" y="465" type="line"/>
      <point x="373" y="454" type="line"/>
      <point x="450" y="445"/>
      <point x="511" y="371"/>
      <point x="511" y="264" type="curve" smooth="yes"/>
      <point x="511" y="163"/>
      <point x="418" y="90"/>
      <point x="294" y="90" type="curve" smooth="yes"/>
      <point x="190" y="90"/>
      <point x="116" y="137"/>
      <point x="116" y="230" type="curve" smooth="yes"/>
      <point x="116" y="344"/>
      <point x="232" y="346"/>
      <point x="232" y="396" type="curve" smooth="yes"/>
      <point x="232" y="409"/>
      <point x="224" y="422"/>
      <point x="205" y="422" type="curve" smooth="yes"/>
      <point x="161" y="422"/>
      <point x="64" y="334"/>
      <point x="64" y="199" type="curve" smooth="yes"/>
      <point x="64" y="63"/>
      <point x="163" y="-15"/>
    </contour>
    <contour>
      <point x="778" y="453" type="line"/>
      <point x="788" y="520" type="line"/>
      <point x="383" y="520" type="line"/>
      <point x="373" y="454" type="line"/>
      <point x="433" y="453" type="line"/>
    </contour>
  </outline>
</glyph>
